%TF.GenerationSoftware,KiCad,Pcbnew,7.0.1*%
%TF.CreationDate,2023-11-25T15:53:30+01:00*%
%TF.ProjectId,Spotify_controller_nutzen,53706f74-6966-4795-9f63-6f6e74726f6c,rev?*%
%TF.SameCoordinates,Original*%
%TF.FileFunction,Drillmap*%
%TF.FilePolarity,Positive*%
%FSLAX45Y45*%
G04 Gerber Fmt 4.5, Leading zero omitted, Abs format (unit mm)*
G04 Created by KiCad (PCBNEW 7.0.1) date 2023-11-25 15:53:30*
%MOMM*%
%LPD*%
G01*
G04 APERTURE LIST*
%ADD10C,0.100000*%
%ADD11C,0.200000*%
%ADD12C,0.060000*%
%ADD13C,0.270000*%
G04 APERTURE END LIST*
D10*
X10473000Y-14250000D02*
X9663000Y-14250000D01*
X6679000Y-14250000D02*
X7463000Y-14250000D01*
X10467000Y-4250000D02*
X6673000Y-4250000D01*
X7463000Y-14250000D02*
X7463000Y-13820000D01*
X10473000Y-14250000D02*
X10467000Y-4250000D01*
X9463000Y-13620000D02*
X7663000Y-13620000D01*
X9663000Y-14250000D02*
X9663000Y-13820000D01*
X9663000Y-13820000D02*
G75*
G03*
X9463000Y-13620000I-200000J0D01*
G01*
X7663000Y-13620000D02*
G75*
G03*
X7463000Y-13820000I0J-200000D01*
G01*
X6673000Y-4250000D02*
X2830000Y-4250000D01*
X2830000Y-4250000D02*
X2836000Y-14250000D01*
X6679000Y-14250000D02*
X5820000Y-14250000D01*
X5620000Y-13620000D02*
X3820000Y-13620000D01*
X2836000Y-14250000D02*
X3620000Y-14250000D01*
X3620000Y-14250000D02*
X3620000Y-13820000D01*
X5820000Y-14250000D02*
X5820000Y-13820000D01*
X5820000Y-13820000D02*
G75*
G03*
X5620000Y-13620000I-200000J0D01*
G01*
X3820000Y-13620000D02*
G75*
G03*
X3620000Y-13820000I0J-200000D01*
G01*
D11*
D12*
X3182200Y-6112250D02*
X3242200Y-6172250D01*
X3242200Y-6112250D02*
X3182200Y-6172250D01*
X3182200Y-6522250D02*
X3242200Y-6582250D01*
X3242200Y-6522250D02*
X3182200Y-6582250D01*
X7025200Y-6112250D02*
X7085200Y-6172250D01*
X7085200Y-6112250D02*
X7025200Y-6172250D01*
X7025200Y-6522250D02*
X7085200Y-6582250D01*
X7085200Y-6522250D02*
X7025200Y-6582250D01*
D13*
X3260000Y-7436000D02*
G75*
G03*
X3260000Y-7436000I-135000J0D01*
G01*
X3260000Y-8318000D02*
G75*
G03*
X3260000Y-8318000I-135000J0D01*
G01*
X3260000Y-13960000D02*
G75*
G03*
X3260000Y-13960000I-135000J0D01*
G01*
X6480000Y-7436000D02*
G75*
G03*
X6480000Y-7436000I-135000J0D01*
G01*
X6480000Y-8318000D02*
G75*
G03*
X6480000Y-8318000I-135000J0D01*
G01*
X6480000Y-13960000D02*
G75*
G03*
X6480000Y-13960000I-135000J0D01*
G01*
X7103000Y-7436000D02*
G75*
G03*
X7103000Y-7436000I-135000J0D01*
G01*
X7103000Y-8318000D02*
G75*
G03*
X7103000Y-8318000I-135000J0D01*
G01*
X7103000Y-13960000D02*
G75*
G03*
X7103000Y-13960000I-135000J0D01*
G01*
X10323000Y-7436000D02*
G75*
G03*
X10323000Y-7436000I-135000J0D01*
G01*
X10323000Y-8318000D02*
G75*
G03*
X10323000Y-8318000I-135000J0D01*
G01*
X10323000Y-13960000D02*
G75*
G03*
X10323000Y-13960000I-135000J0D01*
G01*
D11*
X3072619Y-14567524D02*
X3072619Y-14367524D01*
X3072619Y-14367524D02*
X3120238Y-14367524D01*
X3120238Y-14367524D02*
X3148809Y-14377048D01*
X3148809Y-14377048D02*
X3167857Y-14396095D01*
X3167857Y-14396095D02*
X3177381Y-14415143D01*
X3177381Y-14415143D02*
X3186905Y-14453238D01*
X3186905Y-14453238D02*
X3186905Y-14481809D01*
X3186905Y-14481809D02*
X3177381Y-14519905D01*
X3177381Y-14519905D02*
X3167857Y-14538952D01*
X3167857Y-14538952D02*
X3148809Y-14558000D01*
X3148809Y-14558000D02*
X3120238Y-14567524D01*
X3120238Y-14567524D02*
X3072619Y-14567524D01*
X3272619Y-14567524D02*
X3272619Y-14434190D01*
X3272619Y-14472286D02*
X3282143Y-14453238D01*
X3282143Y-14453238D02*
X3291667Y-14443714D01*
X3291667Y-14443714D02*
X3310714Y-14434190D01*
X3310714Y-14434190D02*
X3329762Y-14434190D01*
X3396428Y-14567524D02*
X3396428Y-14434190D01*
X3396428Y-14367524D02*
X3386905Y-14377048D01*
X3386905Y-14377048D02*
X3396428Y-14386571D01*
X3396428Y-14386571D02*
X3405952Y-14377048D01*
X3405952Y-14377048D02*
X3396428Y-14367524D01*
X3396428Y-14367524D02*
X3396428Y-14386571D01*
X3520238Y-14567524D02*
X3501190Y-14558000D01*
X3501190Y-14558000D02*
X3491667Y-14538952D01*
X3491667Y-14538952D02*
X3491667Y-14367524D01*
X3625000Y-14567524D02*
X3605952Y-14558000D01*
X3605952Y-14558000D02*
X3596428Y-14538952D01*
X3596428Y-14538952D02*
X3596428Y-14367524D01*
X3853571Y-14567524D02*
X3853571Y-14367524D01*
X3853571Y-14367524D02*
X3920238Y-14510381D01*
X3920238Y-14510381D02*
X3986905Y-14367524D01*
X3986905Y-14367524D02*
X3986905Y-14567524D01*
X4167857Y-14567524D02*
X4167857Y-14462762D01*
X4167857Y-14462762D02*
X4158333Y-14443714D01*
X4158333Y-14443714D02*
X4139286Y-14434190D01*
X4139286Y-14434190D02*
X4101190Y-14434190D01*
X4101190Y-14434190D02*
X4082143Y-14443714D01*
X4167857Y-14558000D02*
X4148809Y-14567524D01*
X4148809Y-14567524D02*
X4101190Y-14567524D01*
X4101190Y-14567524D02*
X4082143Y-14558000D01*
X4082143Y-14558000D02*
X4072619Y-14538952D01*
X4072619Y-14538952D02*
X4072619Y-14519905D01*
X4072619Y-14519905D02*
X4082143Y-14500857D01*
X4082143Y-14500857D02*
X4101190Y-14491333D01*
X4101190Y-14491333D02*
X4148809Y-14491333D01*
X4148809Y-14491333D02*
X4167857Y-14481809D01*
X4263095Y-14434190D02*
X4263095Y-14634190D01*
X4263095Y-14443714D02*
X4282143Y-14434190D01*
X4282143Y-14434190D02*
X4320238Y-14434190D01*
X4320238Y-14434190D02*
X4339286Y-14443714D01*
X4339286Y-14443714D02*
X4348810Y-14453238D01*
X4348810Y-14453238D02*
X4358333Y-14472286D01*
X4358333Y-14472286D02*
X4358333Y-14529428D01*
X4358333Y-14529428D02*
X4348810Y-14548476D01*
X4348810Y-14548476D02*
X4339286Y-14558000D01*
X4339286Y-14558000D02*
X4320238Y-14567524D01*
X4320238Y-14567524D02*
X4282143Y-14567524D01*
X4282143Y-14567524D02*
X4263095Y-14558000D01*
X4444048Y-14548476D02*
X4453571Y-14558000D01*
X4453571Y-14558000D02*
X4444048Y-14567524D01*
X4444048Y-14567524D02*
X4434524Y-14558000D01*
X4434524Y-14558000D02*
X4444048Y-14548476D01*
X4444048Y-14548476D02*
X4444048Y-14567524D01*
X4444048Y-14443714D02*
X4453571Y-14453238D01*
X4453571Y-14453238D02*
X4444048Y-14462762D01*
X4444048Y-14462762D02*
X4434524Y-14453238D01*
X4434524Y-14453238D02*
X4444048Y-14443714D01*
X4444048Y-14443714D02*
X4444048Y-14462762D01*
D12*
X2765000Y-14865000D02*
X2825000Y-14925000D01*
X2825000Y-14865000D02*
X2765000Y-14925000D01*
D11*
X3110714Y-14787524D02*
X3129762Y-14787524D01*
X3129762Y-14787524D02*
X3148809Y-14797048D01*
X3148809Y-14797048D02*
X3158333Y-14806571D01*
X3158333Y-14806571D02*
X3167857Y-14825619D01*
X3167857Y-14825619D02*
X3177381Y-14863714D01*
X3177381Y-14863714D02*
X3177381Y-14911333D01*
X3177381Y-14911333D02*
X3167857Y-14949428D01*
X3167857Y-14949428D02*
X3158333Y-14968476D01*
X3158333Y-14968476D02*
X3148809Y-14978000D01*
X3148809Y-14978000D02*
X3129762Y-14987524D01*
X3129762Y-14987524D02*
X3110714Y-14987524D01*
X3110714Y-14987524D02*
X3091667Y-14978000D01*
X3091667Y-14978000D02*
X3082143Y-14968476D01*
X3082143Y-14968476D02*
X3072619Y-14949428D01*
X3072619Y-14949428D02*
X3063095Y-14911333D01*
X3063095Y-14911333D02*
X3063095Y-14863714D01*
X3063095Y-14863714D02*
X3072619Y-14825619D01*
X3072619Y-14825619D02*
X3082143Y-14806571D01*
X3082143Y-14806571D02*
X3091667Y-14797048D01*
X3091667Y-14797048D02*
X3110714Y-14787524D01*
X3263095Y-14968476D02*
X3272619Y-14978000D01*
X3272619Y-14978000D02*
X3263095Y-14987524D01*
X3263095Y-14987524D02*
X3253571Y-14978000D01*
X3253571Y-14978000D02*
X3263095Y-14968476D01*
X3263095Y-14968476D02*
X3263095Y-14987524D01*
X3444048Y-14787524D02*
X3405952Y-14787524D01*
X3405952Y-14787524D02*
X3386905Y-14797048D01*
X3386905Y-14797048D02*
X3377381Y-14806571D01*
X3377381Y-14806571D02*
X3358333Y-14835143D01*
X3358333Y-14835143D02*
X3348809Y-14873238D01*
X3348809Y-14873238D02*
X3348809Y-14949428D01*
X3348809Y-14949428D02*
X3358333Y-14968476D01*
X3358333Y-14968476D02*
X3367857Y-14978000D01*
X3367857Y-14978000D02*
X3386905Y-14987524D01*
X3386905Y-14987524D02*
X3425000Y-14987524D01*
X3425000Y-14987524D02*
X3444048Y-14978000D01*
X3444048Y-14978000D02*
X3453571Y-14968476D01*
X3453571Y-14968476D02*
X3463095Y-14949428D01*
X3463095Y-14949428D02*
X3463095Y-14901809D01*
X3463095Y-14901809D02*
X3453571Y-14882762D01*
X3453571Y-14882762D02*
X3444048Y-14873238D01*
X3444048Y-14873238D02*
X3425000Y-14863714D01*
X3425000Y-14863714D02*
X3386905Y-14863714D01*
X3386905Y-14863714D02*
X3367857Y-14873238D01*
X3367857Y-14873238D02*
X3358333Y-14882762D01*
X3358333Y-14882762D02*
X3348809Y-14901809D01*
X3586905Y-14787524D02*
X3605952Y-14787524D01*
X3605952Y-14787524D02*
X3625000Y-14797048D01*
X3625000Y-14797048D02*
X3634524Y-14806571D01*
X3634524Y-14806571D02*
X3644048Y-14825619D01*
X3644048Y-14825619D02*
X3653571Y-14863714D01*
X3653571Y-14863714D02*
X3653571Y-14911333D01*
X3653571Y-14911333D02*
X3644048Y-14949428D01*
X3644048Y-14949428D02*
X3634524Y-14968476D01*
X3634524Y-14968476D02*
X3625000Y-14978000D01*
X3625000Y-14978000D02*
X3605952Y-14987524D01*
X3605952Y-14987524D02*
X3586905Y-14987524D01*
X3586905Y-14987524D02*
X3567857Y-14978000D01*
X3567857Y-14978000D02*
X3558333Y-14968476D01*
X3558333Y-14968476D02*
X3548809Y-14949428D01*
X3548809Y-14949428D02*
X3539286Y-14911333D01*
X3539286Y-14911333D02*
X3539286Y-14863714D01*
X3539286Y-14863714D02*
X3548809Y-14825619D01*
X3548809Y-14825619D02*
X3558333Y-14806571D01*
X3558333Y-14806571D02*
X3567857Y-14797048D01*
X3567857Y-14797048D02*
X3586905Y-14787524D01*
X3777381Y-14787524D02*
X3796429Y-14787524D01*
X3796429Y-14787524D02*
X3815476Y-14797048D01*
X3815476Y-14797048D02*
X3825000Y-14806571D01*
X3825000Y-14806571D02*
X3834524Y-14825619D01*
X3834524Y-14825619D02*
X3844048Y-14863714D01*
X3844048Y-14863714D02*
X3844048Y-14911333D01*
X3844048Y-14911333D02*
X3834524Y-14949428D01*
X3834524Y-14949428D02*
X3825000Y-14968476D01*
X3825000Y-14968476D02*
X3815476Y-14978000D01*
X3815476Y-14978000D02*
X3796429Y-14987524D01*
X3796429Y-14987524D02*
X3777381Y-14987524D01*
X3777381Y-14987524D02*
X3758333Y-14978000D01*
X3758333Y-14978000D02*
X3748809Y-14968476D01*
X3748809Y-14968476D02*
X3739286Y-14949428D01*
X3739286Y-14949428D02*
X3729762Y-14911333D01*
X3729762Y-14911333D02*
X3729762Y-14863714D01*
X3729762Y-14863714D02*
X3739286Y-14825619D01*
X3739286Y-14825619D02*
X3748809Y-14806571D01*
X3748809Y-14806571D02*
X3758333Y-14797048D01*
X3758333Y-14797048D02*
X3777381Y-14787524D01*
X3929762Y-14987524D02*
X3929762Y-14854190D01*
X3929762Y-14873238D02*
X3939286Y-14863714D01*
X3939286Y-14863714D02*
X3958333Y-14854190D01*
X3958333Y-14854190D02*
X3986905Y-14854190D01*
X3986905Y-14854190D02*
X4005952Y-14863714D01*
X4005952Y-14863714D02*
X4015476Y-14882762D01*
X4015476Y-14882762D02*
X4015476Y-14987524D01*
X4015476Y-14882762D02*
X4025000Y-14863714D01*
X4025000Y-14863714D02*
X4044048Y-14854190D01*
X4044048Y-14854190D02*
X4072619Y-14854190D01*
X4072619Y-14854190D02*
X4091667Y-14863714D01*
X4091667Y-14863714D02*
X4101190Y-14882762D01*
X4101190Y-14882762D02*
X4101190Y-14987524D01*
X4196429Y-14987524D02*
X4196429Y-14854190D01*
X4196429Y-14873238D02*
X4205952Y-14863714D01*
X4205952Y-14863714D02*
X4225000Y-14854190D01*
X4225000Y-14854190D02*
X4253572Y-14854190D01*
X4253572Y-14854190D02*
X4272619Y-14863714D01*
X4272619Y-14863714D02*
X4282143Y-14882762D01*
X4282143Y-14882762D02*
X4282143Y-14987524D01*
X4282143Y-14882762D02*
X4291667Y-14863714D01*
X4291667Y-14863714D02*
X4310714Y-14854190D01*
X4310714Y-14854190D02*
X4339286Y-14854190D01*
X4339286Y-14854190D02*
X4358333Y-14863714D01*
X4358333Y-14863714D02*
X4367857Y-14882762D01*
X4367857Y-14882762D02*
X4367857Y-14987524D01*
X4758333Y-14778000D02*
X4586905Y-15035143D01*
X5015476Y-14787524D02*
X5034524Y-14787524D01*
X5034524Y-14787524D02*
X5053572Y-14797048D01*
X5053572Y-14797048D02*
X5063095Y-14806571D01*
X5063095Y-14806571D02*
X5072619Y-14825619D01*
X5072619Y-14825619D02*
X5082143Y-14863714D01*
X5082143Y-14863714D02*
X5082143Y-14911333D01*
X5082143Y-14911333D02*
X5072619Y-14949428D01*
X5072619Y-14949428D02*
X5063095Y-14968476D01*
X5063095Y-14968476D02*
X5053572Y-14978000D01*
X5053572Y-14978000D02*
X5034524Y-14987524D01*
X5034524Y-14987524D02*
X5015476Y-14987524D01*
X5015476Y-14987524D02*
X4996429Y-14978000D01*
X4996429Y-14978000D02*
X4986905Y-14968476D01*
X4986905Y-14968476D02*
X4977381Y-14949428D01*
X4977381Y-14949428D02*
X4967857Y-14911333D01*
X4967857Y-14911333D02*
X4967857Y-14863714D01*
X4967857Y-14863714D02*
X4977381Y-14825619D01*
X4977381Y-14825619D02*
X4986905Y-14806571D01*
X4986905Y-14806571D02*
X4996429Y-14797048D01*
X4996429Y-14797048D02*
X5015476Y-14787524D01*
X5167857Y-14968476D02*
X5177381Y-14978000D01*
X5177381Y-14978000D02*
X5167857Y-14987524D01*
X5167857Y-14987524D02*
X5158334Y-14978000D01*
X5158334Y-14978000D02*
X5167857Y-14968476D01*
X5167857Y-14968476D02*
X5167857Y-14987524D01*
X5301191Y-14787524D02*
X5320238Y-14787524D01*
X5320238Y-14787524D02*
X5339286Y-14797048D01*
X5339286Y-14797048D02*
X5348810Y-14806571D01*
X5348810Y-14806571D02*
X5358334Y-14825619D01*
X5358334Y-14825619D02*
X5367857Y-14863714D01*
X5367857Y-14863714D02*
X5367857Y-14911333D01*
X5367857Y-14911333D02*
X5358334Y-14949428D01*
X5358334Y-14949428D02*
X5348810Y-14968476D01*
X5348810Y-14968476D02*
X5339286Y-14978000D01*
X5339286Y-14978000D02*
X5320238Y-14987524D01*
X5320238Y-14987524D02*
X5301191Y-14987524D01*
X5301191Y-14987524D02*
X5282143Y-14978000D01*
X5282143Y-14978000D02*
X5272619Y-14968476D01*
X5272619Y-14968476D02*
X5263095Y-14949428D01*
X5263095Y-14949428D02*
X5253572Y-14911333D01*
X5253572Y-14911333D02*
X5253572Y-14863714D01*
X5253572Y-14863714D02*
X5263095Y-14825619D01*
X5263095Y-14825619D02*
X5272619Y-14806571D01*
X5272619Y-14806571D02*
X5282143Y-14797048D01*
X5282143Y-14797048D02*
X5301191Y-14787524D01*
X5444048Y-14806571D02*
X5453572Y-14797048D01*
X5453572Y-14797048D02*
X5472619Y-14787524D01*
X5472619Y-14787524D02*
X5520238Y-14787524D01*
X5520238Y-14787524D02*
X5539286Y-14797048D01*
X5539286Y-14797048D02*
X5548810Y-14806571D01*
X5548810Y-14806571D02*
X5558334Y-14825619D01*
X5558334Y-14825619D02*
X5558334Y-14844667D01*
X5558334Y-14844667D02*
X5548810Y-14873238D01*
X5548810Y-14873238D02*
X5434524Y-14987524D01*
X5434524Y-14987524D02*
X5558334Y-14987524D01*
X5625000Y-14787524D02*
X5748810Y-14787524D01*
X5748810Y-14787524D02*
X5682143Y-14863714D01*
X5682143Y-14863714D02*
X5710714Y-14863714D01*
X5710714Y-14863714D02*
X5729762Y-14873238D01*
X5729762Y-14873238D02*
X5739286Y-14882762D01*
X5739286Y-14882762D02*
X5748810Y-14901809D01*
X5748810Y-14901809D02*
X5748810Y-14949428D01*
X5748810Y-14949428D02*
X5739286Y-14968476D01*
X5739286Y-14968476D02*
X5729762Y-14978000D01*
X5729762Y-14978000D02*
X5710714Y-14987524D01*
X5710714Y-14987524D02*
X5653572Y-14987524D01*
X5653572Y-14987524D02*
X5634524Y-14978000D01*
X5634524Y-14978000D02*
X5625000Y-14968476D01*
X5920238Y-14787524D02*
X5882143Y-14787524D01*
X5882143Y-14787524D02*
X5863095Y-14797048D01*
X5863095Y-14797048D02*
X5853572Y-14806571D01*
X5853572Y-14806571D02*
X5834524Y-14835143D01*
X5834524Y-14835143D02*
X5825000Y-14873238D01*
X5825000Y-14873238D02*
X5825000Y-14949428D01*
X5825000Y-14949428D02*
X5834524Y-14968476D01*
X5834524Y-14968476D02*
X5844048Y-14978000D01*
X5844048Y-14978000D02*
X5863095Y-14987524D01*
X5863095Y-14987524D02*
X5901191Y-14987524D01*
X5901191Y-14987524D02*
X5920238Y-14978000D01*
X5920238Y-14978000D02*
X5929762Y-14968476D01*
X5929762Y-14968476D02*
X5939286Y-14949428D01*
X5939286Y-14949428D02*
X5939286Y-14901809D01*
X5939286Y-14901809D02*
X5929762Y-14882762D01*
X5929762Y-14882762D02*
X5920238Y-14873238D01*
X5920238Y-14873238D02*
X5901191Y-14863714D01*
X5901191Y-14863714D02*
X5863095Y-14863714D01*
X5863095Y-14863714D02*
X5844048Y-14873238D01*
X5844048Y-14873238D02*
X5834524Y-14882762D01*
X5834524Y-14882762D02*
X5825000Y-14901809D01*
X6015476Y-14787524D02*
X6015476Y-14825619D01*
X6091667Y-14787524D02*
X6091667Y-14825619D01*
X6386905Y-15063714D02*
X6377381Y-15054190D01*
X6377381Y-15054190D02*
X6358334Y-15025619D01*
X6358334Y-15025619D02*
X6348810Y-15006571D01*
X6348810Y-15006571D02*
X6339286Y-14978000D01*
X6339286Y-14978000D02*
X6329762Y-14930381D01*
X6329762Y-14930381D02*
X6329762Y-14892286D01*
X6329762Y-14892286D02*
X6339286Y-14844667D01*
X6339286Y-14844667D02*
X6348810Y-14816095D01*
X6348810Y-14816095D02*
X6358334Y-14797048D01*
X6358334Y-14797048D02*
X6377381Y-14768476D01*
X6377381Y-14768476D02*
X6386905Y-14758952D01*
X6548810Y-14854190D02*
X6548810Y-14987524D01*
X6501191Y-14778000D02*
X6453572Y-14920857D01*
X6453572Y-14920857D02*
X6577381Y-14920857D01*
X6805953Y-14987524D02*
X6805953Y-14787524D01*
X6891667Y-14987524D02*
X6891667Y-14882762D01*
X6891667Y-14882762D02*
X6882143Y-14863714D01*
X6882143Y-14863714D02*
X6863096Y-14854190D01*
X6863096Y-14854190D02*
X6834524Y-14854190D01*
X6834524Y-14854190D02*
X6815476Y-14863714D01*
X6815476Y-14863714D02*
X6805953Y-14873238D01*
X7015476Y-14987524D02*
X6996429Y-14978000D01*
X6996429Y-14978000D02*
X6986905Y-14968476D01*
X6986905Y-14968476D02*
X6977381Y-14949428D01*
X6977381Y-14949428D02*
X6977381Y-14892286D01*
X6977381Y-14892286D02*
X6986905Y-14873238D01*
X6986905Y-14873238D02*
X6996429Y-14863714D01*
X6996429Y-14863714D02*
X7015476Y-14854190D01*
X7015476Y-14854190D02*
X7044048Y-14854190D01*
X7044048Y-14854190D02*
X7063096Y-14863714D01*
X7063096Y-14863714D02*
X7072619Y-14873238D01*
X7072619Y-14873238D02*
X7082143Y-14892286D01*
X7082143Y-14892286D02*
X7082143Y-14949428D01*
X7082143Y-14949428D02*
X7072619Y-14968476D01*
X7072619Y-14968476D02*
X7063096Y-14978000D01*
X7063096Y-14978000D02*
X7044048Y-14987524D01*
X7044048Y-14987524D02*
X7015476Y-14987524D01*
X7196429Y-14987524D02*
X7177381Y-14978000D01*
X7177381Y-14978000D02*
X7167857Y-14958952D01*
X7167857Y-14958952D02*
X7167857Y-14787524D01*
X7348810Y-14978000D02*
X7329762Y-14987524D01*
X7329762Y-14987524D02*
X7291667Y-14987524D01*
X7291667Y-14987524D02*
X7272619Y-14978000D01*
X7272619Y-14978000D02*
X7263096Y-14958952D01*
X7263096Y-14958952D02*
X7263096Y-14882762D01*
X7263096Y-14882762D02*
X7272619Y-14863714D01*
X7272619Y-14863714D02*
X7291667Y-14854190D01*
X7291667Y-14854190D02*
X7329762Y-14854190D01*
X7329762Y-14854190D02*
X7348810Y-14863714D01*
X7348810Y-14863714D02*
X7358334Y-14882762D01*
X7358334Y-14882762D02*
X7358334Y-14901809D01*
X7358334Y-14901809D02*
X7263096Y-14920857D01*
X7434524Y-14978000D02*
X7453572Y-14987524D01*
X7453572Y-14987524D02*
X7491667Y-14987524D01*
X7491667Y-14987524D02*
X7510715Y-14978000D01*
X7510715Y-14978000D02*
X7520238Y-14958952D01*
X7520238Y-14958952D02*
X7520238Y-14949428D01*
X7520238Y-14949428D02*
X7510715Y-14930381D01*
X7510715Y-14930381D02*
X7491667Y-14920857D01*
X7491667Y-14920857D02*
X7463096Y-14920857D01*
X7463096Y-14920857D02*
X7444048Y-14911333D01*
X7444048Y-14911333D02*
X7434524Y-14892286D01*
X7434524Y-14892286D02*
X7434524Y-14882762D01*
X7434524Y-14882762D02*
X7444048Y-14863714D01*
X7444048Y-14863714D02*
X7463096Y-14854190D01*
X7463096Y-14854190D02*
X7491667Y-14854190D01*
X7491667Y-14854190D02*
X7510715Y-14863714D01*
X7586905Y-15063714D02*
X7596429Y-15054190D01*
X7596429Y-15054190D02*
X7615477Y-15025619D01*
X7615477Y-15025619D02*
X7625000Y-15006571D01*
X7625000Y-15006571D02*
X7634524Y-14978000D01*
X7634524Y-14978000D02*
X7644048Y-14930381D01*
X7644048Y-14930381D02*
X7644048Y-14892286D01*
X7644048Y-14892286D02*
X7634524Y-14844667D01*
X7634524Y-14844667D02*
X7625000Y-14816095D01*
X7625000Y-14816095D02*
X7615477Y-14797048D01*
X7615477Y-14797048D02*
X7596429Y-14768476D01*
X7596429Y-14768476D02*
X7586905Y-14758952D01*
X7948810Y-15063714D02*
X7939286Y-15054190D01*
X7939286Y-15054190D02*
X7920238Y-15025619D01*
X7920238Y-15025619D02*
X7910715Y-15006571D01*
X7910715Y-15006571D02*
X7901191Y-14978000D01*
X7901191Y-14978000D02*
X7891667Y-14930381D01*
X7891667Y-14930381D02*
X7891667Y-14892286D01*
X7891667Y-14892286D02*
X7901191Y-14844667D01*
X7901191Y-14844667D02*
X7910715Y-14816095D01*
X7910715Y-14816095D02*
X7920238Y-14797048D01*
X7920238Y-14797048D02*
X7939286Y-14768476D01*
X7939286Y-14768476D02*
X7948810Y-14758952D01*
X8025000Y-14854190D02*
X8025000Y-14987524D01*
X8025000Y-14873238D02*
X8034524Y-14863714D01*
X8034524Y-14863714D02*
X8053572Y-14854190D01*
X8053572Y-14854190D02*
X8082143Y-14854190D01*
X8082143Y-14854190D02*
X8101191Y-14863714D01*
X8101191Y-14863714D02*
X8110715Y-14882762D01*
X8110715Y-14882762D02*
X8110715Y-14987524D01*
X8234524Y-14987524D02*
X8215477Y-14978000D01*
X8215477Y-14978000D02*
X8205953Y-14968476D01*
X8205953Y-14968476D02*
X8196429Y-14949428D01*
X8196429Y-14949428D02*
X8196429Y-14892286D01*
X8196429Y-14892286D02*
X8205953Y-14873238D01*
X8205953Y-14873238D02*
X8215477Y-14863714D01*
X8215477Y-14863714D02*
X8234524Y-14854190D01*
X8234524Y-14854190D02*
X8263096Y-14854190D01*
X8263096Y-14854190D02*
X8282143Y-14863714D01*
X8282143Y-14863714D02*
X8291667Y-14873238D01*
X8291667Y-14873238D02*
X8301191Y-14892286D01*
X8301191Y-14892286D02*
X8301191Y-14949428D01*
X8301191Y-14949428D02*
X8291667Y-14968476D01*
X8291667Y-14968476D02*
X8282143Y-14978000D01*
X8282143Y-14978000D02*
X8263096Y-14987524D01*
X8263096Y-14987524D02*
X8234524Y-14987524D01*
X8358334Y-14854190D02*
X8434524Y-14854190D01*
X8386905Y-14787524D02*
X8386905Y-14958952D01*
X8386905Y-14958952D02*
X8396429Y-14978000D01*
X8396429Y-14978000D02*
X8415477Y-14987524D01*
X8415477Y-14987524D02*
X8434524Y-14987524D01*
X8653572Y-14854190D02*
X8653572Y-15054190D01*
X8653572Y-14863714D02*
X8672620Y-14854190D01*
X8672620Y-14854190D02*
X8710715Y-14854190D01*
X8710715Y-14854190D02*
X8729762Y-14863714D01*
X8729762Y-14863714D02*
X8739286Y-14873238D01*
X8739286Y-14873238D02*
X8748810Y-14892286D01*
X8748810Y-14892286D02*
X8748810Y-14949428D01*
X8748810Y-14949428D02*
X8739286Y-14968476D01*
X8739286Y-14968476D02*
X8729762Y-14978000D01*
X8729762Y-14978000D02*
X8710715Y-14987524D01*
X8710715Y-14987524D02*
X8672620Y-14987524D01*
X8672620Y-14987524D02*
X8653572Y-14978000D01*
X8863096Y-14987524D02*
X8844048Y-14978000D01*
X8844048Y-14978000D02*
X8834524Y-14958952D01*
X8834524Y-14958952D02*
X8834524Y-14787524D01*
X9025001Y-14987524D02*
X9025001Y-14882762D01*
X9025001Y-14882762D02*
X9015477Y-14863714D01*
X9015477Y-14863714D02*
X8996429Y-14854190D01*
X8996429Y-14854190D02*
X8958334Y-14854190D01*
X8958334Y-14854190D02*
X8939286Y-14863714D01*
X9025001Y-14978000D02*
X9005953Y-14987524D01*
X9005953Y-14987524D02*
X8958334Y-14987524D01*
X8958334Y-14987524D02*
X8939286Y-14978000D01*
X8939286Y-14978000D02*
X8929762Y-14958952D01*
X8929762Y-14958952D02*
X8929762Y-14939905D01*
X8929762Y-14939905D02*
X8939286Y-14920857D01*
X8939286Y-14920857D02*
X8958334Y-14911333D01*
X8958334Y-14911333D02*
X9005953Y-14911333D01*
X9005953Y-14911333D02*
X9025001Y-14901809D01*
X9091667Y-14854190D02*
X9167858Y-14854190D01*
X9120239Y-14787524D02*
X9120239Y-14958952D01*
X9120239Y-14958952D02*
X9129762Y-14978000D01*
X9129762Y-14978000D02*
X9148810Y-14987524D01*
X9148810Y-14987524D02*
X9167858Y-14987524D01*
X9310715Y-14978000D02*
X9291667Y-14987524D01*
X9291667Y-14987524D02*
X9253572Y-14987524D01*
X9253572Y-14987524D02*
X9234524Y-14978000D01*
X9234524Y-14978000D02*
X9225001Y-14958952D01*
X9225001Y-14958952D02*
X9225001Y-14882762D01*
X9225001Y-14882762D02*
X9234524Y-14863714D01*
X9234524Y-14863714D02*
X9253572Y-14854190D01*
X9253572Y-14854190D02*
X9291667Y-14854190D01*
X9291667Y-14854190D02*
X9310715Y-14863714D01*
X9310715Y-14863714D02*
X9320239Y-14882762D01*
X9320239Y-14882762D02*
X9320239Y-14901809D01*
X9320239Y-14901809D02*
X9225001Y-14920857D01*
X9491667Y-14987524D02*
X9491667Y-14787524D01*
X9491667Y-14978000D02*
X9472620Y-14987524D01*
X9472620Y-14987524D02*
X9434524Y-14987524D01*
X9434524Y-14987524D02*
X9415477Y-14978000D01*
X9415477Y-14978000D02*
X9405953Y-14968476D01*
X9405953Y-14968476D02*
X9396429Y-14949428D01*
X9396429Y-14949428D02*
X9396429Y-14892286D01*
X9396429Y-14892286D02*
X9405953Y-14873238D01*
X9405953Y-14873238D02*
X9415477Y-14863714D01*
X9415477Y-14863714D02*
X9434524Y-14854190D01*
X9434524Y-14854190D02*
X9472620Y-14854190D01*
X9472620Y-14854190D02*
X9491667Y-14863714D01*
X9567858Y-15063714D02*
X9577382Y-15054190D01*
X9577382Y-15054190D02*
X9596429Y-15025619D01*
X9596429Y-15025619D02*
X9605953Y-15006571D01*
X9605953Y-15006571D02*
X9615477Y-14978000D01*
X9615477Y-14978000D02*
X9625001Y-14930381D01*
X9625001Y-14930381D02*
X9625001Y-14892286D01*
X9625001Y-14892286D02*
X9615477Y-14844667D01*
X9615477Y-14844667D02*
X9605953Y-14816095D01*
X9605953Y-14816095D02*
X9596429Y-14797048D01*
X9596429Y-14797048D02*
X9577382Y-14768476D01*
X9577382Y-14768476D02*
X9567858Y-14758952D01*
X2825000Y-15159000D02*
G75*
G03*
X2825000Y-15159000I-100000J0D01*
G01*
X3063095Y-15070571D02*
X3072619Y-15061048D01*
X3072619Y-15061048D02*
X3091667Y-15051524D01*
X3091667Y-15051524D02*
X3139286Y-15051524D01*
X3139286Y-15051524D02*
X3158333Y-15061048D01*
X3158333Y-15061048D02*
X3167857Y-15070571D01*
X3167857Y-15070571D02*
X3177381Y-15089619D01*
X3177381Y-15089619D02*
X3177381Y-15108667D01*
X3177381Y-15108667D02*
X3167857Y-15137238D01*
X3167857Y-15137238D02*
X3053571Y-15251524D01*
X3053571Y-15251524D02*
X3177381Y-15251524D01*
X3263095Y-15232476D02*
X3272619Y-15242000D01*
X3272619Y-15242000D02*
X3263095Y-15251524D01*
X3263095Y-15251524D02*
X3253571Y-15242000D01*
X3253571Y-15242000D02*
X3263095Y-15232476D01*
X3263095Y-15232476D02*
X3263095Y-15251524D01*
X3339286Y-15051524D02*
X3472619Y-15051524D01*
X3472619Y-15051524D02*
X3386905Y-15251524D01*
X3586905Y-15051524D02*
X3605952Y-15051524D01*
X3605952Y-15051524D02*
X3625000Y-15061048D01*
X3625000Y-15061048D02*
X3634524Y-15070571D01*
X3634524Y-15070571D02*
X3644048Y-15089619D01*
X3644048Y-15089619D02*
X3653571Y-15127714D01*
X3653571Y-15127714D02*
X3653571Y-15175333D01*
X3653571Y-15175333D02*
X3644048Y-15213428D01*
X3644048Y-15213428D02*
X3634524Y-15232476D01*
X3634524Y-15232476D02*
X3625000Y-15242000D01*
X3625000Y-15242000D02*
X3605952Y-15251524D01*
X3605952Y-15251524D02*
X3586905Y-15251524D01*
X3586905Y-15251524D02*
X3567857Y-15242000D01*
X3567857Y-15242000D02*
X3558333Y-15232476D01*
X3558333Y-15232476D02*
X3548809Y-15213428D01*
X3548809Y-15213428D02*
X3539286Y-15175333D01*
X3539286Y-15175333D02*
X3539286Y-15127714D01*
X3539286Y-15127714D02*
X3548809Y-15089619D01*
X3548809Y-15089619D02*
X3558333Y-15070571D01*
X3558333Y-15070571D02*
X3567857Y-15061048D01*
X3567857Y-15061048D02*
X3586905Y-15051524D01*
X3777381Y-15051524D02*
X3796429Y-15051524D01*
X3796429Y-15051524D02*
X3815476Y-15061048D01*
X3815476Y-15061048D02*
X3825000Y-15070571D01*
X3825000Y-15070571D02*
X3834524Y-15089619D01*
X3834524Y-15089619D02*
X3844048Y-15127714D01*
X3844048Y-15127714D02*
X3844048Y-15175333D01*
X3844048Y-15175333D02*
X3834524Y-15213428D01*
X3834524Y-15213428D02*
X3825000Y-15232476D01*
X3825000Y-15232476D02*
X3815476Y-15242000D01*
X3815476Y-15242000D02*
X3796429Y-15251524D01*
X3796429Y-15251524D02*
X3777381Y-15251524D01*
X3777381Y-15251524D02*
X3758333Y-15242000D01*
X3758333Y-15242000D02*
X3748809Y-15232476D01*
X3748809Y-15232476D02*
X3739286Y-15213428D01*
X3739286Y-15213428D02*
X3729762Y-15175333D01*
X3729762Y-15175333D02*
X3729762Y-15127714D01*
X3729762Y-15127714D02*
X3739286Y-15089619D01*
X3739286Y-15089619D02*
X3748809Y-15070571D01*
X3748809Y-15070571D02*
X3758333Y-15061048D01*
X3758333Y-15061048D02*
X3777381Y-15051524D01*
X3929762Y-15251524D02*
X3929762Y-15118190D01*
X3929762Y-15137238D02*
X3939286Y-15127714D01*
X3939286Y-15127714D02*
X3958333Y-15118190D01*
X3958333Y-15118190D02*
X3986905Y-15118190D01*
X3986905Y-15118190D02*
X4005952Y-15127714D01*
X4005952Y-15127714D02*
X4015476Y-15146762D01*
X4015476Y-15146762D02*
X4015476Y-15251524D01*
X4015476Y-15146762D02*
X4025000Y-15127714D01*
X4025000Y-15127714D02*
X4044048Y-15118190D01*
X4044048Y-15118190D02*
X4072619Y-15118190D01*
X4072619Y-15118190D02*
X4091667Y-15127714D01*
X4091667Y-15127714D02*
X4101190Y-15146762D01*
X4101190Y-15146762D02*
X4101190Y-15251524D01*
X4196429Y-15251524D02*
X4196429Y-15118190D01*
X4196429Y-15137238D02*
X4205952Y-15127714D01*
X4205952Y-15127714D02*
X4225000Y-15118190D01*
X4225000Y-15118190D02*
X4253572Y-15118190D01*
X4253572Y-15118190D02*
X4272619Y-15127714D01*
X4272619Y-15127714D02*
X4282143Y-15146762D01*
X4282143Y-15146762D02*
X4282143Y-15251524D01*
X4282143Y-15146762D02*
X4291667Y-15127714D01*
X4291667Y-15127714D02*
X4310714Y-15118190D01*
X4310714Y-15118190D02*
X4339286Y-15118190D01*
X4339286Y-15118190D02*
X4358333Y-15127714D01*
X4358333Y-15127714D02*
X4367857Y-15146762D01*
X4367857Y-15146762D02*
X4367857Y-15251524D01*
X4758333Y-15042000D02*
X4586905Y-15299143D01*
X5015476Y-15051524D02*
X5034524Y-15051524D01*
X5034524Y-15051524D02*
X5053572Y-15061048D01*
X5053572Y-15061048D02*
X5063095Y-15070571D01*
X5063095Y-15070571D02*
X5072619Y-15089619D01*
X5072619Y-15089619D02*
X5082143Y-15127714D01*
X5082143Y-15127714D02*
X5082143Y-15175333D01*
X5082143Y-15175333D02*
X5072619Y-15213428D01*
X5072619Y-15213428D02*
X5063095Y-15232476D01*
X5063095Y-15232476D02*
X5053572Y-15242000D01*
X5053572Y-15242000D02*
X5034524Y-15251524D01*
X5034524Y-15251524D02*
X5015476Y-15251524D01*
X5015476Y-15251524D02*
X4996429Y-15242000D01*
X4996429Y-15242000D02*
X4986905Y-15232476D01*
X4986905Y-15232476D02*
X4977381Y-15213428D01*
X4977381Y-15213428D02*
X4967857Y-15175333D01*
X4967857Y-15175333D02*
X4967857Y-15127714D01*
X4967857Y-15127714D02*
X4977381Y-15089619D01*
X4977381Y-15089619D02*
X4986905Y-15070571D01*
X4986905Y-15070571D02*
X4996429Y-15061048D01*
X4996429Y-15061048D02*
X5015476Y-15051524D01*
X5167857Y-15232476D02*
X5177381Y-15242000D01*
X5177381Y-15242000D02*
X5167857Y-15251524D01*
X5167857Y-15251524D02*
X5158334Y-15242000D01*
X5158334Y-15242000D02*
X5167857Y-15232476D01*
X5167857Y-15232476D02*
X5167857Y-15251524D01*
X5367857Y-15251524D02*
X5253572Y-15251524D01*
X5310714Y-15251524D02*
X5310714Y-15051524D01*
X5310714Y-15051524D02*
X5291667Y-15080095D01*
X5291667Y-15080095D02*
X5272619Y-15099143D01*
X5272619Y-15099143D02*
X5253572Y-15108667D01*
X5491667Y-15051524D02*
X5510715Y-15051524D01*
X5510715Y-15051524D02*
X5529762Y-15061048D01*
X5529762Y-15061048D02*
X5539286Y-15070571D01*
X5539286Y-15070571D02*
X5548810Y-15089619D01*
X5548810Y-15089619D02*
X5558334Y-15127714D01*
X5558334Y-15127714D02*
X5558334Y-15175333D01*
X5558334Y-15175333D02*
X5548810Y-15213428D01*
X5548810Y-15213428D02*
X5539286Y-15232476D01*
X5539286Y-15232476D02*
X5529762Y-15242000D01*
X5529762Y-15242000D02*
X5510715Y-15251524D01*
X5510715Y-15251524D02*
X5491667Y-15251524D01*
X5491667Y-15251524D02*
X5472619Y-15242000D01*
X5472619Y-15242000D02*
X5463095Y-15232476D01*
X5463095Y-15232476D02*
X5453572Y-15213428D01*
X5453572Y-15213428D02*
X5444048Y-15175333D01*
X5444048Y-15175333D02*
X5444048Y-15127714D01*
X5444048Y-15127714D02*
X5453572Y-15089619D01*
X5453572Y-15089619D02*
X5463095Y-15070571D01*
X5463095Y-15070571D02*
X5472619Y-15061048D01*
X5472619Y-15061048D02*
X5491667Y-15051524D01*
X5729762Y-15051524D02*
X5691667Y-15051524D01*
X5691667Y-15051524D02*
X5672619Y-15061048D01*
X5672619Y-15061048D02*
X5663095Y-15070571D01*
X5663095Y-15070571D02*
X5644048Y-15099143D01*
X5644048Y-15099143D02*
X5634524Y-15137238D01*
X5634524Y-15137238D02*
X5634524Y-15213428D01*
X5634524Y-15213428D02*
X5644048Y-15232476D01*
X5644048Y-15232476D02*
X5653572Y-15242000D01*
X5653572Y-15242000D02*
X5672619Y-15251524D01*
X5672619Y-15251524D02*
X5710714Y-15251524D01*
X5710714Y-15251524D02*
X5729762Y-15242000D01*
X5729762Y-15242000D02*
X5739286Y-15232476D01*
X5739286Y-15232476D02*
X5748810Y-15213428D01*
X5748810Y-15213428D02*
X5748810Y-15165809D01*
X5748810Y-15165809D02*
X5739286Y-15146762D01*
X5739286Y-15146762D02*
X5729762Y-15137238D01*
X5729762Y-15137238D02*
X5710714Y-15127714D01*
X5710714Y-15127714D02*
X5672619Y-15127714D01*
X5672619Y-15127714D02*
X5653572Y-15137238D01*
X5653572Y-15137238D02*
X5644048Y-15146762D01*
X5644048Y-15146762D02*
X5634524Y-15165809D01*
X5815476Y-15051524D02*
X5939286Y-15051524D01*
X5939286Y-15051524D02*
X5872619Y-15127714D01*
X5872619Y-15127714D02*
X5901191Y-15127714D01*
X5901191Y-15127714D02*
X5920238Y-15137238D01*
X5920238Y-15137238D02*
X5929762Y-15146762D01*
X5929762Y-15146762D02*
X5939286Y-15165809D01*
X5939286Y-15165809D02*
X5939286Y-15213428D01*
X5939286Y-15213428D02*
X5929762Y-15232476D01*
X5929762Y-15232476D02*
X5920238Y-15242000D01*
X5920238Y-15242000D02*
X5901191Y-15251524D01*
X5901191Y-15251524D02*
X5844048Y-15251524D01*
X5844048Y-15251524D02*
X5825000Y-15242000D01*
X5825000Y-15242000D02*
X5815476Y-15232476D01*
X6015476Y-15051524D02*
X6015476Y-15089619D01*
X6091667Y-15051524D02*
X6091667Y-15089619D01*
X6386905Y-15327714D02*
X6377381Y-15318190D01*
X6377381Y-15318190D02*
X6358334Y-15289619D01*
X6358334Y-15289619D02*
X6348810Y-15270571D01*
X6348810Y-15270571D02*
X6339286Y-15242000D01*
X6339286Y-15242000D02*
X6329762Y-15194381D01*
X6329762Y-15194381D02*
X6329762Y-15156286D01*
X6329762Y-15156286D02*
X6339286Y-15108667D01*
X6339286Y-15108667D02*
X6348810Y-15080095D01*
X6348810Y-15080095D02*
X6358334Y-15061048D01*
X6358334Y-15061048D02*
X6377381Y-15032476D01*
X6377381Y-15032476D02*
X6386905Y-15022952D01*
X6567857Y-15251524D02*
X6453572Y-15251524D01*
X6510714Y-15251524D02*
X6510714Y-15051524D01*
X6510714Y-15051524D02*
X6491667Y-15080095D01*
X6491667Y-15080095D02*
X6472619Y-15099143D01*
X6472619Y-15099143D02*
X6453572Y-15108667D01*
X6644048Y-15070571D02*
X6653572Y-15061048D01*
X6653572Y-15061048D02*
X6672619Y-15051524D01*
X6672619Y-15051524D02*
X6720238Y-15051524D01*
X6720238Y-15051524D02*
X6739286Y-15061048D01*
X6739286Y-15061048D02*
X6748810Y-15070571D01*
X6748810Y-15070571D02*
X6758334Y-15089619D01*
X6758334Y-15089619D02*
X6758334Y-15108667D01*
X6758334Y-15108667D02*
X6748810Y-15137238D01*
X6748810Y-15137238D02*
X6634524Y-15251524D01*
X6634524Y-15251524D02*
X6758334Y-15251524D01*
X6996429Y-15251524D02*
X6996429Y-15051524D01*
X7082143Y-15251524D02*
X7082143Y-15146762D01*
X7082143Y-15146762D02*
X7072619Y-15127714D01*
X7072619Y-15127714D02*
X7053572Y-15118190D01*
X7053572Y-15118190D02*
X7025000Y-15118190D01*
X7025000Y-15118190D02*
X7005953Y-15127714D01*
X7005953Y-15127714D02*
X6996429Y-15137238D01*
X7205953Y-15251524D02*
X7186905Y-15242000D01*
X7186905Y-15242000D02*
X7177381Y-15232476D01*
X7177381Y-15232476D02*
X7167857Y-15213428D01*
X7167857Y-15213428D02*
X7167857Y-15156286D01*
X7167857Y-15156286D02*
X7177381Y-15137238D01*
X7177381Y-15137238D02*
X7186905Y-15127714D01*
X7186905Y-15127714D02*
X7205953Y-15118190D01*
X7205953Y-15118190D02*
X7234524Y-15118190D01*
X7234524Y-15118190D02*
X7253572Y-15127714D01*
X7253572Y-15127714D02*
X7263096Y-15137238D01*
X7263096Y-15137238D02*
X7272619Y-15156286D01*
X7272619Y-15156286D02*
X7272619Y-15213428D01*
X7272619Y-15213428D02*
X7263096Y-15232476D01*
X7263096Y-15232476D02*
X7253572Y-15242000D01*
X7253572Y-15242000D02*
X7234524Y-15251524D01*
X7234524Y-15251524D02*
X7205953Y-15251524D01*
X7386905Y-15251524D02*
X7367857Y-15242000D01*
X7367857Y-15242000D02*
X7358334Y-15222952D01*
X7358334Y-15222952D02*
X7358334Y-15051524D01*
X7539286Y-15242000D02*
X7520238Y-15251524D01*
X7520238Y-15251524D02*
X7482143Y-15251524D01*
X7482143Y-15251524D02*
X7463096Y-15242000D01*
X7463096Y-15242000D02*
X7453572Y-15222952D01*
X7453572Y-15222952D02*
X7453572Y-15146762D01*
X7453572Y-15146762D02*
X7463096Y-15127714D01*
X7463096Y-15127714D02*
X7482143Y-15118190D01*
X7482143Y-15118190D02*
X7520238Y-15118190D01*
X7520238Y-15118190D02*
X7539286Y-15127714D01*
X7539286Y-15127714D02*
X7548810Y-15146762D01*
X7548810Y-15146762D02*
X7548810Y-15165809D01*
X7548810Y-15165809D02*
X7453572Y-15184857D01*
X7625000Y-15242000D02*
X7644048Y-15251524D01*
X7644048Y-15251524D02*
X7682143Y-15251524D01*
X7682143Y-15251524D02*
X7701191Y-15242000D01*
X7701191Y-15242000D02*
X7710715Y-15222952D01*
X7710715Y-15222952D02*
X7710715Y-15213428D01*
X7710715Y-15213428D02*
X7701191Y-15194381D01*
X7701191Y-15194381D02*
X7682143Y-15184857D01*
X7682143Y-15184857D02*
X7653572Y-15184857D01*
X7653572Y-15184857D02*
X7634524Y-15175333D01*
X7634524Y-15175333D02*
X7625000Y-15156286D01*
X7625000Y-15156286D02*
X7625000Y-15146762D01*
X7625000Y-15146762D02*
X7634524Y-15127714D01*
X7634524Y-15127714D02*
X7653572Y-15118190D01*
X7653572Y-15118190D02*
X7682143Y-15118190D01*
X7682143Y-15118190D02*
X7701191Y-15127714D01*
X7777381Y-15327714D02*
X7786905Y-15318190D01*
X7786905Y-15318190D02*
X7805953Y-15289619D01*
X7805953Y-15289619D02*
X7815477Y-15270571D01*
X7815477Y-15270571D02*
X7825000Y-15242000D01*
X7825000Y-15242000D02*
X7834524Y-15194381D01*
X7834524Y-15194381D02*
X7834524Y-15156286D01*
X7834524Y-15156286D02*
X7825000Y-15108667D01*
X7825000Y-15108667D02*
X7815477Y-15080095D01*
X7815477Y-15080095D02*
X7805953Y-15061048D01*
X7805953Y-15061048D02*
X7786905Y-15032476D01*
X7786905Y-15032476D02*
X7777381Y-15022952D01*
X8139286Y-15327714D02*
X8129762Y-15318190D01*
X8129762Y-15318190D02*
X8110715Y-15289619D01*
X8110715Y-15289619D02*
X8101191Y-15270571D01*
X8101191Y-15270571D02*
X8091667Y-15242000D01*
X8091667Y-15242000D02*
X8082143Y-15194381D01*
X8082143Y-15194381D02*
X8082143Y-15156286D01*
X8082143Y-15156286D02*
X8091667Y-15108667D01*
X8091667Y-15108667D02*
X8101191Y-15080095D01*
X8101191Y-15080095D02*
X8110715Y-15061048D01*
X8110715Y-15061048D02*
X8129762Y-15032476D01*
X8129762Y-15032476D02*
X8139286Y-15022952D01*
X8215477Y-15118190D02*
X8215477Y-15251524D01*
X8215477Y-15137238D02*
X8225000Y-15127714D01*
X8225000Y-15127714D02*
X8244048Y-15118190D01*
X8244048Y-15118190D02*
X8272619Y-15118190D01*
X8272619Y-15118190D02*
X8291667Y-15127714D01*
X8291667Y-15127714D02*
X8301191Y-15146762D01*
X8301191Y-15146762D02*
X8301191Y-15251524D01*
X8425000Y-15251524D02*
X8405953Y-15242000D01*
X8405953Y-15242000D02*
X8396429Y-15232476D01*
X8396429Y-15232476D02*
X8386905Y-15213428D01*
X8386905Y-15213428D02*
X8386905Y-15156286D01*
X8386905Y-15156286D02*
X8396429Y-15137238D01*
X8396429Y-15137238D02*
X8405953Y-15127714D01*
X8405953Y-15127714D02*
X8425000Y-15118190D01*
X8425000Y-15118190D02*
X8453572Y-15118190D01*
X8453572Y-15118190D02*
X8472620Y-15127714D01*
X8472620Y-15127714D02*
X8482143Y-15137238D01*
X8482143Y-15137238D02*
X8491667Y-15156286D01*
X8491667Y-15156286D02*
X8491667Y-15213428D01*
X8491667Y-15213428D02*
X8482143Y-15232476D01*
X8482143Y-15232476D02*
X8472620Y-15242000D01*
X8472620Y-15242000D02*
X8453572Y-15251524D01*
X8453572Y-15251524D02*
X8425000Y-15251524D01*
X8548810Y-15118190D02*
X8625000Y-15118190D01*
X8577381Y-15051524D02*
X8577381Y-15222952D01*
X8577381Y-15222952D02*
X8586905Y-15242000D01*
X8586905Y-15242000D02*
X8605953Y-15251524D01*
X8605953Y-15251524D02*
X8625000Y-15251524D01*
X8844048Y-15118190D02*
X8844048Y-15318190D01*
X8844048Y-15127714D02*
X8863096Y-15118190D01*
X8863096Y-15118190D02*
X8901191Y-15118190D01*
X8901191Y-15118190D02*
X8920239Y-15127714D01*
X8920239Y-15127714D02*
X8929762Y-15137238D01*
X8929762Y-15137238D02*
X8939286Y-15156286D01*
X8939286Y-15156286D02*
X8939286Y-15213428D01*
X8939286Y-15213428D02*
X8929762Y-15232476D01*
X8929762Y-15232476D02*
X8920239Y-15242000D01*
X8920239Y-15242000D02*
X8901191Y-15251524D01*
X8901191Y-15251524D02*
X8863096Y-15251524D01*
X8863096Y-15251524D02*
X8844048Y-15242000D01*
X9053572Y-15251524D02*
X9034524Y-15242000D01*
X9034524Y-15242000D02*
X9025001Y-15222952D01*
X9025001Y-15222952D02*
X9025001Y-15051524D01*
X9215477Y-15251524D02*
X9215477Y-15146762D01*
X9215477Y-15146762D02*
X9205953Y-15127714D01*
X9205953Y-15127714D02*
X9186905Y-15118190D01*
X9186905Y-15118190D02*
X9148810Y-15118190D01*
X9148810Y-15118190D02*
X9129762Y-15127714D01*
X9215477Y-15242000D02*
X9196429Y-15251524D01*
X9196429Y-15251524D02*
X9148810Y-15251524D01*
X9148810Y-15251524D02*
X9129762Y-15242000D01*
X9129762Y-15242000D02*
X9120239Y-15222952D01*
X9120239Y-15222952D02*
X9120239Y-15203905D01*
X9120239Y-15203905D02*
X9129762Y-15184857D01*
X9129762Y-15184857D02*
X9148810Y-15175333D01*
X9148810Y-15175333D02*
X9196429Y-15175333D01*
X9196429Y-15175333D02*
X9215477Y-15165809D01*
X9282143Y-15118190D02*
X9358334Y-15118190D01*
X9310715Y-15051524D02*
X9310715Y-15222952D01*
X9310715Y-15222952D02*
X9320239Y-15242000D01*
X9320239Y-15242000D02*
X9339286Y-15251524D01*
X9339286Y-15251524D02*
X9358334Y-15251524D01*
X9501191Y-15242000D02*
X9482143Y-15251524D01*
X9482143Y-15251524D02*
X9444048Y-15251524D01*
X9444048Y-15251524D02*
X9425001Y-15242000D01*
X9425001Y-15242000D02*
X9415477Y-15222952D01*
X9415477Y-15222952D02*
X9415477Y-15146762D01*
X9415477Y-15146762D02*
X9425001Y-15127714D01*
X9425001Y-15127714D02*
X9444048Y-15118190D01*
X9444048Y-15118190D02*
X9482143Y-15118190D01*
X9482143Y-15118190D02*
X9501191Y-15127714D01*
X9501191Y-15127714D02*
X9510715Y-15146762D01*
X9510715Y-15146762D02*
X9510715Y-15165809D01*
X9510715Y-15165809D02*
X9415477Y-15184857D01*
X9682143Y-15251524D02*
X9682143Y-15051524D01*
X9682143Y-15242000D02*
X9663096Y-15251524D01*
X9663096Y-15251524D02*
X9625001Y-15251524D01*
X9625001Y-15251524D02*
X9605953Y-15242000D01*
X9605953Y-15242000D02*
X9596429Y-15232476D01*
X9596429Y-15232476D02*
X9586905Y-15213428D01*
X9586905Y-15213428D02*
X9586905Y-15156286D01*
X9586905Y-15156286D02*
X9596429Y-15137238D01*
X9596429Y-15137238D02*
X9605953Y-15127714D01*
X9605953Y-15127714D02*
X9625001Y-15118190D01*
X9625001Y-15118190D02*
X9663096Y-15118190D01*
X9663096Y-15118190D02*
X9682143Y-15127714D01*
X9758334Y-15327714D02*
X9767858Y-15318190D01*
X9767858Y-15318190D02*
X9786905Y-15289619D01*
X9786905Y-15289619D02*
X9796429Y-15270571D01*
X9796429Y-15270571D02*
X9805953Y-15242000D01*
X9805953Y-15242000D02*
X9815477Y-15194381D01*
X9815477Y-15194381D02*
X9815477Y-15156286D01*
X9815477Y-15156286D02*
X9805953Y-15108667D01*
X9805953Y-15108667D02*
X9796429Y-15080095D01*
X9796429Y-15080095D02*
X9786905Y-15061048D01*
X9786905Y-15061048D02*
X9767858Y-15032476D01*
X9767858Y-15032476D02*
X9758334Y-15022952D01*
M02*
