M48
; DRILL file {KiCad 7.0.1} date Sat Nov 25 15:53:29 2023
; FORMAT={-:-/ absolute / metric / decimal}
; #@! TF.CreationDate,2023-11-25T15:53:29+01:00
; #@! TF.GenerationSoftware,Kicad,Pcbnew,7.0.1
; #@! TF.FileFunction,Plated,1,2,PTH
FMAT,2
METRIC
; #@! TA.AperFunction,Plated,PTH,ComponentDrill
T1C0.600
; #@! TA.AperFunction,Plated,PTH,ComponentDrill
T2C0.650
; #@! TA.AperFunction,Plated,PTH,ViaDrill
T3C0.800
; #@! TA.AperFunction,Plated,PTH,ComponentDrill
T4C0.800
; #@! TA.AperFunction,Plated,PTH,ComponentDrill
T5C0.900
; #@! TA.AperFunction,Plated,PTH,ComponentDrill
T6C1.000
; #@! TA.AperFunction,Plated,PTH,ComponentDrill
T7C1.100
; #@! TA.AperFunction,Plated,PTH,ComponentDrill
T8C1.300
; #@! TA.AperFunction,Plated,PTH,ComponentDrill
T9C1.500
%
G90
G05
T1
X38.1Y-123.158
X38.1Y-124.628
X38.1Y-126.128
X38.1Y-127.628
X38.1Y-129.128
X38.1Y-130.628
X38.1Y-132.128
X38.1Y-133.628
X38.1Y-135.128
X56.3Y-123.128
X56.3Y-124.628
X56.3Y-126.128
X56.3Y-127.628
X56.3Y-129.128
X56.3Y-130.628
X56.3Y-132.138
X56.3Y-133.628
X56.3Y-135.128
X76.53Y-123.158
X76.53Y-124.628
X76.53Y-126.128
X76.53Y-127.628
X76.53Y-129.128
X76.53Y-130.628
X76.53Y-132.128
X76.53Y-133.628
X76.53Y-135.128
X94.73Y-123.128
X94.73Y-124.628
X94.73Y-126.128
X94.73Y-127.628
X94.73Y-129.128
X94.73Y-130.628
X94.73Y-132.138
X94.73Y-133.628
X94.73Y-135.128
T2
X35.103Y-123.708
X35.103Y-124.978
X35.103Y-126.248
X35.103Y-127.518
X35.103Y-128.788
X35.103Y-130.058
X35.103Y-131.328
X35.103Y-132.598
X35.103Y-133.868
X59.233Y-123.698
X59.233Y-124.968
X59.233Y-126.238
X59.233Y-127.508
X59.233Y-128.778
X59.233Y-130.048
X59.233Y-131.318
X59.233Y-132.588
X59.233Y-133.858
X73.533Y-123.708
X73.533Y-124.978
X73.533Y-126.248
X73.533Y-127.518
X73.533Y-128.788
X73.533Y-130.058
X73.533Y-131.328
X73.533Y-132.598
X73.533Y-133.868
X97.663Y-123.698
X97.663Y-124.968
X97.663Y-126.238
X97.663Y-127.508
X97.663Y-128.778
X97.663Y-130.048
X97.663Y-131.318
X97.663Y-132.588
X97.663Y-133.858
T3
X31.282Y-112.452
X32.878Y-112.551
X33.118Y-122.326
X34.016Y-60.536
X35.018Y-63.872
X35.153Y-61.661
X36.347Y-94.971
X36.748Y-65.126
X36.752Y-61.705
X36.754Y-120.499
X37.077Y-76.701
X38.167Y-71.882
X40.183Y-58.623
X42.901Y-58.547
X42.926Y-89.408
X44.475Y-58.852
X47.244Y-77.216
X47.363Y-120.515
X48.04Y-118.604
X48.344Y-112.911
X49.047Y-79.197
X49.276Y-75.946
X50.394Y-99.602
X50.808Y-59.154
X51.562Y-80.518
X52.55Y-82.804
X52.807Y-59.207
X53.594Y-95.707
X54.0Y-69.69
X55.23Y-71.486
X55.814Y-105.308
X55.959Y-59.614
X55.959Y-61.214
X56.17Y-78.486
X56.812Y-91.302
X57.658Y-119.913
X58.758Y-59.614
X58.758Y-61.214
X58.758Y-64.16
X60.06Y-91.302
X60.816Y-97.943
X61.441Y-99.416
X62.687Y-108.661
X63.5Y-69.596
X64.74Y-99.263
X64.745Y-100.863
X64.821Y-67.437
X64.821Y-128.778
X69.712Y-112.452
X71.308Y-112.551
X71.548Y-122.326
X72.446Y-60.536
X73.448Y-63.872
X73.583Y-61.661
X74.777Y-94.971
X75.178Y-65.126
X75.182Y-61.705
X75.184Y-120.499
X75.507Y-76.701
X76.597Y-71.882
X78.613Y-58.623
X81.331Y-58.547
X81.356Y-89.408
X82.905Y-58.852
X85.674Y-77.216
X85.793Y-120.515
X86.47Y-118.604
X86.774Y-112.911
X87.477Y-79.197
X87.706Y-75.946
X88.824Y-99.602
X89.238Y-59.154
X89.992Y-80.518
X90.98Y-82.804
X91.237Y-59.207
X92.024Y-95.707
X92.43Y-69.69
X93.66Y-71.486
X94.244Y-105.308
X94.388Y-59.614
X94.388Y-61.214
X94.6Y-78.486
X95.242Y-91.302
X96.088Y-119.913
X97.188Y-59.614
X97.188Y-61.214
X97.188Y-64.16
X98.49Y-91.302
X99.246Y-97.943
X99.871Y-99.416
X101.117Y-108.661
X101.93Y-69.596
X103.17Y-99.263
X103.175Y-100.863
X103.251Y-67.437
X103.251Y-128.778
T4
X30.07Y-43.86
X30.07Y-54.02
X30.582Y-97.18
X30.582Y-107.34
X33.071Y-43.95
X33.071Y-48.95
X33.63Y-97.18
X33.63Y-107.34
X36.678Y-97.18
X36.678Y-107.34
X38.1Y-73.914
X38.278Y-111.455
X38.278Y-119.075
X39.726Y-97.18
X39.726Y-107.34
X41.734Y-91.74
X41.734Y-93.74
X42.774Y-97.18
X42.774Y-107.34
X44.274Y-91.4
X44.274Y-93.9
X45.72Y-73.914
X45.822Y-97.18
X45.822Y-107.34
X47.12Y-114.09
X47.128Y-117.152
X48.768Y-73.914
X48.87Y-97.18
X48.87Y-107.34
X49.719Y-120.277
X50.284Y-91.48
X50.284Y-93.98
X51.918Y-97.18
X51.918Y-107.34
X52.219Y-120.277
X52.832Y-91.54
X52.832Y-93.54
X53.36Y-55.88
X54.966Y-97.18
X54.966Y-107.34
X55.86Y-55.88
X56.388Y-73.914
X57.28Y-114.09
X57.288Y-117.152
X58.014Y-97.18
X58.014Y-107.34
X59.69Y-110.65
X62.19Y-110.65
X62.636Y-123.977
X64.636Y-123.977
X68.5Y-43.86
X68.5Y-54.02
X69.012Y-97.18
X69.012Y-107.34
X71.501Y-43.95
X71.501Y-48.95
X72.06Y-97.18
X72.06Y-107.34
X75.108Y-97.18
X75.108Y-107.34
X76.53Y-73.914
X76.708Y-111.455
X76.708Y-119.075
X78.156Y-97.18
X78.156Y-107.34
X80.164Y-91.74
X80.164Y-93.74
X81.204Y-97.18
X81.204Y-107.34
X82.704Y-91.4
X82.704Y-93.9
X84.15Y-73.914
X84.252Y-97.18
X84.252Y-107.34
X85.55Y-114.09
X85.558Y-117.152
X87.198Y-73.914
X87.3Y-97.18
X87.3Y-107.34
X88.149Y-120.277
X88.714Y-91.48
X88.714Y-93.98
X90.348Y-97.18
X90.348Y-107.34
X90.649Y-120.277
X91.262Y-91.54
X91.262Y-93.54
X91.79Y-55.88
X93.396Y-97.18
X93.396Y-107.34
X94.29Y-55.88
X94.818Y-73.914
X95.71Y-114.09
X95.718Y-117.152
X96.444Y-97.18
X96.444Y-107.34
X98.12Y-110.65
X100.62Y-110.65
X101.066Y-123.977
X103.066Y-123.977
T5
X40.792Y-77.724
X42.57Y-77.71
X44.298Y-77.71
X51.054Y-77.712
X53.594Y-77.712
X79.222Y-77.724
X81.0Y-77.71
X82.728Y-77.71
X89.484Y-77.712
X92.024Y-77.712
T6
X30.124Y-110.414
X32.664Y-110.414
X35.204Y-110.414
X40.248Y-62.79
X40.248Y-67.79
X43.307Y-50.317
X43.307Y-55.437
X45.847Y-50.317
X45.847Y-55.437
X48.387Y-50.317
X48.387Y-55.437
X50.927Y-50.317
X50.927Y-55.397
X54.748Y-62.79
X54.748Y-65.29
X54.748Y-67.79
X59.182Y-72.912
X59.182Y-75.946
X60.54Y-59.48
X60.54Y-62.02
X60.54Y-64.56
X60.54Y-67.1
X60.54Y-69.64
X64.237Y-44.755
X64.237Y-47.295
X64.237Y-49.835
X64.237Y-52.375
X68.554Y-110.414
X71.094Y-110.414
X73.634Y-110.414
X78.678Y-62.79
X78.678Y-67.79
X81.737Y-50.317
X81.737Y-55.437
X84.277Y-50.317
X84.277Y-55.437
X86.817Y-50.317
X86.817Y-55.437
X89.357Y-50.317
X89.357Y-55.397
X93.178Y-62.79
X93.178Y-65.29
X93.178Y-67.79
X97.612Y-72.912
X97.612Y-75.946
X98.97Y-59.48
X98.97Y-62.02
X98.97Y-64.56
X98.97Y-67.1
X98.97Y-69.64
X102.667Y-44.755
X102.667Y-47.295
X102.667Y-49.835
X102.667Y-52.375
T7
X30.32Y-114.09
X30.32Y-120.59
X30.632Y-125.019
X30.632Y-135.179
X34.82Y-114.09
X34.82Y-120.59
X35.85Y-81.5
X35.85Y-88.0
X40.35Y-81.5
X40.35Y-88.0
X44.044Y-110.388
X44.044Y-120.548
X45.121Y-81.586
X45.121Y-88.086
X49.621Y-81.586
X49.621Y-88.086
X54.392Y-81.586
X54.392Y-88.086
X58.892Y-81.586
X58.892Y-88.086
X59.94Y-113.749
X59.94Y-120.249
X64.44Y-113.749
X64.44Y-120.249
X68.75Y-114.09
X68.75Y-120.59
X69.062Y-125.019
X69.062Y-135.179
X73.25Y-114.09
X73.25Y-120.59
X74.28Y-81.5
X74.28Y-88.0
X78.78Y-81.5
X78.78Y-88.0
X82.474Y-110.388
X82.474Y-120.548
X83.551Y-81.586
X83.551Y-88.086
X88.051Y-81.586
X88.051Y-88.086
X92.822Y-81.586
X92.822Y-88.086
X97.322Y-81.586
X97.322Y-88.086
X98.37Y-113.749
X98.37Y-120.249
X102.87Y-113.749
X102.87Y-120.249
T8
X57.226Y-44.704
X57.429Y-50.648
X95.656Y-44.704
X95.859Y-50.648
T9
X47.898Y-59.69G85X46.598Y-59.69
G05
X47.898Y-70.89G85X46.598Y-70.89
G05
X86.328Y-59.69G85X85.028Y-59.69
G05
X86.328Y-70.89G85X85.028Y-70.89
G05
T0
M30
