G04 #@! TF.GenerationSoftware,KiCad,Pcbnew,7.0.1*
G04 #@! TF.CreationDate,2023-11-25T15:53:11+01:00*
G04 #@! TF.ProjectId,Spotify_controller_nutzen,53706f74-6966-4795-9f63-6f6e74726f6c,rev?*
G04 #@! TF.SameCoordinates,Original*
G04 #@! TF.FileFunction,Profile,NP*
%FSLAX46Y46*%
G04 Gerber Fmt 4.6, Leading zero omitted, Abs format (unit mm)*
G04 Created by KiCad (PCBNEW 7.0.1) date 2023-11-25 15:53:11*
%MOMM*%
%LPD*%
G01*
G04 APERTURE LIST*
G04 #@! TA.AperFunction,Profile*
%ADD10C,0.100000*%
G04 #@! TD*
G04 #@! TA.AperFunction,Profile*
%ADD11C,0.050000*%
G04 #@! TD*
G04 APERTURE END LIST*
D10*
X104730000Y-142500000D02*
X96630000Y-142500000D01*
X66790000Y-142500000D02*
X74630000Y-142500000D01*
X104670000Y-42500000D02*
X66730000Y-42500000D01*
X74630000Y-142500000D02*
X74630000Y-138200000D01*
X104730000Y-142500000D02*
X104670000Y-42500000D01*
X94630000Y-136200000D02*
X76630000Y-136200000D01*
X96630000Y-142500000D02*
X96630000Y-138200000D01*
X96630000Y-138200000D02*
G75*
G03*
X94630000Y-136200000I-1999999J1D01*
G01*
X76630000Y-136200000D02*
G75*
G03*
X74630000Y-138200000I-1J-1999999D01*
G01*
X66730000Y-42500000D02*
X28300000Y-42500000D01*
X28300000Y-42500000D02*
X28360000Y-142500000D01*
X66790000Y-142500000D02*
X58200000Y-142500000D01*
X56200000Y-136200000D02*
X38200000Y-136200000D01*
X28360000Y-142500000D02*
X36200000Y-142500000D01*
X36200000Y-142500000D02*
X36200000Y-138200000D01*
X58200000Y-142500000D02*
X58200000Y-138200000D01*
X58200000Y-138200000D02*
G75*
G03*
X56200000Y-136200000I-2000000J0D01*
G01*
X38200000Y-136200000D02*
G75*
G03*
X36200000Y-138200000I0J-2000000D01*
G01*
D11*
X101067337Y-55297400D02*
G75*
G03*
X101067337Y-55297400I-1560337J0D01*
G01*
X98085562Y-53759400D02*
G75*
G03*
X98085562Y-53759400I-1260962J0D01*
G01*
X92993427Y-45597400D02*
G75*
G03*
X92993427Y-45597400I-1528227J0D01*
G01*
X89857000Y-54127400D02*
G75*
G03*
X89857000Y-54127400I-500000J0D01*
G01*
X89857000Y-51587400D02*
G75*
G03*
X89857000Y-51587400I-500000J0D01*
G01*
X87317000Y-54127400D02*
G75*
G03*
X87317000Y-54127400I-500000J0D01*
G01*
X87317000Y-51587400D02*
G75*
G03*
X87317000Y-51587400I-500000J0D01*
G01*
X84777000Y-54127400D02*
G75*
G03*
X84777000Y-54127400I-500000J0D01*
G01*
X84777000Y-51587400D02*
G75*
G03*
X84777000Y-51587400I-500000J0D01*
G01*
X82237000Y-54127400D02*
G75*
G03*
X82237000Y-54127400I-500000J0D01*
G01*
X82237000Y-51587400D02*
G75*
G03*
X82237000Y-51587400I-500000J0D01*
G01*
X81102000Y-45597400D02*
G75*
G03*
X81102000Y-45597400I-1528227J0D01*
G01*
X75344388Y-53708493D02*
G75*
G03*
X75344388Y-53708493I-1260612J0D01*
G01*
X72969367Y-55246493D02*
G75*
G03*
X72969367Y-55246493I-1503191J0D01*
G01*
X80537600Y-66469200D02*
X80537600Y-64081600D01*
X79521600Y-64081600D02*
X79521600Y-66469200D01*
X79521600Y-66469200D02*
G75*
G03*
X80537600Y-66469200I508000J0D01*
G01*
X80537600Y-64081600D02*
G75*
G03*
X79521600Y-64081600I-508000J0D01*
G01*
X89670000Y-65290000D02*
G75*
G03*
X89670000Y-65290000I-3900000J0D01*
G01*
X42107600Y-66469200D02*
X42107600Y-64081600D01*
X41091600Y-64081600D02*
X41091600Y-66469200D01*
X41091600Y-66469200D02*
G75*
G03*
X42107600Y-66469200I508000J0D01*
G01*
X42107600Y-64081600D02*
G75*
G03*
X41091600Y-64081600I-508000J0D01*
G01*
X51240000Y-65290000D02*
G75*
G03*
X51240000Y-65290000I-3900000J0D01*
G01*
X62637337Y-55297400D02*
G75*
G03*
X62637337Y-55297400I-1560337J0D01*
G01*
X59655562Y-53759400D02*
G75*
G03*
X59655562Y-53759400I-1260962J0D01*
G01*
X54563427Y-45597400D02*
G75*
G03*
X54563427Y-45597400I-1528227J0D01*
G01*
X51427000Y-54127400D02*
G75*
G03*
X51427000Y-54127400I-500000J0D01*
G01*
X51427000Y-51587400D02*
G75*
G03*
X51427000Y-51587400I-500000J0D01*
G01*
X48887000Y-54127400D02*
G75*
G03*
X48887000Y-54127400I-500000J0D01*
G01*
X48887000Y-51587400D02*
G75*
G03*
X48887000Y-51587400I-500000J0D01*
G01*
X46347000Y-54127400D02*
G75*
G03*
X46347000Y-54127400I-500000J0D01*
G01*
X46347000Y-51587400D02*
G75*
G03*
X46347000Y-51587400I-500000J0D01*
G01*
X43807000Y-54127400D02*
G75*
G03*
X43807000Y-54127400I-500000J0D01*
G01*
X43807000Y-51587400D02*
G75*
G03*
X43807000Y-51587400I-500000J0D01*
G01*
X42672000Y-45597400D02*
G75*
G03*
X42672000Y-45597400I-1528227J0D01*
G01*
X36914388Y-53708493D02*
G75*
G03*
X36914388Y-53708493I-1260612J0D01*
G01*
X34539367Y-55246493D02*
G75*
G03*
X34539367Y-55246493I-1503191J0D01*
G01*
M02*
