G04 #@! TF.GenerationSoftware,KiCad,Pcbnew,7.0.1*
G04 #@! TF.CreationDate,2023-11-25T15:53:11+01:00*
G04 #@! TF.ProjectId,Spotify_controller_nutzen,53706f74-6966-4795-9f63-6f6e74726f6c,rev?*
G04 #@! TF.SameCoordinates,Original*
G04 #@! TF.FileFunction,Soldermask,Top*
G04 #@! TF.FilePolarity,Negative*
%FSLAX46Y46*%
G04 Gerber Fmt 4.6, Leading zero omitted, Abs format (unit mm)*
G04 Created by KiCad (PCBNEW 7.0.1) date 2023-11-25 15:53:11*
%MOMM*%
%LPD*%
G01*
G04 APERTURE LIST*
G04 Aperture macros list*
%AMRoundRect*
0 Rectangle with rounded corners*
0 $1 Rounding radius*
0 $2 $3 $4 $5 $6 $7 $8 $9 X,Y pos of 4 corners*
0 Add a 4 corners polygon primitive as box body*
4,1,4,$2,$3,$4,$5,$6,$7,$8,$9,$2,$3,0*
0 Add four circle primitives for the rounded corners*
1,1,$1+$1,$2,$3*
1,1,$1+$1,$4,$5*
1,1,$1+$1,$6,$7*
1,1,$1+$1,$8,$9*
0 Add four rect primitives between the rounded corners*
20,1,$1+$1,$2,$3,$4,$5,0*
20,1,$1+$1,$4,$5,$6,$7,0*
20,1,$1+$1,$6,$7,$8,$9,0*
20,1,$1+$1,$8,$9,$2,$3,0*%
G04 Aperture macros list end*
%ADD10R,2.200000X2.200000*%
%ADD11O,2.200000X2.200000*%
%ADD12C,2.700000*%
%ADD13C,1.600000*%
%ADD14O,1.600000X1.600000*%
%ADD15RoundRect,0.150000X-0.150000X0.512500X-0.150000X-0.512500X0.150000X-0.512500X0.150000X0.512500X0*%
%ADD16R,1.700000X1.700000*%
%ADD17O,1.700000X1.700000*%
%ADD18R,1.600000X1.600000*%
%ADD19R,1.700000X2.550000*%
%ADD20O,1.700000X2.550000*%
%ADD21C,2.000000*%
%ADD22R,1.000000X1.000000*%
%ADD23O,1.000000X1.000000*%
%ADD24C,3.000000*%
%ADD25C,0.100000*%
%ADD26R,2.000000X0.400000*%
%ADD27R,1.900000X2.000000*%
%ADD28C,2.600000*%
%ADD29R,1.500000X1.500000*%
%ADD30C,1.500000*%
%ADD31R,1.800000X1.800000*%
%ADD32C,1.800000*%
%ADD33R,2.000000X2.000000*%
%ADD34R,3.200000X2.000000*%
%ADD35O,2.500000X1.200000*%
%ADD36R,0.700000X0.700000*%
G04 APERTURE END LIST*
D10*
X82473600Y-110388400D03*
D11*
X82473600Y-120548400D03*
D12*
X101880000Y-74360000D03*
D13*
X95710000Y-114090000D03*
D14*
X85550000Y-114090000D03*
D15*
X86625601Y-91701599D03*
X85675601Y-91701599D03*
X84725601Y-91701599D03*
X84725601Y-93976599D03*
X86625601Y-93976599D03*
D16*
X68554400Y-110413800D03*
D17*
X71094400Y-110413800D03*
X73634400Y-110413800D03*
D12*
X69680000Y-83180000D03*
X69680000Y-74360000D03*
D18*
X87198000Y-73914000D03*
D14*
X94818000Y-73914000D03*
D13*
X88714001Y-93980000D03*
X88714001Y-91480000D03*
X68500000Y-54019999D03*
D14*
X68500000Y-43859999D03*
D19*
X89357000Y-49717400D03*
D20*
X86817000Y-49717400D03*
X84277000Y-49717400D03*
X81737000Y-49717400D03*
X89357000Y-55997400D03*
X86817000Y-56037400D03*
X84277000Y-56037400D03*
X81737000Y-56037400D03*
D13*
X81203600Y-107340400D03*
D14*
X81203600Y-97180400D03*
D21*
X88051000Y-81586000D03*
X88051000Y-88086000D03*
X83551000Y-81586000D03*
X83551000Y-88086000D03*
X102870000Y-113749100D03*
X102870000Y-120249100D03*
X98370000Y-113749100D03*
X98370000Y-120249100D03*
D12*
X69680000Y-139600000D03*
D13*
X85557801Y-117152400D03*
D14*
X95717801Y-117152400D03*
D13*
X98120000Y-110650000D03*
X100620000Y-110650000D03*
D22*
X97662800Y-133858000D03*
D23*
X97662800Y-132588000D03*
X97662800Y-131318000D03*
X97662800Y-130048000D03*
X97662800Y-128778000D03*
X97662800Y-127508000D03*
X97662800Y-126238000D03*
X97662800Y-124968000D03*
X97662800Y-123698000D03*
D24*
X79578000Y-45593000D03*
D13*
X88148600Y-120276600D03*
X90648600Y-120276600D03*
X82704001Y-91399999D03*
X82704001Y-93899999D03*
D18*
X84150000Y-73914000D03*
D14*
X76530000Y-73914000D03*
D13*
X72059600Y-97180400D03*
D14*
X72059600Y-107340400D03*
D25*
X70552000Y-61422500D03*
X70552000Y-65522500D03*
D26*
X71222000Y-62172500D03*
X71222000Y-62822500D03*
X71222000Y-63472500D03*
X71222000Y-64122500D03*
X71222000Y-64772500D03*
D27*
X68402000Y-59735000D03*
X68402000Y-67210000D03*
D13*
X84251600Y-107340400D03*
D14*
X84251600Y-97180400D03*
D28*
X95656200Y-44704000D03*
D13*
X69011600Y-97180400D03*
D14*
X69011600Y-107340400D03*
D16*
X98970000Y-69640000D03*
D17*
X98970000Y-67100000D03*
X98970000Y-64560000D03*
X98970000Y-62020000D03*
X98970000Y-59480000D03*
D21*
X97612000Y-75946000D03*
D13*
X87299600Y-107340400D03*
D14*
X87299600Y-97180400D03*
D13*
X101066400Y-123977400D03*
X103066400Y-123977400D03*
D12*
X101880000Y-83180000D03*
D28*
X95859400Y-50647600D03*
D10*
X69062400Y-125018800D03*
D11*
X69062400Y-135178800D03*
D16*
X102666600Y-44754800D03*
D17*
X102666600Y-47294800D03*
X102666600Y-49834800D03*
X102666600Y-52374800D03*
D29*
X79222400Y-77724000D03*
D30*
X81000400Y-77710400D03*
X82727600Y-77710400D03*
D12*
X101880000Y-139600000D03*
D21*
X97612000Y-72912000D03*
X74280000Y-88000000D03*
X74280000Y-81500000D03*
X78780000Y-88000000D03*
X78780000Y-81500000D03*
D13*
X75107600Y-97180400D03*
D14*
X75107600Y-107340400D03*
D18*
X76707800Y-119075200D03*
D14*
X76707800Y-111455200D03*
D13*
X90347600Y-107340400D03*
D14*
X90347600Y-97180400D03*
D13*
X96443600Y-107340400D03*
D14*
X96443600Y-97180400D03*
D31*
X89484000Y-77712000D03*
D32*
X92024000Y-77712000D03*
D13*
X93395600Y-107340400D03*
D14*
X93395600Y-97180400D03*
D13*
X80164001Y-91739998D03*
X80164001Y-93739998D03*
X71500800Y-43950000D03*
X71500800Y-48950000D03*
D21*
X68750000Y-120590000D03*
X68750000Y-114090000D03*
X73250000Y-120590000D03*
X73250000Y-114090000D03*
D24*
X69680000Y-139600000D03*
D21*
X97322000Y-81586000D03*
X97322000Y-88086000D03*
X92822000Y-81586000D03*
X92822000Y-88086000D03*
D13*
X91262000Y-93539999D03*
X91262000Y-91539999D03*
D24*
X101880000Y-139600000D03*
D22*
X73532800Y-123708000D03*
D23*
X73532800Y-124978000D03*
X73532800Y-126248000D03*
X73532800Y-127518000D03*
X73532800Y-128788000D03*
X73532800Y-130058000D03*
X73532800Y-131328000D03*
X73532800Y-132598000D03*
X73532800Y-133868000D03*
D13*
X91790000Y-55880000D03*
X94290000Y-55880000D03*
X78155600Y-97180400D03*
D14*
X78155600Y-107340400D03*
D33*
X93178000Y-67790000D03*
D21*
X93178000Y-62790000D03*
X93178000Y-65290000D03*
D34*
X85678000Y-70890000D03*
X85678000Y-59690000D03*
D21*
X78678000Y-62790000D03*
X78678000Y-67790000D03*
D35*
X94730000Y-135128000D03*
X94730000Y-133628000D03*
X94730000Y-132138000D03*
X94730000Y-130628000D03*
X94730000Y-129128000D03*
X94730000Y-127628000D03*
X94730000Y-126128000D03*
X94730000Y-124628000D03*
X94730000Y-123128000D03*
X76530000Y-123158000D03*
X76530000Y-124628000D03*
X76530000Y-126128000D03*
X76530000Y-127628000D03*
X76530000Y-129128000D03*
X76530000Y-130628000D03*
X76530000Y-132128000D03*
X76530000Y-133628000D03*
X76530000Y-135128000D03*
D36*
X85770000Y-130028000D03*
X85770000Y-128928000D03*
X85770000Y-127828000D03*
X84720000Y-130028000D03*
X84720000Y-128928000D03*
X84720000Y-127828000D03*
X83570000Y-130028000D03*
X83570000Y-128928000D03*
X83570000Y-127828000D03*
D13*
X53360000Y-55880000D03*
X55860000Y-55880000D03*
X58013600Y-107340400D03*
D14*
X58013600Y-97180400D03*
D13*
X51917600Y-107340400D03*
D14*
X51917600Y-97180400D03*
D22*
X35102800Y-123708000D03*
D23*
X35102800Y-124978000D03*
X35102800Y-126248000D03*
X35102800Y-127518000D03*
X35102800Y-128788000D03*
X35102800Y-130058000D03*
X35102800Y-131328000D03*
X35102800Y-132598000D03*
X35102800Y-133868000D03*
D24*
X63450000Y-139600000D03*
D13*
X52832000Y-93539999D03*
X52832000Y-91539999D03*
D21*
X58892000Y-81586000D03*
X58892000Y-88086000D03*
X54392000Y-81586000D03*
X54392000Y-88086000D03*
D24*
X31250000Y-139600000D03*
D21*
X30320000Y-120590000D03*
X30320000Y-114090000D03*
X34820000Y-120590000D03*
X34820000Y-114090000D03*
D13*
X33070800Y-43950000D03*
X33070800Y-48950000D03*
X41734001Y-91739998D03*
X41734001Y-93739998D03*
X54965600Y-107340400D03*
D14*
X54965600Y-97180400D03*
D31*
X51054000Y-77712000D03*
D32*
X53594000Y-77712000D03*
D35*
X56300000Y-135128000D03*
X56300000Y-133628000D03*
X56300000Y-132138000D03*
X56300000Y-130628000D03*
X56300000Y-129128000D03*
X56300000Y-127628000D03*
X56300000Y-126128000D03*
X56300000Y-124628000D03*
X56300000Y-123128000D03*
X38100000Y-123158000D03*
X38100000Y-124628000D03*
X38100000Y-126128000D03*
X38100000Y-127628000D03*
X38100000Y-129128000D03*
X38100000Y-130628000D03*
X38100000Y-132128000D03*
X38100000Y-133628000D03*
X38100000Y-135128000D03*
D36*
X47340000Y-130028000D03*
X47340000Y-128928000D03*
X47340000Y-127828000D03*
X46290000Y-130028000D03*
X46290000Y-128928000D03*
X46290000Y-127828000D03*
X45140000Y-130028000D03*
X45140000Y-128928000D03*
X45140000Y-127828000D03*
D33*
X54748000Y-67790000D03*
D21*
X54748000Y-62790000D03*
X54748000Y-65290000D03*
D34*
X47248000Y-70890000D03*
X47248000Y-59690000D03*
D21*
X40248000Y-62790000D03*
X40248000Y-67790000D03*
D13*
X39725600Y-97180400D03*
D14*
X39725600Y-107340400D03*
D21*
X59182000Y-72912000D03*
D16*
X64236600Y-44754800D03*
D17*
X64236600Y-47294800D03*
X64236600Y-49834800D03*
X64236600Y-52374800D03*
D10*
X30632400Y-125018800D03*
D11*
X30632400Y-135178800D03*
D12*
X63450000Y-139600000D03*
D13*
X36677600Y-97180400D03*
D14*
X36677600Y-107340400D03*
D28*
X57429400Y-50647600D03*
D18*
X38277800Y-119075200D03*
D14*
X38277800Y-111455200D03*
D21*
X35850000Y-88000000D03*
X35850000Y-81500000D03*
X40350000Y-88000000D03*
X40350000Y-81500000D03*
D29*
X40792400Y-77724000D03*
D30*
X42570400Y-77710400D03*
X44297600Y-77710400D03*
D13*
X62636400Y-123977400D03*
X64636400Y-123977400D03*
D21*
X49621000Y-81586000D03*
X49621000Y-88086000D03*
X45121000Y-81586000D03*
X45121000Y-88086000D03*
D22*
X59232800Y-133858000D03*
D23*
X59232800Y-132588000D03*
X59232800Y-131318000D03*
X59232800Y-130048000D03*
X59232800Y-128778000D03*
X59232800Y-127508000D03*
X59232800Y-126238000D03*
X59232800Y-124968000D03*
X59232800Y-123698000D03*
D13*
X30581600Y-97180400D03*
D14*
X30581600Y-107340400D03*
D13*
X42773600Y-107340400D03*
D14*
X42773600Y-97180400D03*
D13*
X59690000Y-110650000D03*
X62190000Y-110650000D03*
D28*
X57226200Y-44704000D03*
D13*
X45821600Y-107340400D03*
D14*
X45821600Y-97180400D03*
D25*
X32122000Y-61422500D03*
X32122000Y-65522500D03*
D26*
X32792000Y-62172500D03*
X32792000Y-62822500D03*
X32792000Y-63472500D03*
X32792000Y-64122500D03*
X32792000Y-64772500D03*
D27*
X29972000Y-59735000D03*
X29972000Y-67210000D03*
D13*
X48869600Y-107340400D03*
D14*
X48869600Y-97180400D03*
D21*
X64440000Y-113749100D03*
X64440000Y-120249100D03*
X59940000Y-113749100D03*
X59940000Y-120249100D03*
D12*
X63450000Y-83180000D03*
D21*
X59182000Y-75946000D03*
D13*
X49718600Y-120276600D03*
X52218600Y-120276600D03*
X47127801Y-117152400D03*
D14*
X57287801Y-117152400D03*
D24*
X41148000Y-45593000D03*
D18*
X45720000Y-73914000D03*
D14*
X38100000Y-73914000D03*
D13*
X33629600Y-97180400D03*
D14*
X33629600Y-107340400D03*
D12*
X31250000Y-139600000D03*
D16*
X60540000Y-69640000D03*
D17*
X60540000Y-67100000D03*
X60540000Y-64560000D03*
X60540000Y-62020000D03*
X60540000Y-59480000D03*
D13*
X44274001Y-91399999D03*
X44274001Y-93899999D03*
D16*
X30124400Y-110413800D03*
D17*
X32664400Y-110413800D03*
X35204400Y-110413800D03*
D13*
X50284001Y-93980000D03*
X50284001Y-91480000D03*
D19*
X50927000Y-49717400D03*
D20*
X48387000Y-49717400D03*
X45847000Y-49717400D03*
X43307000Y-49717400D03*
X50927000Y-55997400D03*
X48387000Y-56037400D03*
X45847000Y-56037400D03*
X43307000Y-56037400D03*
D10*
X44043600Y-110388400D03*
D11*
X44043600Y-120548400D03*
D12*
X31250000Y-83180000D03*
D18*
X48768000Y-73914000D03*
D14*
X56388000Y-73914000D03*
D13*
X30070000Y-54019999D03*
D14*
X30070000Y-43859999D03*
D13*
X57280000Y-114090000D03*
D14*
X47120000Y-114090000D03*
D15*
X48195601Y-91701599D03*
X47245601Y-91701599D03*
X46295601Y-91701599D03*
X46295601Y-93976599D03*
X48195601Y-93976599D03*
D12*
X63450000Y-74360000D03*
X31250000Y-74360000D03*
M02*
