G04 #@! TF.GenerationSoftware,KiCad,Pcbnew,7.0.1*
G04 #@! TF.CreationDate,2023-11-23T23:45:05+01:00*
G04 #@! TF.ProjectId,Spotify_controller,53706f74-6966-4795-9f63-6f6e74726f6c,rev?*
G04 #@! TF.SameCoordinates,Original*
G04 #@! TF.FileFunction,Profile,NP*
%FSLAX46Y46*%
G04 Gerber Fmt 4.6, Leading zero omitted, Abs format (unit mm)*
G04 Created by KiCad (PCBNEW 7.0.1) date 2023-11-23 23:45:05*
%MOMM*%
%LPD*%
G01*
G04 APERTURE LIST*
G04 Aperture macros list*
%AMRoundRect*
0 Rectangle with rounded corners*
0 $1 Rounding radius*
0 $2 $3 $4 $5 $6 $7 $8 $9 X,Y pos of 4 corners*
0 Add a 4 corners polygon primitive as box body*
4,1,4,$2,$3,$4,$5,$6,$7,$8,$9,$2,$3,0*
0 Add four circle primitives for the rounded corners*
1,1,$1+$1,$2,$3*
1,1,$1+$1,$4,$5*
1,1,$1+$1,$6,$7*
1,1,$1+$1,$8,$9*
0 Add four rect primitives between the rounded corners*
20,1,$1+$1,$2,$3,$4,$5,0*
20,1,$1+$1,$4,$5,$6,$7,0*
20,1,$1+$1,$6,$7,$8,$9,0*
20,1,$1+$1,$8,$9,$2,$3,0*%
G04 Aperture macros list end*
G04 #@! TA.AperFunction,Profile*
%ADD10C,0.100000*%
G04 #@! TD*
G04 #@! TA.AperFunction,Profile*
%ADD11C,0.050000*%
G04 #@! TD*
G04 #@! TA.AperFunction,NonConductor*
%ADD12C,0.100000*%
G04 #@! TD*
%ADD13C,0.300000*%
G04 #@! TA.AperFunction,NonConductor*
%ADD14C,0.300000*%
G04 #@! TD*
G04 #@! TA.AperFunction,EtchedComponent*
%ADD15C,0.050000*%
G04 #@! TD*
G04 #@! TA.AperFunction,ComponentPad*
%ADD16C,1.600000*%
G04 #@! TD*
G04 #@! TA.AperFunction,ComponentPad*
%ADD17O,1.600000X1.600000*%
G04 #@! TD*
G04 #@! TA.AperFunction,ComponentPad*
%ADD18R,1.000000X1.000000*%
G04 #@! TD*
G04 #@! TA.AperFunction,ComponentPad*
%ADD19O,1.000000X1.000000*%
G04 #@! TD*
G04 #@! TA.AperFunction,ComponentPad*
%ADD20C,2.000000*%
G04 #@! TD*
G04 #@! TA.AperFunction,ComponentPad*
%ADD21R,1.800000X1.800000*%
G04 #@! TD*
G04 #@! TA.AperFunction,ComponentPad*
%ADD22C,1.800000*%
G04 #@! TD*
G04 #@! TA.AperFunction,ComponentPad*
%ADD23O,2.500000X1.200000*%
G04 #@! TD*
G04 #@! TA.AperFunction,ComponentPad*
%ADD24R,2.000000X2.000000*%
G04 #@! TD*
G04 #@! TA.AperFunction,ComponentPad*
%ADD25R,3.200000X2.000000*%
G04 #@! TD*
G04 #@! TA.AperFunction,ComponentPad*
%ADD26R,2.200000X2.200000*%
G04 #@! TD*
G04 #@! TA.AperFunction,ComponentPad*
%ADD27O,2.200000X2.200000*%
G04 #@! TD*
G04 #@! TA.AperFunction,ComponentPad*
%ADD28C,2.600000*%
G04 #@! TD*
G04 #@! TA.AperFunction,ComponentPad*
%ADD29R,1.600000X1.600000*%
G04 #@! TD*
G04 #@! TA.AperFunction,ComponentPad*
%ADD30R,1.700000X1.700000*%
G04 #@! TD*
G04 #@! TA.AperFunction,ComponentPad*
%ADD31O,1.700000X1.700000*%
G04 #@! TD*
G04 #@! TA.AperFunction,ComponentPad*
%ADD32R,1.700000X2.550000*%
G04 #@! TD*
G04 #@! TA.AperFunction,ComponentPad*
%ADD33R,1.350000X1.350000*%
G04 #@! TD*
G04 #@! TA.AperFunction,ComponentPad*
%ADD34O,1.700000X2.550000*%
G04 #@! TD*
G04 #@! TA.AperFunction,ComponentPad*
%ADD35O,1.350000X1.350000*%
G04 #@! TD*
G04 #@! TA.AperFunction,SMDPad,CuDef*
%ADD36RoundRect,0.250000X-0.350000X-0.450000X0.350000X-0.450000X0.350000X0.450000X-0.350000X0.450000X0*%
G04 #@! TD*
G04 #@! TA.AperFunction,SMDPad,CuDef*
%ADD37RoundRect,0.250000X0.450000X-0.350000X0.450000X0.350000X-0.450000X0.350000X-0.450000X-0.350000X0*%
G04 #@! TD*
G04 #@! TA.AperFunction,ViaPad*
%ADD38C,1.400000*%
G04 #@! TD*
G04 #@! TA.AperFunction,Conductor*
%ADD39C,0.400000*%
G04 #@! TD*
G04 #@! TA.AperFunction,Conductor*
%ADD40C,0.300000*%
G04 #@! TD*
%ADD41C,0.350000*%
%ADD42O,2.800000X1.500000*%
%ADD43C,0.099999*%
G04 APERTURE END LIST*
D10*
X66300000Y-142500000D02*
X58200000Y-142500000D01*
X56200000Y-136200000D02*
X38200000Y-136200000D01*
X66240000Y-42500000D02*
X28300000Y-42500000D01*
X66300000Y-142500000D02*
X66240000Y-42500000D01*
X28360000Y-142500000D02*
X36200000Y-142500000D01*
X28300000Y-42500000D02*
X28360000Y-142500000D01*
X36200000Y-142500000D02*
X36200000Y-138200000D01*
X58200000Y-142500000D02*
X58200000Y-138200000D01*
X58200000Y-138200000D02*
G75*
G03*
X56200000Y-136200000I-2000000J0D01*
G01*
X38200000Y-136200000D02*
G75*
G03*
X36200000Y-138200000I0J-2000000D01*
G01*
D11*
X42107600Y-66469200D02*
X42107600Y-64081600D01*
X41091600Y-64081600D02*
X41091600Y-66469200D01*
X41091600Y-66469200D02*
G75*
G03*
X42107600Y-66469200I508000J0D01*
G01*
X42107600Y-64081600D02*
G75*
G03*
X41091600Y-64081600I-508000J0D01*
G01*
X51240000Y-65290000D02*
G75*
G03*
X51240000Y-65290000I-3900000J0D01*
G01*
D10*
X52384349Y-45688146D02*
G75*
G03*
X53695600Y-44007401I1403091J257230D01*
G01*
X53695599Y-44007400D02*
G75*
G03*
X52384522Y-45691682I-1380298J-277975D01*
G01*
X40059249Y-44003723D02*
G75*
G03*
X41367028Y-45683800I-69049J-1402777D01*
G01*
X41370500Y-45684496D02*
G75*
G03*
X40059249Y-44003753I91840J1423516D01*
G01*
D11*
X62637337Y-55297400D02*
G75*
G03*
X62637337Y-55297400I-1560337J0D01*
G01*
X59655562Y-53759400D02*
G75*
G03*
X59655562Y-53759400I-1260962J0D01*
G01*
X36914388Y-53708493D02*
G75*
G03*
X36914388Y-53708493I-1260612J0D01*
G01*
X34539367Y-55246493D02*
G75*
G03*
X34539367Y-55246493I-1503191J0D01*
G01*
D12*
X24282400Y-148844000D02*
X91694000Y-148844000D01*
X24282400Y-78740000D02*
X24282400Y-148844000D01*
D13*
D14*
X64088285Y-134651857D02*
X64016857Y-134437571D01*
X64016857Y-134437571D02*
X63945428Y-134366142D01*
X63945428Y-134366142D02*
X63802571Y-134294714D01*
X63802571Y-134294714D02*
X63588285Y-134294714D01*
X63588285Y-134294714D02*
X63445428Y-134366142D01*
X63445428Y-134366142D02*
X63374000Y-134437571D01*
X63374000Y-134437571D02*
X63302571Y-134580428D01*
X63302571Y-134580428D02*
X63302571Y-135151857D01*
X63302571Y-135151857D02*
X64802571Y-135151857D01*
X64802571Y-135151857D02*
X64802571Y-134651857D01*
X64802571Y-134651857D02*
X64731142Y-134509000D01*
X64731142Y-134509000D02*
X64659714Y-134437571D01*
X64659714Y-134437571D02*
X64516857Y-134366142D01*
X64516857Y-134366142D02*
X64374000Y-134366142D01*
X64374000Y-134366142D02*
X64231142Y-134437571D01*
X64231142Y-134437571D02*
X64159714Y-134509000D01*
X64159714Y-134509000D02*
X64088285Y-134651857D01*
X64088285Y-134651857D02*
X64088285Y-135151857D01*
X63302571Y-133437571D02*
X63374000Y-133580428D01*
X63374000Y-133580428D02*
X63445428Y-133651857D01*
X63445428Y-133651857D02*
X63588285Y-133723285D01*
X63588285Y-133723285D02*
X64016857Y-133723285D01*
X64016857Y-133723285D02*
X64159714Y-133651857D01*
X64159714Y-133651857D02*
X64231142Y-133580428D01*
X64231142Y-133580428D02*
X64302571Y-133437571D01*
X64302571Y-133437571D02*
X64302571Y-133223285D01*
X64302571Y-133223285D02*
X64231142Y-133080428D01*
X64231142Y-133080428D02*
X64159714Y-133009000D01*
X64159714Y-133009000D02*
X64016857Y-132937571D01*
X64016857Y-132937571D02*
X63588285Y-132937571D01*
X63588285Y-132937571D02*
X63445428Y-133009000D01*
X63445428Y-133009000D02*
X63374000Y-133080428D01*
X63374000Y-133080428D02*
X63302571Y-133223285D01*
X63302571Y-133223285D02*
X63302571Y-133437571D01*
X64302571Y-132508999D02*
X64302571Y-131937571D01*
X64802571Y-132294714D02*
X63516857Y-132294714D01*
X63516857Y-132294714D02*
X63374000Y-132223285D01*
X63374000Y-132223285D02*
X63302571Y-132080428D01*
X63302571Y-132080428D02*
X63302571Y-131937571D01*
D15*
X41079600Y-50313000D02*
X39606400Y-51278200D01*
X39606400Y-49246200D01*
X41079600Y-50313000D01*
G04 #@! TA.AperFunction,EtchedComponent*
G36*
X41079600Y-50313000D02*
G01*
X39606400Y-51278200D01*
X39606400Y-49246200D01*
X41079600Y-50313000D01*
G37*
G04 #@! TD.AperFunction*
D16*
X53360000Y-55880000D03*
X55860000Y-55880000D03*
X58013600Y-107340400D03*
D17*
X58013600Y-97180400D03*
D16*
X51917600Y-107340400D03*
D17*
X51917600Y-97180400D03*
D18*
X35102800Y-123708000D03*
D19*
X35102800Y-124978000D03*
X35102800Y-126248000D03*
X35102800Y-127518000D03*
X35102800Y-128788000D03*
X35102800Y-130058000D03*
X35102800Y-131328000D03*
X35102800Y-132598000D03*
X35102800Y-133868000D03*
D16*
X52832000Y-93539999D03*
X52832000Y-91539999D03*
D20*
X58892000Y-81586000D03*
X58892000Y-88086000D03*
X54392000Y-81586000D03*
X54392000Y-88086000D03*
X30320000Y-120590000D03*
X30320000Y-114090000D03*
X34820000Y-120590000D03*
X34820000Y-114090000D03*
D16*
X33070800Y-43950000D03*
X33070800Y-48950000D03*
X41734001Y-91739998D03*
X41734001Y-93739998D03*
X54965600Y-107340400D03*
D17*
X54965600Y-97180400D03*
D21*
X51054000Y-77712000D03*
D22*
X53594000Y-77712000D03*
D23*
X56300000Y-135128000D03*
X56300000Y-133628000D03*
X56300000Y-132138000D03*
X56300000Y-130628000D03*
X56300000Y-129128000D03*
X56300000Y-127628000D03*
X56300000Y-126128000D03*
X56300000Y-124628000D03*
X56300000Y-123128000D03*
X38100000Y-123158000D03*
X38100000Y-124628000D03*
X38100000Y-126128000D03*
X38100000Y-127628000D03*
X38100000Y-129128000D03*
X38100000Y-130628000D03*
X38100000Y-132128000D03*
X38100000Y-133628000D03*
X38100000Y-135128000D03*
D24*
X54748000Y-67790000D03*
D20*
X54748000Y-62790000D03*
X54748000Y-65290000D03*
D25*
X47248000Y-70890000D03*
X47248000Y-59690000D03*
D20*
X40248000Y-62790000D03*
X40248000Y-67790000D03*
D16*
X39725600Y-97180400D03*
D17*
X39725600Y-107340400D03*
D20*
X59182000Y-72912000D03*
D26*
X30657800Y-127254000D03*
D27*
X30657800Y-134874000D03*
D16*
X36677600Y-97180400D03*
D17*
X36677600Y-107340400D03*
D28*
X57429400Y-50647600D03*
D29*
X38227000Y-111912400D03*
D17*
X38227000Y-119532400D03*
D20*
X35850000Y-88000000D03*
X35850000Y-81500000D03*
X40350000Y-88000000D03*
X40350000Y-81500000D03*
D21*
X40045800Y-77724000D03*
D22*
X42585800Y-77724000D03*
X45125800Y-77724000D03*
D16*
X62636400Y-123977400D03*
X64636400Y-123977400D03*
D20*
X49621000Y-81586000D03*
X49621000Y-88086000D03*
X45121000Y-81586000D03*
X45121000Y-88086000D03*
D18*
X59232800Y-133858000D03*
D19*
X59232800Y-132588000D03*
X59232800Y-131318000D03*
X59232800Y-130048000D03*
X59232800Y-128778000D03*
X59232800Y-127508000D03*
X59232800Y-126238000D03*
X59232800Y-124968000D03*
X59232800Y-123698000D03*
D16*
X30581600Y-97180400D03*
D17*
X30581600Y-107340400D03*
D16*
X42773600Y-97180400D03*
D17*
X42773600Y-107340400D03*
D16*
X59690000Y-110650000D03*
X62190000Y-110650000D03*
D28*
X57251600Y-44475400D03*
D16*
X45821600Y-107340400D03*
D17*
X45821600Y-97180400D03*
D16*
X48869600Y-107340400D03*
D17*
X48869600Y-97180400D03*
D20*
X64440000Y-113749100D03*
X64440000Y-120249100D03*
X59940000Y-113749100D03*
X59940000Y-120249100D03*
X59182000Y-75946000D03*
D16*
X49718600Y-120276600D03*
X52218600Y-120276600D03*
X47127801Y-117152400D03*
D17*
X57287801Y-117152400D03*
D29*
X45720000Y-73914000D03*
D17*
X38100000Y-73914000D03*
D16*
X33629600Y-97180400D03*
D17*
X33629600Y-107340400D03*
D30*
X60540000Y-69640000D03*
D31*
X60540000Y-67100000D03*
X60540000Y-64560000D03*
X60540000Y-62020000D03*
X60540000Y-59480000D03*
D16*
X44274001Y-91399999D03*
X44274001Y-93899999D03*
D30*
X30124400Y-110413800D03*
D31*
X32664400Y-110413800D03*
X35204400Y-110413800D03*
D16*
X50284001Y-93980000D03*
X50284001Y-91480000D03*
D32*
X50927000Y-49717400D03*
D33*
X49869200Y-47142400D03*
D34*
X48387000Y-49717400D03*
D35*
X47869200Y-47142400D03*
X45869200Y-47142400D03*
D34*
X45847000Y-49717400D03*
D35*
X43869200Y-47142400D03*
D34*
X43307000Y-49717400D03*
X50927000Y-55997400D03*
X48387000Y-56037400D03*
X45847000Y-56037400D03*
X43307000Y-56037400D03*
D26*
X44043600Y-112953800D03*
D27*
X44043600Y-120573800D03*
D29*
X48768000Y-73914000D03*
D17*
X56388000Y-73914000D03*
D16*
X30070000Y-54019999D03*
D17*
X30070000Y-43859999D03*
D16*
X57280000Y-114090000D03*
D17*
X47120000Y-114090000D03*
D36*
X51933600Y-130606800D03*
X53933600Y-130606800D03*
X51933600Y-132588000D03*
X53933600Y-132588000D03*
D37*
X63500000Y-63992000D03*
X63500000Y-61992000D03*
D38*
X42926000Y-89408000D03*
X47362900Y-120514900D03*
X60060211Y-91302211D03*
X55229536Y-71485536D03*
X49276000Y-75946000D03*
X63500000Y-69596000D03*
X56812026Y-91302211D03*
X34544000Y-93218000D03*
X57658000Y-119913400D03*
X51562000Y-80518000D03*
X34016436Y-60536347D03*
X40182800Y-58623200D03*
X52549615Y-82804000D03*
X58757500Y-59614497D03*
X55958500Y-59614497D03*
X58757500Y-61214000D03*
X64820800Y-128778000D03*
X65278000Y-66040000D03*
X55958500Y-61214000D03*
X62687200Y-108661200D03*
X58757500Y-64770000D03*
X55958500Y-69664524D03*
X56170500Y-78486000D03*
X38167000Y-71882000D03*
X65430400Y-97790000D03*
X61441000Y-97790000D03*
X37076645Y-76701176D03*
X47252214Y-108466215D03*
X53746400Y-111760000D03*
X47244000Y-105511600D03*
X48040268Y-118603602D03*
X36752241Y-61705251D03*
X35153338Y-61661452D03*
X36748500Y-65125600D03*
X35018500Y-63872000D03*
X36753800Y-120499100D03*
X32156500Y-123288365D03*
X49047400Y-79197200D03*
X47244000Y-77216000D03*
X44246800Y-108534200D03*
X48344131Y-112911100D03*
X31281704Y-112451941D03*
X32878119Y-112551262D03*
X51917600Y-110286900D03*
X49199800Y-110286900D03*
X53594000Y-95707200D03*
X61441000Y-103378000D03*
X64740500Y-103378000D03*
X53410691Y-104718691D03*
D39*
X41988001Y-90678000D02*
X41734001Y-90932000D01*
X42926000Y-90170000D02*
X42418000Y-90678000D01*
X43934002Y-91739998D02*
X44274001Y-91399999D01*
X42926000Y-89408000D02*
X42926000Y-90170000D01*
X42418000Y-90678000D02*
X41988001Y-90678000D01*
X41734001Y-90932000D02*
X41734001Y-91739998D01*
X41734001Y-91739998D02*
X43934002Y-91739998D01*
X42569000Y-81483000D02*
X42569000Y-77732000D01*
X52218600Y-120276600D02*
X52218600Y-116437400D01*
X63140500Y-105515500D02*
X63140500Y-94382500D01*
X57270000Y-77883076D02*
X57270000Y-79091415D01*
X52218600Y-116437400D02*
X58293000Y-110363000D01*
X51816000Y-91480000D02*
X52772001Y-91480000D01*
X50284001Y-91480000D02*
X51816000Y-91480000D01*
X54392000Y-91404000D02*
X54356000Y-91440000D01*
X40350000Y-92355997D02*
X41734001Y-93739998D01*
X45121000Y-81586000D02*
X45121000Y-88086000D01*
X56007000Y-80354415D02*
X56007000Y-90497185D01*
X56388000Y-57404000D02*
X57058000Y-58074000D01*
X40350000Y-81586000D02*
X40350000Y-88086000D01*
X49276000Y-75946000D02*
X50546000Y-75946000D01*
X56812026Y-91302211D02*
X56574238Y-91539999D01*
X63456000Y-69640000D02*
X63500000Y-69596000D01*
X34829600Y-93503600D02*
X34544000Y-93218000D01*
X42569000Y-81483000D02*
X42672000Y-81586000D01*
X51054000Y-76454000D02*
X51054000Y-77712000D01*
X56574238Y-91539999D02*
X54610000Y-91539999D01*
X54300000Y-65350000D02*
X56824000Y-65350000D01*
X39446200Y-121598600D02*
X39979600Y-122132000D01*
X43180000Y-75946000D02*
X42569000Y-76557000D01*
X54102000Y-72613072D02*
X54102000Y-74715076D01*
X42569000Y-76557000D02*
X42569000Y-77707200D01*
X54392000Y-88086000D02*
X54392000Y-81586000D01*
X35204400Y-110413800D02*
X35483800Y-110693200D01*
X56007000Y-90497185D02*
X56812026Y-91302211D01*
X49276000Y-75946000D02*
X43180000Y-75946000D01*
X42569000Y-77707200D02*
X42585800Y-77724000D01*
X51816000Y-91480000D02*
X52873601Y-91480000D01*
X54610000Y-91539999D02*
X52933600Y-91539999D01*
X52704002Y-91480000D02*
X52764001Y-91539999D01*
X56254000Y-80107415D02*
X56623707Y-79737707D01*
X54029600Y-118465600D02*
X59283600Y-118465600D01*
X53360000Y-55880000D02*
X54884000Y-57404000D01*
X39979600Y-122132000D02*
X45745800Y-122132000D01*
X59283600Y-118465600D02*
X59940000Y-119122000D01*
X55768464Y-71485536D02*
X57058000Y-70196000D01*
X52772001Y-91480000D02*
X52832000Y-91539999D01*
X35483800Y-110693200D02*
X35483800Y-113426200D01*
X34820000Y-120590000D02*
X34820000Y-120773600D01*
X53848000Y-91539999D02*
X52832000Y-91539999D01*
X59940000Y-119122000D02*
X59940000Y-120249100D01*
X52873601Y-91480000D02*
X52933600Y-91539999D01*
X35645000Y-121598600D02*
X39446200Y-121598600D01*
X54256001Y-91539999D02*
X54102000Y-91539999D01*
X34829600Y-108134000D02*
X34829600Y-93503600D01*
X44114000Y-93739998D02*
X44274001Y-93899999D01*
X54102000Y-74715076D02*
X57270000Y-77883076D01*
X54356000Y-91440000D02*
X54256001Y-91539999D01*
X34820000Y-120590000D02*
X34820000Y-114090000D01*
X53848000Y-91539999D02*
X52764001Y-91539999D01*
X35204400Y-110413800D02*
X35204400Y-108508800D01*
X54392000Y-88086000D02*
X54392000Y-91404000D01*
X50546000Y-75946000D02*
X51054000Y-76454000D01*
X57270000Y-79091415D02*
X56623707Y-79737707D01*
X40350000Y-81586000D02*
X42672000Y-81586000D01*
X59690000Y-110650000D02*
X58580000Y-110650000D01*
X56254000Y-80107415D02*
X56007000Y-80354415D01*
X63140500Y-94382500D02*
X60060211Y-91302211D01*
X59690000Y-110650000D02*
X59690000Y-113499100D01*
X41734001Y-93739998D02*
X44114000Y-93739998D01*
X35204400Y-108508800D02*
X34829600Y-108134000D01*
X52218600Y-120276600D02*
X54029600Y-118465600D01*
X45745800Y-122132000D02*
X47362900Y-120514900D01*
X42672000Y-81586000D02*
X45121000Y-81586000D01*
X34820000Y-120773600D02*
X35645000Y-121598600D01*
X54884000Y-57404000D02*
X56388000Y-57404000D01*
X59690000Y-113499100D02*
X59940000Y-113749100D01*
X55229536Y-71485536D02*
X55768464Y-71485536D01*
X55229536Y-71485536D02*
X54102000Y-72613072D01*
X57270000Y-79091415D02*
X56254000Y-80107415D01*
X42569000Y-76557000D02*
X42569000Y-77732000D01*
X51816000Y-91480000D02*
X52704002Y-91480000D01*
X35483800Y-113426200D02*
X34820000Y-114090000D01*
X58293000Y-110363000D02*
X63140500Y-105515500D01*
X58580000Y-110650000D02*
X58293000Y-110363000D01*
X40350000Y-88086000D02*
X40350000Y-92355997D01*
X54102000Y-91539999D02*
X53848000Y-91539999D01*
X57058000Y-70196000D02*
X57058000Y-58074000D01*
X54610000Y-91539999D02*
X54102000Y-91539999D01*
X60540000Y-69640000D02*
X63456000Y-69640000D01*
X63500000Y-63992000D02*
X63500000Y-66084000D01*
X54702000Y-73568000D02*
X57658000Y-70612000D01*
X52070000Y-93539999D02*
X52832000Y-93539999D01*
X56769000Y-80440943D02*
X57870000Y-79339943D01*
X54702000Y-74466548D02*
X54702000Y-73568000D01*
X57870000Y-79339943D02*
X57870000Y-77634548D01*
X47127801Y-117152400D02*
X41038800Y-117152400D01*
X51933600Y-130606800D02*
X51933600Y-123815600D01*
X56300000Y-135128000D02*
X57962800Y-135128000D01*
X62540500Y-104729300D02*
X62540500Y-96576500D01*
X38658800Y-119532400D02*
X38227000Y-119532400D01*
X57658000Y-67056000D02*
X57658000Y-57678000D01*
X57658000Y-70612000D02*
X57658000Y-67056000D01*
X57658000Y-93539999D02*
X59368001Y-93539999D01*
X58470800Y-107340400D02*
X59131200Y-108000800D01*
X41038800Y-117152400D02*
X38658800Y-119532400D01*
X53848000Y-93539999D02*
X58420000Y-93539999D01*
X59436000Y-92370550D02*
X56769000Y-89703550D01*
X52070000Y-93539999D02*
X52933600Y-93539999D01*
X49718600Y-120276600D02*
X49718600Y-117551200D01*
X59368001Y-93539999D02*
X59436000Y-93472000D01*
X47127801Y-117152400D02*
X49319800Y-117152400D01*
X57962800Y-135128000D02*
X59232800Y-133858000D01*
X57702000Y-67100000D02*
X57658000Y-67056000D01*
X49319800Y-117152400D02*
X49718600Y-117551200D01*
X57870000Y-77634548D02*
X54702000Y-74466548D01*
X54457600Y-135128000D02*
X54737000Y-135128000D01*
X51933600Y-132588000D02*
X51933600Y-130606800D01*
X63500000Y-66084000D02*
X62484000Y-67100000D01*
X54737000Y-135128000D02*
X56300000Y-135128000D01*
X58013600Y-107340400D02*
X58470800Y-107340400D01*
X49718600Y-117551200D02*
X62540500Y-104729300D01*
X59436000Y-93472000D02*
X59436000Y-92370550D01*
X51933600Y-123815600D02*
X49718600Y-121600600D01*
X57658000Y-57678000D02*
X55860000Y-55880000D01*
X49718600Y-121600600D02*
X49718600Y-120276600D01*
X51629999Y-93980000D02*
X50284001Y-93980000D01*
X62484000Y-67100000D02*
X60540000Y-67100000D01*
X62540500Y-96576500D02*
X59436000Y-93472000D01*
X52933600Y-93539999D02*
X53848000Y-93539999D01*
X51629999Y-93980000D02*
X52070000Y-93539999D01*
X57658000Y-93539999D02*
X58420000Y-93539999D01*
X60540000Y-67100000D02*
X57702000Y-67100000D01*
X53848000Y-93539999D02*
X52832000Y-93539999D01*
X51933600Y-132588000D02*
X51933600Y-132604000D01*
X51933600Y-132604000D02*
X54457600Y-135128000D01*
X56769000Y-89703550D02*
X56769000Y-80440943D01*
D40*
X59537600Y-125272800D02*
X59232800Y-124968000D01*
X64440000Y-113749100D02*
X64440000Y-120249100D01*
X64440000Y-111226800D02*
X64440000Y-113749100D01*
X60255800Y-124757800D02*
X59740800Y-125272800D01*
X59740800Y-125272800D02*
X59537600Y-125272800D01*
X57658000Y-119913400D02*
X60255800Y-122511200D01*
X60255800Y-122511200D02*
X60255800Y-124757800D01*
X59359800Y-125272800D02*
X59740800Y-125272800D01*
X62190000Y-110650000D02*
X63863200Y-110650000D01*
X63863200Y-110650000D02*
X64440000Y-111226800D01*
X53594000Y-78486000D02*
X53594000Y-77712000D01*
X51562000Y-80518000D02*
X53594000Y-78486000D01*
D39*
X34016436Y-57880764D02*
X35052000Y-56845200D01*
X34016436Y-60536347D02*
X34016436Y-57880764D01*
X35052000Y-56845200D02*
X38404800Y-56845200D01*
X38404800Y-56845200D02*
X40182800Y-58623200D01*
D40*
X52324000Y-74422000D02*
X52324000Y-67818000D01*
X52324000Y-67818000D02*
X52324000Y-61214000D01*
X60540000Y-59480000D02*
X60988000Y-59480000D01*
X54748000Y-67790000D02*
X52352000Y-67790000D01*
X58757500Y-59614497D02*
X58891997Y-59480000D01*
X52549615Y-81308385D02*
X55118000Y-78740000D01*
X55118000Y-78740000D02*
X55118000Y-77216000D01*
X58891997Y-59480000D02*
X60540000Y-59480000D01*
X52352000Y-67790000D02*
X52324000Y-67818000D01*
X52324000Y-61214000D02*
X53923503Y-59614497D01*
X55958500Y-59614497D02*
X53923503Y-59614497D01*
X60988000Y-59480000D02*
X63500000Y-61992000D01*
X55118000Y-77216000D02*
X52324000Y-74422000D01*
X52549615Y-82804000D02*
X52549615Y-81308385D01*
X58558811Y-89662000D02*
X60452000Y-89662000D01*
X60452000Y-89662000D02*
X63690500Y-92900500D01*
X63690500Y-107657900D02*
X62687200Y-108661200D01*
X54813200Y-132138000D02*
X55041800Y-132138000D01*
X64516000Y-70866000D02*
X58674000Y-70866000D01*
X58674000Y-70866000D02*
X57658000Y-71882000D01*
X57658000Y-71882000D02*
X57658000Y-76644730D01*
X58420000Y-79636000D02*
X57665000Y-80391000D01*
X65278000Y-70104000D02*
X64516000Y-70866000D01*
X54864000Y-61214000D02*
X54737000Y-61341000D01*
X65278000Y-66040000D02*
X65278000Y-70104000D01*
X55041800Y-132138000D02*
X56300000Y-132138000D01*
X59232800Y-131318000D02*
X62280800Y-131318000D01*
X57658000Y-80391000D02*
X57542000Y-80507000D01*
X54748000Y-61352000D02*
X54748000Y-62790000D01*
X58757500Y-61214000D02*
X59734000Y-61214000D01*
X58420000Y-77406730D02*
X58420000Y-79636000D01*
X57542000Y-88645189D02*
X58558811Y-89662000D01*
X55958500Y-61214000D02*
X54864000Y-61214000D01*
X57542000Y-80507000D02*
X57542000Y-88645189D01*
X55041800Y-132138000D02*
X58412800Y-132138000D01*
X54383600Y-132138000D02*
X54813200Y-132138000D01*
X59734000Y-61214000D02*
X60540000Y-62020000D01*
X63690500Y-92900500D02*
X63690500Y-107657900D01*
X57658000Y-76644730D02*
X58420000Y-77406730D01*
X62280800Y-131318000D02*
X64820800Y-128778000D01*
X57665000Y-80391000D02*
X57658000Y-80391000D01*
X54737000Y-61341000D02*
X54748000Y-61352000D01*
X53933600Y-132588000D02*
X54383600Y-132138000D01*
X58412800Y-132138000D02*
X59232800Y-131318000D01*
X58216800Y-130628000D02*
X58652800Y-130628000D01*
X53954800Y-130628000D02*
X54559200Y-130628000D01*
X56300000Y-130628000D02*
X58216800Y-130628000D01*
X58216800Y-130628000D02*
X58495400Y-130628000D01*
X56170500Y-77561394D02*
X53086000Y-74476894D01*
X60330000Y-64770000D02*
X60540000Y-64560000D01*
X56170500Y-78486000D02*
X56170500Y-77561394D01*
X53086000Y-74476894D02*
X53086000Y-71882000D01*
X53086000Y-71882000D02*
X55303476Y-69664524D01*
X56300000Y-130628000D02*
X54864000Y-130628000D01*
X58652800Y-130628000D02*
X59232800Y-130048000D01*
X55303476Y-69664524D02*
X55958500Y-69664524D01*
X58757500Y-64770000D02*
X60330000Y-64770000D01*
X54864000Y-130628000D02*
X54559200Y-130628000D01*
X53933600Y-130606800D02*
X53954800Y-130628000D01*
X41257655Y-94889998D02*
X43124798Y-94889998D01*
X65430400Y-99720400D02*
X65790000Y-100080000D01*
X40584001Y-94193819D02*
X40584001Y-94216344D01*
X44602400Y-96367600D02*
X44602400Y-98044000D01*
X60679000Y-98552000D02*
X61441000Y-97790000D01*
X37846000Y-91455818D02*
X40584001Y-94193819D01*
X45110400Y-98552000D02*
X60679000Y-98552000D01*
X65790000Y-127123000D02*
X65405000Y-127508000D01*
X38167000Y-71882000D02*
X39250000Y-72965000D01*
X65405000Y-127508000D02*
X59232800Y-127508000D01*
X44602400Y-98044000D02*
X45110400Y-98552000D01*
X39250000Y-76011000D02*
X37846000Y-77415000D01*
X43124798Y-94889998D02*
X44602400Y-96367600D01*
X37846000Y-77415000D02*
X37846000Y-91455818D01*
X65430400Y-97790000D02*
X65430400Y-99720400D01*
X65790000Y-100080000D02*
X65790000Y-127123000D01*
X40584001Y-94216344D02*
X41257655Y-94889998D01*
X39250000Y-72965000D02*
X39250000Y-76011000D01*
X42917692Y-95389998D02*
X41050549Y-95389998D01*
X47252214Y-111158614D02*
X47921100Y-111827500D01*
X37346000Y-91685449D02*
X37346000Y-76970531D01*
X44102400Y-96574706D02*
X42917692Y-95389998D01*
X47244000Y-105511600D02*
X47244000Y-101392706D01*
X41050549Y-95389998D02*
X37346000Y-91685449D01*
X47244000Y-101392706D02*
X44102400Y-98251106D01*
X47252214Y-108466215D02*
X47252214Y-111158614D01*
X37346000Y-76970531D02*
X37076645Y-76701176D01*
X53678900Y-111827500D02*
X53746400Y-111760000D01*
X47921100Y-111827500D02*
X53678900Y-111827500D01*
X44102400Y-98251106D02*
X44102400Y-96574706D01*
X39617503Y-122682000D02*
X46939200Y-122682000D01*
X30320000Y-120590000D02*
X32910811Y-120590000D01*
X34468911Y-122148100D02*
X39083603Y-122148100D01*
X30320000Y-120590000D02*
X30320000Y-114090000D01*
X48412400Y-121208800D02*
X48412400Y-118975734D01*
X32910811Y-120590000D02*
X34468911Y-122148100D01*
X39083603Y-122148100D02*
X39617503Y-122682000D01*
X48412400Y-118975734D02*
X48040268Y-118603602D01*
X46939200Y-122682000D02*
X48412400Y-121208800D01*
X35018500Y-63872000D02*
X35494900Y-63872000D01*
X35153338Y-63737162D02*
X35153338Y-61661452D01*
X35018500Y-63872000D02*
X35153338Y-63737162D01*
X35494900Y-63872000D02*
X36748500Y-65125600D01*
X32156500Y-123288365D02*
X29924435Y-123288365D01*
X36626800Y-120218200D02*
X37033200Y-120624600D01*
X28879800Y-132562600D02*
X30657800Y-134340600D01*
X38227000Y-113690400D02*
X36626800Y-115290600D01*
X29924435Y-123288365D02*
X28879800Y-124333000D01*
X28879800Y-124333000D02*
X28879800Y-132562600D01*
X37457200Y-121048600D02*
X43568800Y-121048600D01*
X38227000Y-111912400D02*
X38227000Y-113690400D01*
X30657800Y-134340600D02*
X30657800Y-134874000D01*
X36879300Y-120624600D02*
X36753800Y-120499100D01*
X37033200Y-120624600D02*
X37457200Y-121048600D01*
X36626800Y-115290600D02*
X36626800Y-120218200D01*
X37033200Y-120624600D02*
X36879300Y-120624600D01*
X43568800Y-121048600D02*
X44043600Y-120573800D01*
X48006000Y-94687107D02*
X49510310Y-96191416D01*
X49047400Y-79197200D02*
X48006000Y-80238600D01*
X50065016Y-96191416D02*
X51054000Y-97180400D01*
X48006000Y-80238600D02*
X48006000Y-94687107D01*
X49510310Y-96191416D02*
X50065016Y-96191416D01*
X51054000Y-97180400D02*
X51917600Y-97180400D01*
X48869600Y-97180400D02*
X47244000Y-95554800D01*
X47244000Y-95554800D02*
X47244000Y-77216000D01*
X63090000Y-119986000D02*
X63090000Y-123523800D01*
X63090000Y-123523800D02*
X62636400Y-123977400D01*
X57287801Y-117152400D02*
X57287801Y-114097801D01*
X57287801Y-114097801D02*
X57280000Y-114090000D01*
X57287801Y-117152400D02*
X60256400Y-117152400D01*
X60256400Y-117152400D02*
X63090000Y-119986000D01*
X44246800Y-108860306D02*
X48297594Y-112911100D01*
X44043600Y-112953800D02*
X44086300Y-112911100D01*
X48297594Y-112911100D02*
X48344131Y-112911100D01*
X44086300Y-112911100D02*
X48344131Y-112911100D01*
X44246800Y-108534200D02*
X44246800Y-108860306D01*
X30581600Y-109956600D02*
X30124400Y-110413800D01*
X31281704Y-112451941D02*
X30124400Y-111294637D01*
X30581600Y-107340400D02*
X30581600Y-109956600D01*
X30124400Y-111294637D02*
X30124400Y-110413800D01*
X33629600Y-109448600D02*
X32664400Y-110413800D01*
X32878119Y-112551262D02*
X32878119Y-110627519D01*
X33629600Y-107340400D02*
X33629600Y-109448600D01*
X32878119Y-110627519D02*
X32664400Y-110413800D01*
X51917600Y-110286900D02*
X51917600Y-107340400D01*
X48869600Y-109956700D02*
X48869600Y-107340400D01*
X49199800Y-110286900D02*
X48869600Y-109956700D01*
X42773600Y-97180400D02*
X42773600Y-96164400D01*
X40843443Y-95889998D02*
X35850000Y-90896555D01*
X42499198Y-95889998D02*
X40843443Y-95889998D01*
X35850000Y-81586000D02*
X35850000Y-88086000D01*
X42773600Y-96164400D02*
X42499198Y-95889998D01*
X35850000Y-90896555D02*
X35850000Y-88086000D01*
X53578216Y-95691416D02*
X49717416Y-95691416D01*
X49717416Y-95691416D02*
X48506000Y-94480000D01*
X49621000Y-81586000D02*
X49621000Y-88086000D01*
X53594000Y-95707200D02*
X53578216Y-95691416D01*
X48506000Y-89201000D02*
X49621000Y-88086000D01*
X48506000Y-94480000D02*
X48506000Y-89201000D01*
X53410691Y-104718691D02*
X54649782Y-103479600D01*
X54649782Y-103479600D02*
X61339400Y-103479600D01*
X60400000Y-88086000D02*
X58892000Y-88086000D01*
X61339400Y-103479600D02*
X61441000Y-103378000D01*
X64740500Y-103378000D02*
X64363600Y-103001100D01*
X64363600Y-92049600D02*
X60400000Y-88086000D01*
X64363600Y-103001100D02*
X64363600Y-92049600D01*
X58892000Y-81586000D02*
X58892000Y-88086000D01*
G04 #@! TA.AperFunction,Conductor*
G36*
X62988885Y-105419500D02*
G01*
X63026485Y-105463523D01*
X63040000Y-105519818D01*
X63040000Y-107337091D01*
X63030560Y-107384545D01*
X63003679Y-107424775D01*
X62987303Y-107441150D01*
X62936302Y-107471917D01*
X62876839Y-107475354D01*
X62798443Y-107460700D01*
X62575957Y-107460700D01*
X62357259Y-107501582D01*
X62357260Y-107501582D01*
X62149795Y-107581954D01*
X61960637Y-107699075D01*
X61796219Y-107848962D01*
X61662141Y-108026511D01*
X61562969Y-108225673D01*
X61502085Y-108439662D01*
X61481557Y-108661199D01*
X61502085Y-108882737D01*
X61562969Y-109096726D01*
X61667263Y-109306174D01*
X61666857Y-109306375D01*
X61684629Y-109345735D01*
X61683469Y-109400486D01*
X61658839Y-109449398D01*
X61615542Y-109482931D01*
X61537264Y-109519432D01*
X61350859Y-109649953D01*
X61189953Y-109810859D01*
X61059429Y-109997268D01*
X61052104Y-110012978D01*
X61006347Y-110065152D01*
X60939722Y-110084570D01*
X60873098Y-110065150D01*
X60827342Y-110012975D01*
X60820133Y-109997515D01*
X60769025Y-109924526D01*
X60043553Y-110649998D01*
X60043553Y-110649999D01*
X60769025Y-111375472D01*
X60820131Y-111302484D01*
X60827340Y-111287026D01*
X60873097Y-111234849D01*
X60939722Y-111215428D01*
X61006348Y-111234847D01*
X61052105Y-111287022D01*
X61054369Y-111291877D01*
X61059432Y-111302735D01*
X61189953Y-111489140D01*
X61350859Y-111650046D01*
X61537264Y-111780567D01*
X61537265Y-111780567D01*
X61537266Y-111780568D01*
X61743504Y-111876739D01*
X61963308Y-111935635D01*
X62190000Y-111955468D01*
X62416692Y-111935635D01*
X62636496Y-111876739D01*
X62842734Y-111780568D01*
X63029139Y-111650047D01*
X63190047Y-111489139D01*
X63269637Y-111375472D01*
X63285108Y-111353377D01*
X63329426Y-111314511D01*
X63386683Y-111300500D01*
X63542392Y-111300500D01*
X63589845Y-111309939D01*
X63630073Y-111336819D01*
X63753181Y-111459927D01*
X63780061Y-111500155D01*
X63789500Y-111547608D01*
X63789500Y-112321110D01*
X63772023Y-112384584D01*
X63724518Y-112430164D01*
X63616490Y-112488626D01*
X63420259Y-112641359D01*
X63420256Y-112641361D01*
X63420256Y-112641362D01*
X63251836Y-112824315D01*
X63224348Y-112866389D01*
X63115825Y-113032495D01*
X63036693Y-113212900D01*
X63015937Y-113260219D01*
X62970927Y-113437959D01*
X62954891Y-113501283D01*
X62934356Y-113749100D01*
X62954891Y-113996916D01*
X62954891Y-113996919D01*
X62954892Y-113996921D01*
X63015937Y-114237981D01*
X63041443Y-114296129D01*
X63115825Y-114465704D01*
X63115827Y-114465707D01*
X63251836Y-114673885D01*
X63420256Y-114856838D01*
X63616491Y-115009574D01*
X63664241Y-115035415D01*
X63724518Y-115068036D01*
X63772023Y-115113616D01*
X63789500Y-115177090D01*
X63789500Y-118821110D01*
X63772023Y-118884584D01*
X63724518Y-118930164D01*
X63616494Y-118988624D01*
X63616492Y-118988625D01*
X63616491Y-118988626D01*
X63571103Y-119023952D01*
X63420252Y-119141364D01*
X63385581Y-119179027D01*
X63329733Y-119213889D01*
X63263912Y-119215250D01*
X63206671Y-119182725D01*
X60776834Y-116752888D01*
X60763491Y-116736233D01*
X60710566Y-116686534D01*
X60707769Y-116683823D01*
X60687434Y-116663488D01*
X60683947Y-116660783D01*
X60675071Y-116653201D01*
X60641794Y-116621952D01*
X60623193Y-116611726D01*
X60606932Y-116601045D01*
X60592760Y-116590052D01*
X60590164Y-116588038D01*
X60589891Y-116587920D01*
X60548269Y-116569908D01*
X60537779Y-116564769D01*
X60497767Y-116542772D01*
X60477200Y-116537491D01*
X60458798Y-116531191D01*
X60439324Y-116522764D01*
X60394237Y-116515623D01*
X60382798Y-116513254D01*
X60338578Y-116501900D01*
X60338577Y-116501900D01*
X60317355Y-116501900D01*
X60297956Y-116500373D01*
X60276996Y-116497053D01*
X60276995Y-116497053D01*
X60254958Y-116499136D01*
X60231539Y-116501350D01*
X60219870Y-116501900D01*
X58484484Y-116501900D01*
X58427227Y-116487889D01*
X58382909Y-116449023D01*
X58287847Y-116313259D01*
X58126941Y-116152353D01*
X57991178Y-116057292D01*
X57952312Y-116012974D01*
X57938301Y-115955717D01*
X57938301Y-115281221D01*
X57952312Y-115223964D01*
X57991178Y-115179646D01*
X58093965Y-115107674D01*
X58119139Y-115090047D01*
X58236476Y-114972710D01*
X59069942Y-114972710D01*
X59116766Y-115009155D01*
X59335393Y-115127468D01*
X59570506Y-115208183D01*
X59815707Y-115249100D01*
X60064293Y-115249100D01*
X60309493Y-115208183D01*
X60544606Y-115127468D01*
X60763233Y-115009153D01*
X60810056Y-114972709D01*
X59940000Y-114102653D01*
X59069942Y-114972709D01*
X59069942Y-114972710D01*
X58236476Y-114972710D01*
X58280047Y-114929139D01*
X58410568Y-114742734D01*
X58477449Y-114599307D01*
X58519525Y-114549571D01*
X58581010Y-114528028D01*
X58644929Y-114540628D01*
X58693639Y-114583892D01*
X58716564Y-114618982D01*
X59586447Y-113749101D01*
X60293553Y-113749101D01*
X61163434Y-114618982D01*
X61263730Y-114465469D01*
X61363586Y-114237821D01*
X61424613Y-113996832D01*
X61445141Y-113749100D01*
X61424613Y-113501367D01*
X61363586Y-113260378D01*
X61263730Y-113032730D01*
X61163434Y-112879216D01*
X60293553Y-113749100D01*
X60293553Y-113749101D01*
X59586447Y-113749101D01*
X59586447Y-113749100D01*
X58716564Y-112879216D01*
X58616266Y-113032734D01*
X58516549Y-113260069D01*
X58475855Y-113310594D01*
X58415217Y-113333655D01*
X58351233Y-113322940D01*
X58301417Y-113281381D01*
X58280045Y-113250858D01*
X58119140Y-113089953D01*
X57932735Y-112959432D01*
X57726497Y-112863261D01*
X57506689Y-112804364D01*
X57280000Y-112784531D01*
X57053310Y-112804364D01*
X56833502Y-112863261D01*
X56627264Y-112959432D01*
X56440859Y-113089953D01*
X56279953Y-113250859D01*
X56149432Y-113437264D01*
X56053261Y-113643502D01*
X55994364Y-113863310D01*
X55974531Y-114090000D01*
X55994364Y-114316689D01*
X56053261Y-114536497D01*
X56149432Y-114742735D01*
X56279953Y-114929140D01*
X56440860Y-115090047D01*
X56584424Y-115190571D01*
X56623290Y-115234889D01*
X56637301Y-115292146D01*
X56637301Y-115955717D01*
X56623290Y-116012974D01*
X56584424Y-116057292D01*
X56448660Y-116152353D01*
X56287754Y-116313259D01*
X56157233Y-116499664D01*
X56061062Y-116705902D01*
X56002165Y-116925710D01*
X55982332Y-117152399D01*
X56002165Y-117379089D01*
X56061062Y-117598897D01*
X56157233Y-117805135D01*
X56287754Y-117991540D01*
X56448660Y-118152446D01*
X56635065Y-118282967D01*
X56635066Y-118282967D01*
X56635067Y-118282968D01*
X56841305Y-118379139D01*
X57061109Y-118438035D01*
X57287801Y-118457868D01*
X57514493Y-118438035D01*
X57734297Y-118379139D01*
X57940535Y-118282968D01*
X58126940Y-118152447D01*
X58287848Y-117991539D01*
X58382908Y-117855777D01*
X58427227Y-117816911D01*
X58484484Y-117802900D01*
X59935592Y-117802900D01*
X59983045Y-117812339D01*
X60023273Y-117839219D01*
X62403181Y-120219127D01*
X62430061Y-120259355D01*
X62439500Y-120306808D01*
X62439500Y-122588633D01*
X62427882Y-122641038D01*
X62395206Y-122683622D01*
X62347594Y-122708408D01*
X62189902Y-122750661D01*
X61983664Y-122846832D01*
X61797259Y-122977353D01*
X61636353Y-123138259D01*
X61505832Y-123324664D01*
X61409661Y-123530902D01*
X61350764Y-123750710D01*
X61330931Y-123977400D01*
X61350764Y-124204089D01*
X61409661Y-124423897D01*
X61505832Y-124630135D01*
X61636353Y-124816540D01*
X61797259Y-124977446D01*
X61983664Y-125107967D01*
X61983665Y-125107967D01*
X61983666Y-125107968D01*
X62189904Y-125204139D01*
X62409708Y-125263035D01*
X62636400Y-125282868D01*
X62863092Y-125263035D01*
X63082896Y-125204139D01*
X63289134Y-125107968D01*
X63475539Y-124977447D01*
X63636447Y-124816539D01*
X63766968Y-124630134D01*
X63863139Y-124423896D01*
X63864344Y-124419396D01*
X63896438Y-124363807D01*
X64548718Y-123711527D01*
X64604305Y-123679433D01*
X64668493Y-123679433D01*
X64724080Y-123711527D01*
X64902271Y-123889718D01*
X64934365Y-123945305D01*
X64934365Y-124009493D01*
X64902271Y-124065080D01*
X63910926Y-125056425D01*
X63910926Y-125056426D01*
X63983915Y-125107533D01*
X64190073Y-125203666D01*
X64409797Y-125262541D01*
X64636400Y-125282366D01*
X64863004Y-125262541D01*
X64983407Y-125230280D01*
X65039691Y-125228438D01*
X65090986Y-125251679D01*
X65126712Y-125295211D01*
X65139500Y-125350055D01*
X65139500Y-126733500D01*
X65122887Y-126795500D01*
X65077500Y-126840887D01*
X65015500Y-126857500D01*
X60243006Y-126857500D01*
X60181887Y-126841391D01*
X60136648Y-126797249D01*
X60119043Y-126736543D01*
X60133648Y-126675047D01*
X60161614Y-126622727D01*
X60218824Y-126434132D01*
X60238141Y-126238000D01*
X60218824Y-126041868D01*
X60165709Y-125866775D01*
X60162800Y-125806353D01*
X60188826Y-125751742D01*
X60189634Y-125750765D01*
X60189637Y-125750763D01*
X60218746Y-125715575D01*
X60226590Y-125706954D01*
X60655313Y-125278231D01*
X60671962Y-125264894D01*
X60673736Y-125263004D01*
X60673740Y-125263002D01*
X60721698Y-125211930D01*
X60724346Y-125209198D01*
X60744711Y-125188835D01*
X60747411Y-125185352D01*
X60754987Y-125176481D01*
X60786248Y-125143193D01*
X60796475Y-125124587D01*
X60807148Y-125108339D01*
X60820162Y-125091564D01*
X60838291Y-125049668D01*
X60843431Y-125039177D01*
X60858042Y-125012600D01*
X60865427Y-124999168D01*
X60870706Y-124978605D01*
X60877004Y-124960206D01*
X60885435Y-124940726D01*
X60892577Y-124895624D01*
X60894945Y-124884197D01*
X60906300Y-124839978D01*
X60906300Y-124818755D01*
X60907827Y-124799356D01*
X60908136Y-124797402D01*
X60911147Y-124778395D01*
X60906850Y-124732939D01*
X60906300Y-124721270D01*
X60906300Y-122596705D01*
X60908641Y-122575495D01*
X60908288Y-122564269D01*
X60906360Y-122502937D01*
X60906300Y-122499043D01*
X60906300Y-122470281D01*
X60906300Y-122470275D01*
X60905746Y-122465895D01*
X60904830Y-122454254D01*
X60903397Y-122408631D01*
X60897475Y-122388248D01*
X60893532Y-122369211D01*
X60890871Y-122348142D01*
X60874063Y-122305691D01*
X60870280Y-122294642D01*
X60857544Y-122250802D01*
X60846737Y-122232529D01*
X60838182Y-122215066D01*
X60830368Y-122195329D01*
X60803533Y-122158393D01*
X60797125Y-122148636D01*
X60773884Y-122109338D01*
X60766695Y-122102149D01*
X60758868Y-122094322D01*
X60746235Y-122079530D01*
X60733763Y-122062363D01*
X60698579Y-122033256D01*
X60689940Y-122025394D01*
X60497030Y-121832484D01*
X60465506Y-121778952D01*
X60463903Y-121716847D01*
X60492625Y-121661760D01*
X60535983Y-121633117D01*
X60535572Y-121632358D01*
X60544208Y-121627684D01*
X60544460Y-121627518D01*
X60544611Y-121627465D01*
X60763233Y-121509153D01*
X60810056Y-121472709D01*
X59586448Y-120249101D01*
X60293553Y-120249101D01*
X61163434Y-121118982D01*
X61263730Y-120965469D01*
X61363586Y-120737821D01*
X61424613Y-120496832D01*
X61445141Y-120249100D01*
X61424613Y-120001367D01*
X61363586Y-119760378D01*
X61263730Y-119532730D01*
X61163434Y-119379216D01*
X60293553Y-120249100D01*
X60293553Y-120249101D01*
X59586448Y-120249101D01*
X58763812Y-119426465D01*
X58740493Y-119394055D01*
X58683060Y-119278713D01*
X58548980Y-119101162D01*
X58465972Y-119025490D01*
X59069942Y-119025490D01*
X59940000Y-119895547D01*
X59940001Y-119895547D01*
X60810057Y-119025490D01*
X60810056Y-119025488D01*
X60763235Y-118989047D01*
X60544606Y-118870731D01*
X60309493Y-118790016D01*
X60064293Y-118749100D01*
X59815707Y-118749100D01*
X59570506Y-118790016D01*
X59335393Y-118870731D01*
X59116764Y-118989046D01*
X59069942Y-119025488D01*
X59069942Y-119025490D01*
X58465972Y-119025490D01*
X58384562Y-118951275D01*
X58195404Y-118834154D01*
X58134174Y-118810433D01*
X57987940Y-118753782D01*
X57769243Y-118712900D01*
X57546757Y-118712900D01*
X57353106Y-118749100D01*
X57328060Y-118753782D01*
X57120595Y-118834154D01*
X56931437Y-118951275D01*
X56767019Y-119101162D01*
X56632941Y-119278711D01*
X56533769Y-119477873D01*
X56472885Y-119691862D01*
X56452357Y-119913400D01*
X56472885Y-120134937D01*
X56533769Y-120348926D01*
X56632941Y-120548088D01*
X56767019Y-120725637D01*
X56931437Y-120875524D01*
X57120595Y-120992645D01*
X57120597Y-120992645D01*
X57120599Y-120992647D01*
X57328060Y-121073018D01*
X57546757Y-121113900D01*
X57769243Y-121113900D01*
X57769246Y-121113900D01*
X57847639Y-121099245D01*
X57907104Y-121102682D01*
X57958106Y-121133452D01*
X59446481Y-122621827D01*
X59473361Y-122662055D01*
X59482800Y-122709508D01*
X59482800Y-123824000D01*
X59466187Y-123886000D01*
X59420800Y-123931387D01*
X59358800Y-123948000D01*
X58263640Y-123948000D01*
X58263639Y-123948001D01*
X58304449Y-124082534D01*
X58403064Y-124267030D01*
X58402110Y-124267539D01*
X58420312Y-124304445D01*
X58420314Y-124360760D01*
X58401826Y-124398252D01*
X58402647Y-124398691D01*
X58303985Y-124583274D01*
X58292506Y-124621116D01*
X58255271Y-124678640D01*
X58193170Y-124707605D01*
X58125168Y-124699166D01*
X58072032Y-124655900D01*
X58049986Y-124591022D01*
X58044254Y-124470670D01*
X57994704Y-124266424D01*
X57990454Y-124257117D01*
X57907397Y-124075247D01*
X57818401Y-123950270D01*
X57797292Y-123899875D01*
X57799892Y-123845299D01*
X57825696Y-123797139D01*
X57850111Y-123768963D01*
X57955146Y-123587035D01*
X58003643Y-123446912D01*
X58262833Y-123446912D01*
X58263640Y-123448000D01*
X58982800Y-123448000D01*
X58982800Y-122728840D01*
X58982798Y-122728839D01*
X58848265Y-122769649D01*
X58674542Y-122862506D01*
X58522272Y-122987472D01*
X58397306Y-123139742D01*
X58304449Y-123313465D01*
X58265111Y-123443144D01*
X58262833Y-123446912D01*
X58003643Y-123446912D01*
X58013864Y-123417382D01*
X58024932Y-123400913D01*
X58023714Y-123389497D01*
X58025367Y-123378000D01*
X54578742Y-123378000D01*
X54605770Y-123489410D01*
X54693038Y-123680502D01*
X54781637Y-123804920D01*
X54802746Y-123855314D01*
X54800147Y-123909889D01*
X54774344Y-123958049D01*
X54749481Y-123986742D01*
X54644396Y-124168754D01*
X54575655Y-124367366D01*
X54553237Y-124523294D01*
X54545746Y-124575398D01*
X54547221Y-124606355D01*
X54555746Y-124785330D01*
X54605297Y-124989580D01*
X54692602Y-125180752D01*
X54781300Y-125305310D01*
X54802409Y-125355704D01*
X54799810Y-125410279D01*
X54774007Y-125458438D01*
X54749481Y-125486742D01*
X54644396Y-125668754D01*
X54575655Y-125867366D01*
X54549898Y-126046517D01*
X54545746Y-126075398D01*
X54555745Y-126285329D01*
X54555746Y-126285330D01*
X54605297Y-126489580D01*
X54692602Y-126680752D01*
X54781300Y-126805310D01*
X54802409Y-126855704D01*
X54799810Y-126910279D01*
X54774007Y-126958438D01*
X54749481Y-126986742D01*
X54644396Y-127168754D01*
X54575655Y-127367366D01*
X54547064Y-127566230D01*
X54545746Y-127575398D01*
X54555746Y-127785330D01*
X54604419Y-127985963D01*
X54605297Y-127989580D01*
X54692602Y-128180752D01*
X54781300Y-128305310D01*
X54802409Y-128355704D01*
X54799810Y-128410279D01*
X54774007Y-128458438D01*
X54749481Y-128486742D01*
X54644396Y-128668754D01*
X54575655Y-128867366D01*
X54545746Y-129075396D01*
X54555768Y-129285796D01*
X54546949Y-129337972D01*
X54517181Y-129381721D01*
X54471884Y-129409075D01*
X54419307Y-129415054D01*
X54333610Y-129406300D01*
X53533591Y-129406300D01*
X53430803Y-129416800D01*
X53264265Y-129471986D01*
X53114942Y-129564088D01*
X53021281Y-129657750D01*
X52965694Y-129689844D01*
X52901506Y-129689844D01*
X52845919Y-129657750D01*
X52752257Y-129564088D01*
X52693004Y-129527541D01*
X52649823Y-129482434D01*
X52634100Y-129422002D01*
X52634100Y-123840521D01*
X52634326Y-123833034D01*
X52634872Y-123824000D01*
X52637958Y-123772994D01*
X52627107Y-123713785D01*
X52625990Y-123706440D01*
X52618740Y-123646728D01*
X52615146Y-123637251D01*
X52609121Y-123615634D01*
X52607295Y-123605668D01*
X52584670Y-123555398D01*
X52582609Y-123550818D01*
X52579751Y-123543922D01*
X52558418Y-123487670D01*
X52552661Y-123479330D01*
X52541635Y-123459781D01*
X52537477Y-123450541D01*
X52500385Y-123403197D01*
X52495955Y-123397177D01*
X52461783Y-123347671D01*
X52416753Y-123307778D01*
X52411315Y-123302658D01*
X51986656Y-122877999D01*
X54574631Y-122877999D01*
X54574632Y-122878000D01*
X56050000Y-122878000D01*
X56050000Y-122028000D01*
X56550000Y-122028000D01*
X56550000Y-122878000D01*
X58021257Y-122878000D01*
X57994229Y-122766589D01*
X57906960Y-122575494D01*
X57785107Y-122404378D01*
X57633066Y-122259407D01*
X57456344Y-122145833D01*
X57261314Y-122067755D01*
X57055038Y-122028000D01*
X56550000Y-122028000D01*
X56050000Y-122028000D01*
X55597601Y-122028000D01*
X55440874Y-122042965D01*
X55239312Y-122102149D01*
X55052587Y-122198412D01*
X54887461Y-122328269D01*
X54749888Y-122487036D01*
X54644853Y-122668963D01*
X54576143Y-122867488D01*
X54574631Y-122877999D01*
X51986656Y-122877999D01*
X50559203Y-121450546D01*
X50527109Y-121394959D01*
X50527109Y-121355626D01*
X51493126Y-121355626D01*
X51566115Y-121406733D01*
X51772273Y-121502866D01*
X51991997Y-121561741D01*
X52218600Y-121581566D01*
X52445202Y-121561741D01*
X52664926Y-121502866D01*
X52871080Y-121406734D01*
X52944072Y-121355625D01*
X52218601Y-120630153D01*
X52218600Y-120630153D01*
X51493126Y-121355625D01*
X51493126Y-121355626D01*
X50527109Y-121355626D01*
X50527109Y-121330771D01*
X50559203Y-121275184D01*
X50718646Y-121115740D01*
X50718647Y-121115739D01*
X50849168Y-120929334D01*
X50856493Y-120913623D01*
X50902247Y-120861449D01*
X50968873Y-120842028D01*
X51035499Y-120861447D01*
X51081257Y-120913623D01*
X51088466Y-120929083D01*
X51139572Y-121002071D01*
X51139574Y-121002072D01*
X51865046Y-120276601D01*
X51865046Y-120276600D01*
X51865045Y-120276599D01*
X52572153Y-120276599D01*
X53297625Y-121002072D01*
X53348734Y-120929080D01*
X53444866Y-120722926D01*
X53503741Y-120503202D01*
X53523566Y-120276600D01*
X53503741Y-120049997D01*
X53444866Y-119830273D01*
X53348733Y-119624115D01*
X53297625Y-119551126D01*
X52572153Y-120276598D01*
X52572153Y-120276599D01*
X51865045Y-120276599D01*
X51139573Y-119551126D01*
X51139573Y-119551127D01*
X51088465Y-119624117D01*
X51081256Y-119639577D01*
X51035499Y-119691751D01*
X50968874Y-119711170D01*
X50902249Y-119691750D01*
X50856493Y-119639575D01*
X50852094Y-119630142D01*
X50849168Y-119623866D01*
X50808458Y-119565726D01*
X50718646Y-119437459D01*
X50557740Y-119276553D01*
X50471977Y-119216502D01*
X50455377Y-119197573D01*
X51493126Y-119197573D01*
X52218600Y-119923046D01*
X52218601Y-119923046D01*
X52944072Y-119197574D01*
X52944071Y-119197572D01*
X52871084Y-119146466D01*
X52664926Y-119050333D01*
X52445202Y-118991458D01*
X52218600Y-118971633D01*
X51991997Y-118991458D01*
X51772272Y-119050333D01*
X51566116Y-119146465D01*
X51493127Y-119197573D01*
X51493126Y-119197573D01*
X50455377Y-119197573D01*
X50433111Y-119172184D01*
X50419100Y-119114927D01*
X50419100Y-117892719D01*
X50428539Y-117845266D01*
X50455419Y-117805038D01*
X54387233Y-113873224D01*
X55734966Y-112525490D01*
X59069942Y-112525490D01*
X59940000Y-113395547D01*
X59940001Y-113395547D01*
X60810057Y-112525490D01*
X60810056Y-112525488D01*
X60763235Y-112489047D01*
X60544606Y-112370731D01*
X60309493Y-112290016D01*
X60064293Y-112249100D01*
X59815707Y-112249100D01*
X59570506Y-112290016D01*
X59335393Y-112370731D01*
X59116764Y-112489046D01*
X59069942Y-112525488D01*
X59069942Y-112525490D01*
X55734966Y-112525490D01*
X56531430Y-111729026D01*
X58964526Y-111729026D01*
X59037515Y-111780133D01*
X59243673Y-111876266D01*
X59463397Y-111935141D01*
X59690000Y-111954966D01*
X59916602Y-111935141D01*
X60136326Y-111876266D01*
X60342480Y-111780134D01*
X60415472Y-111729025D01*
X59690001Y-111003553D01*
X59690000Y-111003553D01*
X58964526Y-111729025D01*
X58964526Y-111729026D01*
X56531430Y-111729026D01*
X58322038Y-109938417D01*
X58381825Y-109905277D01*
X58450089Y-109908855D01*
X58506085Y-109948063D01*
X58532795Y-110010987D01*
X58522101Y-110078504D01*
X58463733Y-110203673D01*
X58404858Y-110423397D01*
X58385033Y-110650000D01*
X58404858Y-110876602D01*
X58463733Y-111096326D01*
X58559866Y-111302484D01*
X58610972Y-111375471D01*
X58610973Y-111375472D01*
X59690000Y-110296447D01*
X60415472Y-109570974D01*
X60415471Y-109570972D01*
X60342484Y-109519866D01*
X60136326Y-109423733D01*
X59916602Y-109364858D01*
X59690000Y-109345033D01*
X59463397Y-109364858D01*
X59243673Y-109423733D01*
X59118504Y-109482101D01*
X59050987Y-109492795D01*
X58988063Y-109466085D01*
X58948855Y-109410089D01*
X58945277Y-109341825D01*
X58978418Y-109282038D01*
X62828319Y-105432137D01*
X62877682Y-105401887D01*
X62935398Y-105397345D01*
X62988885Y-105419500D01*
G37*
G04 #@! TD.AperFunction*
G04 #@! TA.AperFunction,Conductor*
G36*
X46023385Y-117866911D02*
G01*
X46067703Y-117905777D01*
X46127754Y-117991540D01*
X46288660Y-118152446D01*
X46475065Y-118282967D01*
X46475066Y-118282967D01*
X46475067Y-118282968D01*
X46681305Y-118379139D01*
X46750178Y-118397593D01*
X46800676Y-118424876D01*
X46833479Y-118471979D01*
X46841555Y-118528807D01*
X46834625Y-118603601D01*
X46855153Y-118825139D01*
X46916037Y-119039128D01*
X47015209Y-119238290D01*
X47149287Y-119415839D01*
X47313705Y-119565726D01*
X47408008Y-119624115D01*
X47502867Y-119682849D01*
X47682696Y-119752515D01*
X47724221Y-119779120D01*
X47752092Y-119819808D01*
X47761900Y-119868141D01*
X47761900Y-120887992D01*
X47752461Y-120935445D01*
X47725581Y-120975673D01*
X46706073Y-121995181D01*
X46665845Y-122022061D01*
X46618392Y-122031500D01*
X45137369Y-122031500D01*
X45079346Y-122017087D01*
X45034811Y-121977198D01*
X45014118Y-121921107D01*
X45022077Y-121861853D01*
X45056835Y-121813211D01*
X45178824Y-121709024D01*
X45342436Y-121517459D01*
X45474066Y-121302659D01*
X45570473Y-121069911D01*
X45629283Y-120824948D01*
X45649049Y-120573800D01*
X45629283Y-120322652D01*
X45570473Y-120077689D01*
X45474066Y-119844941D01*
X45342436Y-119630141D01*
X45178824Y-119438576D01*
X44987259Y-119274964D01*
X44772459Y-119143334D01*
X44643699Y-119090000D01*
X44539710Y-119046926D01*
X44294749Y-118988117D01*
X44043600Y-118968351D01*
X43792450Y-118988117D01*
X43547489Y-119046926D01*
X43314739Y-119143335D01*
X43099942Y-119274963D01*
X42908376Y-119438576D01*
X42744763Y-119630142D01*
X42613135Y-119844939D01*
X42516726Y-120077689D01*
X42462624Y-120303047D01*
X42438416Y-120352136D01*
X42395433Y-120386021D01*
X42342050Y-120398100D01*
X39446649Y-120398100D01*
X39382321Y-120380109D01*
X39336660Y-120331357D01*
X39322915Y-120265990D01*
X39345072Y-120202978D01*
X39357568Y-120185134D01*
X39453739Y-119978896D01*
X39512635Y-119759092D01*
X39517317Y-119705565D01*
X39528462Y-119663969D01*
X39553161Y-119628694D01*
X41292637Y-117889219D01*
X41332866Y-117862339D01*
X41380319Y-117852900D01*
X45966128Y-117852900D01*
X46023385Y-117866911D01*
G37*
G04 #@! TD.AperFunction*
G04 #@! TA.AperFunction,Conductor*
G36*
X42893928Y-121706764D02*
G01*
X42931541Y-121728810D01*
X43030361Y-121813210D01*
X43065122Y-121861852D01*
X43073081Y-121921107D01*
X43052388Y-121977198D01*
X43007853Y-122017087D01*
X42949830Y-122031500D01*
X39938311Y-122031500D01*
X39890858Y-122022061D01*
X39850630Y-121995181D01*
X39766230Y-121910781D01*
X39735980Y-121861418D01*
X39731438Y-121803702D01*
X39753593Y-121750215D01*
X39797616Y-121712615D01*
X39853911Y-121699100D01*
X42851010Y-121699100D01*
X42893928Y-121706764D01*
G37*
G04 #@! TD.AperFunction*
G04 #@! TA.AperFunction,Conductor*
G36*
X66079407Y-42612637D02*
G01*
X66124931Y-42658039D01*
X66141600Y-42720136D01*
X66141600Y-64940104D01*
X66124507Y-65002929D01*
X66077939Y-65048433D01*
X66014736Y-65064071D01*
X65952323Y-65045531D01*
X65815403Y-64960754D01*
X65815401Y-64960753D01*
X65607940Y-64880382D01*
X65389243Y-64839500D01*
X65166757Y-64839500D01*
X64948059Y-64880382D01*
X64948060Y-64880382D01*
X64740593Y-64960755D01*
X64717183Y-64975250D01*
X64654240Y-64993800D01*
X64590643Y-64977630D01*
X64544204Y-64931269D01*
X64527926Y-64867700D01*
X64546367Y-64804728D01*
X64634814Y-64661334D01*
X64689999Y-64494797D01*
X64700500Y-64392009D01*
X64700499Y-63591992D01*
X64699360Y-63580846D01*
X64689999Y-63489203D01*
X64672526Y-63436473D01*
X64634814Y-63322666D01*
X64579349Y-63232743D01*
X64542713Y-63173345D01*
X64542710Y-63173342D01*
X64449047Y-63079679D01*
X64416955Y-63024094D01*
X64416955Y-62959906D01*
X64449047Y-62904320D01*
X64542712Y-62810656D01*
X64634814Y-62661334D01*
X64689999Y-62494797D01*
X64700500Y-62392009D01*
X64700499Y-61591992D01*
X64689999Y-61489203D01*
X64634814Y-61322666D01*
X64555086Y-61193405D01*
X64542711Y-61173342D01*
X64418657Y-61049288D01*
X64269334Y-60957186D01*
X64102797Y-60902000D01*
X64000009Y-60891500D01*
X63370808Y-60891500D01*
X63323355Y-60882061D01*
X63283127Y-60855181D01*
X61926393Y-59498447D01*
X61901692Y-59463170D01*
X61890546Y-59421572D01*
X61875063Y-59244593D01*
X61856741Y-59176214D01*
X61813903Y-59016337D01*
X61714035Y-58802171D01*
X61578495Y-58608599D01*
X61411401Y-58441505D01*
X61217830Y-58305965D01*
X61003663Y-58206097D01*
X60886972Y-58174830D01*
X60775407Y-58144936D01*
X60540000Y-58124340D01*
X60304592Y-58144936D01*
X60076336Y-58206097D01*
X59862170Y-58305965D01*
X59668601Y-58441503D01*
X59537250Y-58572853D01*
X59490781Y-58602122D01*
X59436228Y-58608451D01*
X59384292Y-58590598D01*
X59294904Y-58535251D01*
X59163655Y-58484405D01*
X59087440Y-58454879D01*
X58868743Y-58413997D01*
X58646257Y-58413997D01*
X58505282Y-58440349D01*
X58451330Y-58438479D01*
X58403283Y-58413859D01*
X58370253Y-58371154D01*
X58358500Y-58318461D01*
X58358500Y-57702921D01*
X58358726Y-57695434D01*
X58358941Y-57691887D01*
X58362358Y-57635394D01*
X58351507Y-57576185D01*
X58350390Y-57568840D01*
X58343140Y-57509128D01*
X58339546Y-57499651D01*
X58333521Y-57478034D01*
X58331695Y-57468068D01*
X58307009Y-57413218D01*
X58304151Y-57406322D01*
X58282818Y-57350070D01*
X58277061Y-57341730D01*
X58266035Y-57322181D01*
X58261877Y-57312941D01*
X58224785Y-57265597D01*
X58220355Y-57259577D01*
X58186183Y-57210071D01*
X58141153Y-57170178D01*
X58135715Y-57165058D01*
X57181028Y-56210371D01*
X57152187Y-56165100D01*
X57145181Y-56111882D01*
X57165468Y-55879999D01*
X57158857Y-55804436D01*
X57145635Y-55653308D01*
X57086739Y-55433504D01*
X57023272Y-55297399D01*
X59511337Y-55297399D01*
X59530613Y-55542325D01*
X59587965Y-55781216D01*
X59628884Y-55880001D01*
X59681984Y-56008196D01*
X59810352Y-56217674D01*
X59969909Y-56404491D01*
X60156726Y-56564048D01*
X60366204Y-56692416D01*
X60516895Y-56754834D01*
X60593183Y-56786434D01*
X60668655Y-56804553D01*
X60832076Y-56843787D01*
X61077000Y-56863063D01*
X61321924Y-56843787D01*
X61560816Y-56786434D01*
X61787796Y-56692416D01*
X61997274Y-56564048D01*
X62184091Y-56404491D01*
X62343648Y-56217674D01*
X62472016Y-56008196D01*
X62566034Y-55781216D01*
X62623387Y-55542324D01*
X62642663Y-55297400D01*
X62623387Y-55052476D01*
X62566034Y-54813584D01*
X62560810Y-54800973D01*
X62539461Y-54749432D01*
X62472016Y-54586604D01*
X62343648Y-54377126D01*
X62184091Y-54190309D01*
X61997274Y-54030752D01*
X61787796Y-53902384D01*
X61703950Y-53867654D01*
X61560816Y-53808365D01*
X61321925Y-53751013D01*
X61077000Y-53731737D01*
X60832074Y-53751013D01*
X60593183Y-53808365D01*
X60366202Y-53902385D01*
X60156727Y-54030751D01*
X59969909Y-54190309D01*
X59810351Y-54377127D01*
X59681985Y-54586602D01*
X59681984Y-54586604D01*
X59678770Y-54594364D01*
X59587965Y-54813583D01*
X59530613Y-55052474D01*
X59511337Y-55297399D01*
X57023272Y-55297399D01*
X56990568Y-55227266D01*
X56967984Y-55195013D01*
X56860046Y-55040859D01*
X56699140Y-54879953D01*
X56512735Y-54749432D01*
X56306497Y-54653261D01*
X56086689Y-54594364D01*
X55860000Y-54574531D01*
X55633310Y-54594364D01*
X55413502Y-54653261D01*
X55207264Y-54749432D01*
X55020859Y-54879953D01*
X54859953Y-55040859D01*
X54729429Y-55227268D01*
X54722104Y-55242978D01*
X54676347Y-55295152D01*
X54609722Y-55314570D01*
X54543098Y-55295150D01*
X54497342Y-55242975D01*
X54490133Y-55227515D01*
X54439025Y-55154526D01*
X53713553Y-55880000D01*
X53713553Y-55880001D01*
X54439025Y-56605472D01*
X54490131Y-56532484D01*
X54497340Y-56517026D01*
X54543097Y-56464849D01*
X54609722Y-56445428D01*
X54676348Y-56464847D01*
X54722106Y-56517023D01*
X54729432Y-56532735D01*
X54859953Y-56719140D01*
X55020859Y-56880046D01*
X55207264Y-57010567D01*
X55207265Y-57010567D01*
X55207266Y-57010568D01*
X55413504Y-57106739D01*
X55633308Y-57165635D01*
X55784436Y-57178857D01*
X55859999Y-57185468D01*
X55859999Y-57185467D01*
X55860000Y-57185468D01*
X55991641Y-57173950D01*
X56091882Y-57165181D01*
X56145100Y-57172187D01*
X56190371Y-57201028D01*
X56921181Y-57931838D01*
X56948061Y-57972066D01*
X56957500Y-58019519D01*
X56957500Y-58619900D01*
X56944500Y-58675172D01*
X56908227Y-58718854D01*
X56856285Y-58741789D01*
X56799566Y-58739166D01*
X56749962Y-58711537D01*
X56685062Y-58652372D01*
X56495904Y-58535251D01*
X56364655Y-58484405D01*
X56288440Y-58454879D01*
X56069743Y-58413997D01*
X55847257Y-58413997D01*
X55700115Y-58441503D01*
X55628560Y-58454879D01*
X55421095Y-58535251D01*
X55231937Y-58652372D01*
X55067519Y-58802259D01*
X54982591Y-58914724D01*
X54938909Y-58950997D01*
X54883637Y-58963997D01*
X54009008Y-58963997D01*
X53987798Y-58961655D01*
X53915241Y-58963936D01*
X53911346Y-58963997D01*
X53882574Y-58963997D01*
X53878193Y-58964550D01*
X53866562Y-58965465D01*
X53820931Y-58966899D01*
X53800555Y-58972819D01*
X53781509Y-58976764D01*
X53760442Y-58979425D01*
X53717990Y-58996233D01*
X53706942Y-59000016D01*
X53663103Y-59012753D01*
X53644833Y-59023558D01*
X53627365Y-59032115D01*
X53615966Y-59036629D01*
X53607629Y-59039930D01*
X53570694Y-59066763D01*
X53560938Y-59073172D01*
X53521638Y-59096415D01*
X53506628Y-59111425D01*
X53491839Y-59124055D01*
X53474667Y-59136531D01*
X53445560Y-59171715D01*
X53437699Y-59180353D01*
X51924484Y-60693568D01*
X51907831Y-60706910D01*
X51858133Y-60759833D01*
X51855427Y-60762626D01*
X51835083Y-60782971D01*
X51832376Y-60786460D01*
X51824807Y-60795321D01*
X51793551Y-60828607D01*
X51783322Y-60847212D01*
X51772645Y-60863467D01*
X51759636Y-60880238D01*
X51741506Y-60922132D01*
X51736370Y-60932616D01*
X51714372Y-60972632D01*
X51709091Y-60993199D01*
X51702791Y-61011600D01*
X51694364Y-61031074D01*
X51687223Y-61076161D01*
X51684855Y-61087593D01*
X51681144Y-61102053D01*
X51673500Y-61131824D01*
X51673500Y-61153045D01*
X51671973Y-61172444D01*
X51668653Y-61193403D01*
X51672950Y-61238861D01*
X51673500Y-61250530D01*
X51673500Y-67757045D01*
X51671973Y-67776444D01*
X51668653Y-67797403D01*
X51672950Y-67842861D01*
X51673500Y-67854530D01*
X51673500Y-74336495D01*
X51671158Y-74357704D01*
X51673439Y-74430262D01*
X51673500Y-74434157D01*
X51673500Y-74462926D01*
X51674053Y-74467307D01*
X51674968Y-74478940D01*
X51676402Y-74524569D01*
X51682323Y-74544950D01*
X51686267Y-74563995D01*
X51688928Y-74585059D01*
X51705737Y-74627515D01*
X51709520Y-74638563D01*
X51722256Y-74682400D01*
X51733061Y-74700670D01*
X51741621Y-74718143D01*
X51749431Y-74737869D01*
X51776267Y-74774808D01*
X51782673Y-74784560D01*
X51805919Y-74823865D01*
X51805921Y-74823867D01*
X51820925Y-74838871D01*
X51833564Y-74853669D01*
X51846037Y-74870837D01*
X51881212Y-74899936D01*
X51889854Y-74907800D01*
X53170148Y-76188094D01*
X53201671Y-76241623D01*
X53203276Y-76303724D01*
X53174560Y-76358810D01*
X53122731Y-76393056D01*
X53029499Y-76425063D01*
X53029497Y-76425063D01*
X53029497Y-76425064D01*
X52953015Y-76466454D01*
X52825372Y-76535531D01*
X52642214Y-76678088D01*
X52633485Y-76687571D01*
X52580861Y-76721424D01*
X52518407Y-76725271D01*
X52462026Y-76698133D01*
X52426075Y-76646919D01*
X52397352Y-76569911D01*
X52311188Y-76454811D01*
X52196089Y-76368647D01*
X52061375Y-76318402D01*
X52001824Y-76312000D01*
X51304000Y-76312000D01*
X51304000Y-79112000D01*
X51333905Y-79141905D01*
X51366594Y-79199804D01*
X51364675Y-79266265D01*
X51328699Y-79322181D01*
X51269010Y-79351474D01*
X51232064Y-79358380D01*
X51024595Y-79438754D01*
X50835437Y-79555875D01*
X50671019Y-79705762D01*
X50536941Y-79883311D01*
X50437770Y-80082473D01*
X50421052Y-80141230D01*
X50394631Y-80189488D01*
X50349933Y-80221566D01*
X50295757Y-80231148D01*
X50242768Y-80216349D01*
X50225810Y-80207172D01*
X50040728Y-80143633D01*
X49991830Y-80112528D01*
X49962407Y-80062599D01*
X49958887Y-80004753D01*
X49982035Y-79951627D01*
X50072458Y-79831889D01*
X50171629Y-79632728D01*
X50179425Y-79605330D01*
X50232515Y-79418737D01*
X50250508Y-79224559D01*
X50270612Y-79167507D01*
X50315315Y-79126755D01*
X50373979Y-79112000D01*
X50804000Y-79112000D01*
X50804000Y-77962000D01*
X49654000Y-77962000D01*
X49654000Y-77963743D01*
X49639694Y-78021564D01*
X49600077Y-78066043D01*
X49544290Y-78086917D01*
X49485207Y-78079370D01*
X49377340Y-78037582D01*
X49158643Y-77996700D01*
X48936157Y-77996700D01*
X48767451Y-78028237D01*
X48717460Y-78037582D01*
X48509995Y-78117954D01*
X48320837Y-78235075D01*
X48156419Y-78384962D01*
X48117454Y-78436562D01*
X48069632Y-78474802D01*
X48009342Y-78485496D01*
X47951285Y-78466038D01*
X47909618Y-78421170D01*
X47894500Y-78361835D01*
X47894500Y-78294287D01*
X47910171Y-78233948D01*
X47953223Y-78188860D01*
X47957033Y-78186500D01*
X47970562Y-78178124D01*
X48134981Y-78028236D01*
X48269058Y-77850689D01*
X48368229Y-77651528D01*
X48422154Y-77462000D01*
X49654000Y-77462000D01*
X50804000Y-77462000D01*
X50804000Y-76312000D01*
X50106176Y-76312000D01*
X50046624Y-76318402D01*
X49911910Y-76368647D01*
X49796811Y-76454811D01*
X49710647Y-76569910D01*
X49660402Y-76704624D01*
X49654000Y-76764176D01*
X49654000Y-77462000D01*
X48422154Y-77462000D01*
X48429115Y-77437536D01*
X48449643Y-77216000D01*
X48429115Y-76994464D01*
X48391098Y-76860847D01*
X48368230Y-76780473D01*
X48269058Y-76581311D01*
X48134980Y-76403762D01*
X47970562Y-76253875D01*
X47781404Y-76136754D01*
X47720174Y-76113033D01*
X47573940Y-76056382D01*
X47355243Y-76015500D01*
X47132757Y-76015500D01*
X46934527Y-76052556D01*
X46914060Y-76056382D01*
X46706595Y-76136754D01*
X46517437Y-76253875D01*
X46353019Y-76403762D01*
X46218940Y-76581312D01*
X46207978Y-76603327D01*
X46173615Y-76645535D01*
X46124486Y-76668962D01*
X46070059Y-76669093D01*
X46020819Y-76645905D01*
X45894426Y-76547530D01*
X45690303Y-76437064D01*
X45690299Y-76437062D01*
X45690298Y-76437062D01*
X45470784Y-76361702D01*
X45280256Y-76329909D01*
X45241849Y-76323500D01*
X45009751Y-76323500D01*
X44971344Y-76329909D01*
X44780815Y-76361702D01*
X44561301Y-76437062D01*
X44561297Y-76437063D01*
X44561297Y-76437064D01*
X44506989Y-76466454D01*
X44357172Y-76547531D01*
X44174015Y-76690087D01*
X44016818Y-76860850D01*
X43959309Y-76948874D01*
X43914518Y-76990107D01*
X43855500Y-77005052D01*
X43796483Y-76990106D01*
X43751692Y-76948873D01*
X43736986Y-76926364D01*
X42939353Y-77724000D01*
X43736986Y-78521634D01*
X43751692Y-78499126D01*
X43796483Y-78457892D01*
X43855501Y-78442947D01*
X43914518Y-78457892D01*
X43959308Y-78499123D01*
X44016821Y-78587153D01*
X44174016Y-78757913D01*
X44357174Y-78900470D01*
X44561297Y-79010936D01*
X44671058Y-79048617D01*
X44780815Y-79086297D01*
X44780817Y-79086297D01*
X44780819Y-79086298D01*
X45009751Y-79124500D01*
X45241848Y-79124500D01*
X45241849Y-79124500D01*
X45470781Y-79086298D01*
X45690303Y-79010936D01*
X45894426Y-78900470D01*
X46077584Y-78757913D01*
X46234779Y-78587153D01*
X46361724Y-78392849D01*
X46361725Y-78392845D01*
X46365691Y-78386776D01*
X46412294Y-78344582D01*
X46473600Y-78330666D01*
X46533852Y-78348604D01*
X46577564Y-78393785D01*
X46593500Y-78454598D01*
X46593500Y-80680831D01*
X46577564Y-80741643D01*
X46533852Y-80786825D01*
X46473600Y-80804763D01*
X46412294Y-80790847D01*
X46365692Y-80748653D01*
X46344434Y-80716116D01*
X45474553Y-81586000D01*
X45474553Y-81586001D01*
X46344434Y-82455882D01*
X46365692Y-82423346D01*
X46412294Y-82381152D01*
X46473600Y-82367236D01*
X46533852Y-82385174D01*
X46577564Y-82430356D01*
X46593500Y-82491168D01*
X46593500Y-87180831D01*
X46577564Y-87241643D01*
X46533852Y-87286825D01*
X46473600Y-87304763D01*
X46412294Y-87290847D01*
X46365692Y-87248653D01*
X46344434Y-87216116D01*
X45474553Y-88086000D01*
X45474553Y-88086001D01*
X46344434Y-88955882D01*
X46365692Y-88923346D01*
X46412294Y-88881152D01*
X46473600Y-88867236D01*
X46533852Y-88885174D01*
X46577564Y-88930356D01*
X46593500Y-88991168D01*
X46593500Y-95469295D01*
X46591158Y-95490504D01*
X46593439Y-95563062D01*
X46593500Y-95566957D01*
X46593500Y-95595726D01*
X46594053Y-95600107D01*
X46594968Y-95611740D01*
X46596402Y-95657369D01*
X46602323Y-95677750D01*
X46606267Y-95696795D01*
X46608928Y-95717859D01*
X46625737Y-95760315D01*
X46629520Y-95771363D01*
X46642256Y-95815200D01*
X46653061Y-95833470D01*
X46661621Y-95850943D01*
X46669432Y-95870671D01*
X46680522Y-95885936D01*
X46696267Y-95907608D01*
X46702678Y-95917368D01*
X46706443Y-95923734D01*
X46723707Y-95987981D01*
X46705281Y-96051904D01*
X46656470Y-96097105D01*
X46591321Y-96110573D01*
X46528588Y-96088432D01*
X46474080Y-96050265D01*
X46267926Y-95954133D01*
X46071600Y-95901528D01*
X46071600Y-96930400D01*
X47100472Y-96930400D01*
X47100471Y-96930399D01*
X47047866Y-96734073D01*
X46947149Y-96518085D01*
X46950244Y-96516641D01*
X46936278Y-96479974D01*
X46944185Y-96419788D01*
X46979713Y-96370567D01*
X47034346Y-96344108D01*
X47094992Y-96346750D01*
X47147116Y-96377862D01*
X47562715Y-96793461D01*
X47594809Y-96849048D01*
X47594809Y-96913234D01*
X47583964Y-96953707D01*
X47564131Y-97180400D01*
X47583964Y-97407089D01*
X47642861Y-97626897D01*
X47688652Y-97725095D01*
X47700005Y-97785610D01*
X47680851Y-97844125D01*
X47635913Y-97886214D01*
X47576270Y-97901500D01*
X47114378Y-97901500D01*
X47054735Y-97886214D01*
X47009797Y-97844125D01*
X46990643Y-97785610D01*
X47001996Y-97725095D01*
X47047866Y-97626726D01*
X47100472Y-97430400D01*
X45695600Y-97430400D01*
X45633600Y-97413787D01*
X45588213Y-97368400D01*
X45571600Y-97306400D01*
X45571600Y-95901528D01*
X45571599Y-95901528D01*
X45375276Y-95954133D01*
X45272080Y-96002253D01*
X45212871Y-96013683D01*
X45155272Y-95995833D01*
X45134041Y-95974330D01*
X45131559Y-95976813D01*
X45120481Y-95965735D01*
X45105468Y-95950722D01*
X45092835Y-95935930D01*
X45083974Y-95923734D01*
X45080363Y-95918763D01*
X45062411Y-95903912D01*
X45045179Y-95889656D01*
X45036540Y-95881794D01*
X44525718Y-95370972D01*
X44493624Y-95315384D01*
X44493624Y-95251197D01*
X44525718Y-95195610D01*
X44581306Y-95163516D01*
X44720326Y-95126265D01*
X44926481Y-95030133D01*
X44999473Y-94979024D01*
X43920449Y-93900000D01*
X44627554Y-93900000D01*
X45353026Y-94625471D01*
X45404135Y-94552479D01*
X45500267Y-94346325D01*
X45559142Y-94126601D01*
X45578967Y-93899998D01*
X45559142Y-93673396D01*
X45500267Y-93453672D01*
X45404134Y-93247514D01*
X45353026Y-93174525D01*
X44627554Y-93899999D01*
X44627554Y-93900000D01*
X43920449Y-93900000D01*
X43194974Y-93174525D01*
X43194973Y-93174526D01*
X43143930Y-93247424D01*
X43094760Y-93288683D01*
X43031548Y-93299829D01*
X42971231Y-93277876D01*
X42929973Y-93228706D01*
X42864134Y-93087513D01*
X42813026Y-93014524D01*
X41821681Y-94005870D01*
X41766094Y-94037964D01*
X41701906Y-94037964D01*
X41646319Y-94005870D01*
X40654974Y-93014525D01*
X40603698Y-93087756D01*
X40564124Y-93124020D01*
X40512931Y-93140161D01*
X40459713Y-93133155D01*
X40414442Y-93104314D01*
X39050126Y-91739998D01*
X40428532Y-91739998D01*
X40448365Y-91966687D01*
X40507262Y-92186495D01*
X40603433Y-92392733D01*
X40733954Y-92579138D01*
X40894860Y-92740044D01*
X41081265Y-92870565D01*
X41287502Y-92966736D01*
X41287504Y-92966736D01*
X41287505Y-92966737D01*
X41292001Y-92967941D01*
X41347592Y-93000036D01*
X41734001Y-93386444D01*
X41734002Y-93386444D01*
X42120408Y-93000036D01*
X42175997Y-92967942D01*
X42180497Y-92966737D01*
X42386735Y-92870566D01*
X42573140Y-92740045D01*
X42734048Y-92579137D01*
X42768057Y-92530567D01*
X42794099Y-92493375D01*
X42838417Y-92454509D01*
X42895674Y-92440498D01*
X43453537Y-92440498D01*
X43490824Y-92446237D01*
X43524660Y-92462923D01*
X43621265Y-92530566D01*
X43621266Y-92530566D01*
X43621267Y-92530567D01*
X43636976Y-92537892D01*
X43689151Y-92583648D01*
X43708571Y-92650273D01*
X43689152Y-92716898D01*
X43636978Y-92762655D01*
X43621518Y-92769864D01*
X43548527Y-92820972D01*
X44273999Y-93546445D01*
X44274000Y-93546445D01*
X44999473Y-92820972D01*
X44999472Y-92820971D01*
X44926484Y-92769865D01*
X44911024Y-92762656D01*
X44858848Y-92716898D01*
X44839429Y-92650272D01*
X44858850Y-92583646D01*
X44911024Y-92537892D01*
X44926735Y-92530567D01*
X45113140Y-92400046D01*
X45274048Y-92239138D01*
X45404569Y-92052733D01*
X45500740Y-91846495D01*
X45559636Y-91626691D01*
X45579469Y-91399999D01*
X45559636Y-91173307D01*
X45500740Y-90953503D01*
X45404569Y-90747265D01*
X45372975Y-90702144D01*
X45274047Y-90560858D01*
X45113141Y-90399952D01*
X44926736Y-90269431D01*
X44720498Y-90173260D01*
X44500690Y-90114363D01*
X44274000Y-90094530D01*
X44129801Y-90107146D01*
X44065869Y-90095661D01*
X44016514Y-90053432D01*
X43995281Y-89992045D01*
X44007994Y-89928346D01*
X44014516Y-89915249D01*
X44050229Y-89843528D01*
X44111115Y-89629536D01*
X44127714Y-89450395D01*
X44147874Y-89393261D01*
X44192698Y-89352498D01*
X44251487Y-89337838D01*
X44310203Y-89352783D01*
X44516396Y-89464369D01*
X44751506Y-89545083D01*
X44996707Y-89586000D01*
X45245293Y-89586000D01*
X45490493Y-89545083D01*
X45725606Y-89464368D01*
X45944233Y-89346053D01*
X45991056Y-89309609D01*
X45121000Y-88439553D01*
X43897564Y-87216116D01*
X43797266Y-87369634D01*
X43697413Y-87597278D01*
X43636386Y-87838267D01*
X43615858Y-88085994D01*
X43625338Y-88200394D01*
X43614827Y-88261545D01*
X43576006Y-88309949D01*
X43518594Y-88333485D01*
X43456967Y-88326260D01*
X43348992Y-88284430D01*
X43255940Y-88248382D01*
X43037243Y-88207500D01*
X42814757Y-88207500D01*
X42599537Y-88247732D01*
X42596060Y-88248382D01*
X42388595Y-88328754D01*
X42199437Y-88445875D01*
X42035019Y-88595762D01*
X41936607Y-88726081D01*
X41890391Y-88763580D01*
X41832026Y-88775226D01*
X41774957Y-88758337D01*
X41732332Y-88716802D01*
X41713968Y-88660190D01*
X41724097Y-88601543D01*
X41773587Y-88488718D01*
X41834613Y-88247732D01*
X41855141Y-88000000D01*
X41834613Y-87752267D01*
X41773586Y-87511278D01*
X41673730Y-87283630D01*
X41573434Y-87130116D01*
X40703553Y-88000000D01*
X41573433Y-88869881D01*
X41587383Y-88848531D01*
X41633058Y-88806824D01*
X41693198Y-88792368D01*
X41752839Y-88808762D01*
X41797141Y-88851925D01*
X41815082Y-88911119D01*
X41804399Y-88961273D01*
X41804915Y-88961420D01*
X41802741Y-88969060D01*
X41802197Y-88971615D01*
X41801770Y-88972471D01*
X41740885Y-89186462D01*
X41720357Y-89408000D01*
X41740885Y-89629537D01*
X41801770Y-89843529D01*
X41805357Y-89850732D01*
X41818011Y-89915249D01*
X41795902Y-89977166D01*
X41745247Y-90019077D01*
X41723232Y-90028985D01*
X41716314Y-90031850D01*
X41660068Y-90053182D01*
X41651721Y-90058943D01*
X41632193Y-90069957D01*
X41622949Y-90074118D01*
X41575598Y-90111214D01*
X41569569Y-90115649D01*
X41520071Y-90149816D01*
X41480184Y-90194838D01*
X41475052Y-90200290D01*
X41256291Y-90419051D01*
X41250839Y-90424183D01*
X41205817Y-90464070D01*
X41171650Y-90513568D01*
X41167214Y-90519598D01*
X41124106Y-90574623D01*
X41089427Y-90602172D01*
X41090152Y-90603208D01*
X40894860Y-90739951D01*
X40733954Y-90900857D01*
X40603433Y-91087262D01*
X40507262Y-91293500D01*
X40448365Y-91513308D01*
X40428532Y-91739998D01*
X39050126Y-91739998D01*
X38532819Y-91222691D01*
X38505939Y-91182463D01*
X38496500Y-91135010D01*
X38496500Y-89223610D01*
X39479942Y-89223610D01*
X39526766Y-89260055D01*
X39745393Y-89378368D01*
X39980506Y-89459083D01*
X40225707Y-89500000D01*
X40474293Y-89500000D01*
X40719493Y-89459083D01*
X40954606Y-89378368D01*
X41173233Y-89260053D01*
X41220056Y-89223609D01*
X40350000Y-88353553D01*
X39479942Y-89223609D01*
X39479942Y-89223610D01*
X38496500Y-89223610D01*
X38496500Y-88000000D01*
X38844858Y-88000000D01*
X38865386Y-88247732D01*
X38926413Y-88488721D01*
X39026268Y-88716370D01*
X39126563Y-88869882D01*
X39126564Y-88869882D01*
X39996447Y-88000001D01*
X39996447Y-88000000D01*
X39126564Y-87130116D01*
X39026266Y-87283634D01*
X38926413Y-87511278D01*
X38865386Y-87752267D01*
X38844858Y-88000000D01*
X38496500Y-88000000D01*
X38496500Y-86776390D01*
X39479942Y-86776390D01*
X40350000Y-87646447D01*
X40350001Y-87646447D01*
X41134057Y-86862390D01*
X44250942Y-86862390D01*
X45121000Y-87732447D01*
X45121001Y-87732447D01*
X45991057Y-86862390D01*
X45991056Y-86862388D01*
X45944235Y-86825947D01*
X45725606Y-86707631D01*
X45490493Y-86626916D01*
X45245293Y-86586000D01*
X44996707Y-86586000D01*
X44751506Y-86626916D01*
X44516393Y-86707631D01*
X44297764Y-86825946D01*
X44250942Y-86862388D01*
X44250942Y-86862390D01*
X41134057Y-86862390D01*
X41220057Y-86776390D01*
X41220056Y-86776388D01*
X41173235Y-86739947D01*
X40954606Y-86621631D01*
X40719493Y-86540916D01*
X40474293Y-86500000D01*
X40225707Y-86500000D01*
X39980506Y-86540916D01*
X39745393Y-86621631D01*
X39526764Y-86739946D01*
X39479942Y-86776388D01*
X39479942Y-86776390D01*
X38496500Y-86776390D01*
X38496500Y-82723610D01*
X39479942Y-82723610D01*
X39526766Y-82760055D01*
X39745393Y-82878368D01*
X39980506Y-82959083D01*
X40225707Y-83000000D01*
X40474293Y-83000000D01*
X40719493Y-82959083D01*
X40954606Y-82878368D01*
X41081660Y-82809610D01*
X44250942Y-82809610D01*
X44297766Y-82846055D01*
X44516393Y-82964368D01*
X44751506Y-83045083D01*
X44996707Y-83086000D01*
X45245293Y-83086000D01*
X45490493Y-83045083D01*
X45725606Y-82964368D01*
X45944233Y-82846053D01*
X45991056Y-82809609D01*
X45121000Y-81939553D01*
X44250942Y-82809609D01*
X44250942Y-82809610D01*
X41081660Y-82809610D01*
X41173233Y-82760053D01*
X41220056Y-82723609D01*
X40350000Y-81853553D01*
X39479942Y-82723609D01*
X39479942Y-82723610D01*
X38496500Y-82723610D01*
X38496500Y-81500000D01*
X38844858Y-81500000D01*
X38865386Y-81747732D01*
X38926413Y-81988721D01*
X39026268Y-82216370D01*
X39126563Y-82369882D01*
X39126564Y-82369882D01*
X39996447Y-81500001D01*
X39996447Y-81500000D01*
X40703553Y-81500000D01*
X41573434Y-82369882D01*
X41673730Y-82216369D01*
X41773586Y-81988721D01*
X41834613Y-81747732D01*
X41848015Y-81586000D01*
X43615858Y-81586000D01*
X43636386Y-81833732D01*
X43697413Y-82074721D01*
X43797268Y-82302370D01*
X43897563Y-82455882D01*
X43897564Y-82455882D01*
X44767447Y-81586001D01*
X44767447Y-81586000D01*
X43897564Y-80716116D01*
X43797266Y-80869634D01*
X43697413Y-81097278D01*
X43636386Y-81338267D01*
X43615858Y-81586000D01*
X41848015Y-81586000D01*
X41855141Y-81500000D01*
X41834613Y-81252267D01*
X41773586Y-81011278D01*
X41673730Y-80783630D01*
X41573434Y-80630116D01*
X40703553Y-81500000D01*
X39996447Y-81500000D01*
X39126564Y-80630116D01*
X39026266Y-80783634D01*
X38926413Y-81011278D01*
X38865386Y-81252267D01*
X38844858Y-81500000D01*
X38496500Y-81500000D01*
X38496500Y-80276390D01*
X39479942Y-80276390D01*
X40350000Y-81146447D01*
X40350001Y-81146447D01*
X41134057Y-80362390D01*
X44250942Y-80362390D01*
X45121000Y-81232447D01*
X45121001Y-81232447D01*
X45991057Y-80362390D01*
X45991056Y-80362388D01*
X45944235Y-80325947D01*
X45725606Y-80207631D01*
X45490493Y-80126916D01*
X45245293Y-80086000D01*
X44996707Y-80086000D01*
X44751506Y-80126916D01*
X44516393Y-80207631D01*
X44297764Y-80325946D01*
X44250942Y-80362388D01*
X44250942Y-80362390D01*
X41134057Y-80362390D01*
X41220057Y-80276390D01*
X41220056Y-80276388D01*
X41173235Y-80239947D01*
X40954606Y-80121631D01*
X40719493Y-80040916D01*
X40474293Y-80000000D01*
X40225707Y-80000000D01*
X39980506Y-80040916D01*
X39745393Y-80121631D01*
X39526764Y-80239946D01*
X39479942Y-80276388D01*
X39479942Y-80276390D01*
X38496500Y-80276390D01*
X38496500Y-78964370D01*
X38511668Y-78904943D01*
X38553460Y-78860055D01*
X38611654Y-78840686D01*
X38672011Y-78851575D01*
X38719766Y-78890058D01*
X38788254Y-78981546D01*
X38903469Y-79067796D01*
X39038317Y-79118091D01*
X39097927Y-79124500D01*
X40993672Y-79124499D01*
X41053283Y-79118091D01*
X41188131Y-79067796D01*
X41303346Y-78981546D01*
X41382095Y-78876351D01*
X41786999Y-78876351D01*
X41817450Y-78900051D01*
X42021500Y-79010477D01*
X42240940Y-79085811D01*
X42469793Y-79124000D01*
X42701807Y-79124000D01*
X42930659Y-79085811D01*
X43150096Y-79010478D01*
X43354153Y-78900048D01*
X43384598Y-78876351D01*
X42585800Y-78077553D01*
X41786999Y-78876351D01*
X41382095Y-78876351D01*
X41389596Y-78866331D01*
X41439891Y-78731483D01*
X41446300Y-78671873D01*
X41446299Y-78561304D01*
X41455738Y-78513856D01*
X41482618Y-78473627D01*
X42232247Y-77724001D01*
X42232247Y-77724000D01*
X41482618Y-76974371D01*
X41455738Y-76934143D01*
X41446299Y-76886690D01*
X41446299Y-76776130D01*
X41441166Y-76728380D01*
X41439891Y-76716517D01*
X41389596Y-76581669D01*
X41382094Y-76571647D01*
X41787000Y-76571647D01*
X42585800Y-77370447D01*
X42585801Y-77370447D01*
X43384599Y-76571648D01*
X43384599Y-76571647D01*
X43354149Y-76547948D01*
X43150099Y-76437522D01*
X42930659Y-76362188D01*
X42701807Y-76324000D01*
X42469793Y-76324000D01*
X42240940Y-76362188D01*
X42021503Y-76437521D01*
X41817445Y-76547952D01*
X41787000Y-76571646D01*
X41787000Y-76571647D01*
X41382094Y-76571647D01*
X41303346Y-76466454D01*
X41188131Y-76380204D01*
X41053283Y-76329909D01*
X40993673Y-76323500D01*
X40993669Y-76323500D01*
X40004299Y-76323500D01*
X39952386Y-76312110D01*
X39910010Y-76280033D01*
X39884955Y-76233161D01*
X39881825Y-76180106D01*
X39886777Y-76148834D01*
X39889143Y-76137405D01*
X39900500Y-76093177D01*
X39900500Y-76071955D01*
X39902027Y-76052556D01*
X39902232Y-76051259D01*
X39905347Y-76031595D01*
X39901050Y-75986139D01*
X39900500Y-75974470D01*
X39900500Y-73050504D01*
X39902841Y-73029294D01*
X39902617Y-73022179D01*
X39900560Y-72956736D01*
X39900500Y-72952842D01*
X39900500Y-72924081D01*
X39900500Y-72924075D01*
X39899946Y-72919695D01*
X39899030Y-72908054D01*
X39897597Y-72862430D01*
X39891675Y-72842047D01*
X39887732Y-72823010D01*
X39885071Y-72801942D01*
X39868266Y-72759498D01*
X39864481Y-72748444D01*
X39851744Y-72704602D01*
X39851744Y-72704601D01*
X39840934Y-72686322D01*
X39832380Y-72668862D01*
X39824568Y-72649129D01*
X39797723Y-72612180D01*
X39791332Y-72602451D01*
X39768081Y-72563135D01*
X39753068Y-72548122D01*
X39740435Y-72533330D01*
X39727963Y-72516163D01*
X39692779Y-72487056D01*
X39684140Y-72479194D01*
X39389575Y-72184629D01*
X39360626Y-72139059D01*
X39353785Y-72085509D01*
X39372643Y-71882000D01*
X39352115Y-71660464D01*
X39316271Y-71534486D01*
X39291230Y-71446473D01*
X39192058Y-71247311D01*
X39057980Y-71069762D01*
X38893562Y-70919875D01*
X38704404Y-70802754D01*
X38552151Y-70743771D01*
X38496940Y-70722382D01*
X38278243Y-70681500D01*
X38055757Y-70681500D01*
X37917602Y-70707326D01*
X37837060Y-70722382D01*
X37629595Y-70802754D01*
X37440437Y-70919875D01*
X37276019Y-71069762D01*
X37141941Y-71247311D01*
X37042769Y-71446473D01*
X36981885Y-71660462D01*
X36961357Y-71882000D01*
X36981885Y-72103537D01*
X37042769Y-72317526D01*
X37141941Y-72516688D01*
X37276019Y-72694236D01*
X37291270Y-72708139D01*
X37322715Y-72753354D01*
X37331478Y-72807726D01*
X37315830Y-72860530D01*
X37278859Y-72901350D01*
X37260860Y-72913953D01*
X37099953Y-73074860D01*
X36969432Y-73261264D01*
X36873261Y-73467502D01*
X36814364Y-73687310D01*
X36794531Y-73914000D01*
X36814364Y-74140689D01*
X36873261Y-74360497D01*
X36969432Y-74566735D01*
X37099953Y-74753140D01*
X37260859Y-74914046D01*
X37447264Y-75044567D01*
X37447265Y-75044567D01*
X37447266Y-75044568D01*
X37653504Y-75140739D01*
X37873308Y-75199635D01*
X38100000Y-75219468D01*
X38326692Y-75199635D01*
X38365961Y-75189112D01*
X38443407Y-75168362D01*
X38499691Y-75166520D01*
X38550987Y-75189761D01*
X38586712Y-75233293D01*
X38599500Y-75288137D01*
X38599500Y-75690192D01*
X38590061Y-75737645D01*
X38563183Y-75777870D01*
X38333531Y-76007521D01*
X38276838Y-76064215D01*
X38215684Y-76097662D01*
X38146148Y-76092835D01*
X38090205Y-76051261D01*
X37967626Y-75888940D01*
X37967624Y-75888937D01*
X37803207Y-75739051D01*
X37614049Y-75621930D01*
X37539867Y-75593192D01*
X37406585Y-75541558D01*
X37187888Y-75500676D01*
X36965402Y-75500676D01*
X36764000Y-75538325D01*
X36746705Y-75541558D01*
X36539240Y-75621930D01*
X36350082Y-75739051D01*
X36185664Y-75888938D01*
X36051586Y-76066487D01*
X35952414Y-76265649D01*
X35891530Y-76479638D01*
X35871002Y-76701176D01*
X35891530Y-76922713D01*
X35952414Y-77136702D01*
X36051586Y-77335864D01*
X36185664Y-77513413D01*
X36350082Y-77663300D01*
X36448117Y-77724000D01*
X36539244Y-77780423D01*
X36616295Y-77810272D01*
X36657821Y-77836878D01*
X36685692Y-77877566D01*
X36695500Y-77925899D01*
X36695500Y-80043328D01*
X36679312Y-80104587D01*
X36634974Y-80149851D01*
X36574063Y-80167302D01*
X36512483Y-80152383D01*
X36454808Y-80121171D01*
X36219615Y-80040429D01*
X35974335Y-79999500D01*
X35725665Y-79999500D01*
X35480384Y-80040429D01*
X35245194Y-80121170D01*
X35026485Y-80239529D01*
X34830259Y-80392259D01*
X34830256Y-80392261D01*
X34830256Y-80392262D01*
X34728145Y-80503184D01*
X34661837Y-80575214D01*
X34525825Y-80783395D01*
X34435780Y-80988678D01*
X34425937Y-81011119D01*
X34395542Y-81131146D01*
X34364891Y-81252183D01*
X34344356Y-81500000D01*
X34364891Y-81747816D01*
X34364891Y-81747819D01*
X34364892Y-81747821D01*
X34425937Y-81988881D01*
X34448508Y-82040337D01*
X34525825Y-82216604D01*
X34525827Y-82216607D01*
X34661836Y-82424785D01*
X34830256Y-82607738D01*
X35026491Y-82760474D01*
X35074241Y-82786315D01*
X35134518Y-82818936D01*
X35182023Y-82864516D01*
X35199500Y-82927990D01*
X35199500Y-86572010D01*
X35182023Y-86635484D01*
X35134518Y-86681064D01*
X35026490Y-86739526D01*
X34830259Y-86892259D01*
X34830256Y-86892261D01*
X34830256Y-86892262D01*
X34661837Y-87075214D01*
X34525825Y-87283395D01*
X34454126Y-87446854D01*
X34425937Y-87511119D01*
X34399017Y-87617423D01*
X34364891Y-87752183D01*
X34344356Y-88000000D01*
X34364891Y-88247816D01*
X34364891Y-88247819D01*
X34364892Y-88247821D01*
X34425937Y-88488881D01*
X34448508Y-88540337D01*
X34525825Y-88716604D01*
X34525827Y-88716607D01*
X34661836Y-88924785D01*
X34830256Y-89107738D01*
X35026491Y-89260474D01*
X35074241Y-89286315D01*
X35134518Y-89318936D01*
X35182023Y-89364516D01*
X35199500Y-89427990D01*
X35199500Y-90811050D01*
X35197158Y-90832259D01*
X35199439Y-90904817D01*
X35199500Y-90908712D01*
X35199500Y-90937481D01*
X35200053Y-90941862D01*
X35200968Y-90953495D01*
X35202402Y-90999124D01*
X35208323Y-91019505D01*
X35212267Y-91038550D01*
X35214928Y-91059614D01*
X35231737Y-91102070D01*
X35235520Y-91113118D01*
X35248256Y-91156955D01*
X35259061Y-91175225D01*
X35267621Y-91192698D01*
X35275431Y-91212424D01*
X35302267Y-91249363D01*
X35308673Y-91259115D01*
X35331919Y-91298420D01*
X35331920Y-91298421D01*
X35331921Y-91298422D01*
X35346925Y-91313426D01*
X35359564Y-91328224D01*
X35372037Y-91345392D01*
X35407212Y-91374491D01*
X35415854Y-91382355D01*
X37579944Y-93546445D01*
X39705689Y-95672189D01*
X39739069Y-95733031D01*
X39734530Y-95802280D01*
X39693495Y-95858245D01*
X39628816Y-95883398D01*
X39498910Y-95894764D01*
X39279102Y-95953661D01*
X39072864Y-96049832D01*
X38886459Y-96180353D01*
X38725553Y-96341259D01*
X38595032Y-96527664D01*
X38498861Y-96733902D01*
X38439964Y-96953710D01*
X38420131Y-97180400D01*
X38439964Y-97407089D01*
X38498861Y-97626897D01*
X38595032Y-97833135D01*
X38725553Y-98019540D01*
X38886459Y-98180446D01*
X39072864Y-98310967D01*
X39072865Y-98310967D01*
X39072866Y-98310968D01*
X39279104Y-98407139D01*
X39498908Y-98466035D01*
X39725600Y-98485868D01*
X39952292Y-98466035D01*
X40172096Y-98407139D01*
X40378334Y-98310968D01*
X40564739Y-98180447D01*
X40725647Y-98019539D01*
X40856168Y-97833134D01*
X40952339Y-97626896D01*
X41011235Y-97407092D01*
X41031068Y-97180400D01*
X41011235Y-96953708D01*
X40952339Y-96733904D01*
X40944411Y-96716904D01*
X40933058Y-96656390D01*
X40952212Y-96597874D01*
X40997150Y-96555784D01*
X41056793Y-96540498D01*
X41442407Y-96540498D01*
X41502050Y-96555784D01*
X41546988Y-96597874D01*
X41566142Y-96656390D01*
X41554788Y-96716905D01*
X41546861Y-96733902D01*
X41487964Y-96953710D01*
X41468131Y-97180400D01*
X41487964Y-97407089D01*
X41546861Y-97626897D01*
X41643032Y-97833135D01*
X41773553Y-98019540D01*
X41934459Y-98180446D01*
X42120864Y-98310967D01*
X42120865Y-98310967D01*
X42120866Y-98310968D01*
X42327104Y-98407139D01*
X42546908Y-98466035D01*
X42773600Y-98485868D01*
X43000292Y-98466035D01*
X43220096Y-98407139D01*
X43307193Y-98366524D01*
X43372844Y-98355617D01*
X43434682Y-98380225D01*
X43474889Y-98433262D01*
X43484137Y-98456621D01*
X43487920Y-98467669D01*
X43500656Y-98511506D01*
X43511461Y-98529776D01*
X43520021Y-98547249D01*
X43527831Y-98566975D01*
X43554667Y-98603914D01*
X43561073Y-98613666D01*
X43584319Y-98652971D01*
X43584321Y-98652973D01*
X43599325Y-98667977D01*
X43611964Y-98682775D01*
X43624437Y-98699943D01*
X43659612Y-98729042D01*
X43668254Y-98736906D01*
X46557181Y-101625833D01*
X46584061Y-101666061D01*
X46593500Y-101713514D01*
X46593500Y-104433313D01*
X46577829Y-104493652D01*
X46534777Y-104538740D01*
X46517437Y-104549476D01*
X46353019Y-104699362D01*
X46218941Y-104876911D01*
X46119769Y-105076073D01*
X46058885Y-105290062D01*
X46058884Y-105290064D01*
X46058885Y-105290064D01*
X46038357Y-105511600D01*
X46040148Y-105530927D01*
X46058885Y-105733137D01*
X46103736Y-105890773D01*
X46105833Y-105950146D01*
X46080070Y-106003679D01*
X46032364Y-106039084D01*
X45973663Y-106048235D01*
X45821600Y-106034931D01*
X45594910Y-106054764D01*
X45375102Y-106113661D01*
X45168864Y-106209832D01*
X44982459Y-106340353D01*
X44821553Y-106501259D01*
X44691032Y-106687664D01*
X44594861Y-106893902D01*
X44535964Y-107113710D01*
X44526080Y-107226680D01*
X44501761Y-107290260D01*
X44447544Y-107331422D01*
X44379768Y-107337761D01*
X44370730Y-107336071D01*
X44358043Y-107333700D01*
X44192107Y-107333700D01*
X44133256Y-107318845D01*
X44088506Y-107277839D01*
X44068579Y-107220507D01*
X44059235Y-107113710D01*
X44059235Y-107113709D01*
X44059235Y-107113708D01*
X44000339Y-106893904D01*
X43904168Y-106687666D01*
X43836375Y-106590847D01*
X43773646Y-106501259D01*
X43612740Y-106340353D01*
X43426335Y-106209832D01*
X43220097Y-106113661D01*
X43000289Y-106054764D01*
X42773600Y-106034931D01*
X42546910Y-106054764D01*
X42327102Y-106113661D01*
X42120864Y-106209832D01*
X41934459Y-106340353D01*
X41773553Y-106501259D01*
X41643032Y-106687664D01*
X41546861Y-106893902D01*
X41487964Y-107113710D01*
X41468131Y-107340400D01*
X41487964Y-107567089D01*
X41546861Y-107786897D01*
X41643032Y-107993135D01*
X41773553Y-108179540D01*
X41934459Y-108340446D01*
X42120864Y-108470967D01*
X42120865Y-108470967D01*
X42120866Y-108470968D01*
X42327104Y-108567139D01*
X42546908Y-108626035D01*
X42698036Y-108639257D01*
X42773599Y-108645868D01*
X42773599Y-108645867D01*
X42773600Y-108645868D01*
X42926372Y-108632502D01*
X42989391Y-108643558D01*
X43038509Y-108684557D01*
X43060651Y-108744584D01*
X43061685Y-108755738D01*
X43122569Y-108969726D01*
X43221741Y-109168888D01*
X43355819Y-109346437D01*
X43520237Y-109496324D01*
X43709395Y-109613445D01*
X43709397Y-109613445D01*
X43709399Y-109613447D01*
X43916860Y-109693818D01*
X44135557Y-109734700D01*
X44149886Y-109734700D01*
X44197339Y-109744139D01*
X44237567Y-109771019D01*
X45444821Y-110978273D01*
X46515468Y-112048919D01*
X46545718Y-112098282D01*
X46550260Y-112155998D01*
X46528105Y-112209485D01*
X46484082Y-112247085D01*
X46427787Y-112260600D01*
X45768099Y-112260600D01*
X45706099Y-112243987D01*
X45660712Y-112198600D01*
X45644099Y-112136600D01*
X45644099Y-111805930D01*
X45643528Y-111800618D01*
X45637691Y-111746317D01*
X45587396Y-111611469D01*
X45501146Y-111496254D01*
X45385931Y-111410004D01*
X45251083Y-111359709D01*
X45191473Y-111353300D01*
X45191469Y-111353300D01*
X42895730Y-111353300D01*
X42836115Y-111359709D01*
X42701269Y-111410004D01*
X42586054Y-111496254D01*
X42499804Y-111611468D01*
X42449509Y-111746315D01*
X42449509Y-111746317D01*
X42445827Y-111780568D01*
X42443100Y-111805930D01*
X42443100Y-114101669D01*
X42449509Y-114161284D01*
X42466723Y-114207437D01*
X42499804Y-114296131D01*
X42586054Y-114411346D01*
X42701269Y-114497596D01*
X42836117Y-114547891D01*
X42895727Y-114554300D01*
X45191472Y-114554299D01*
X45251083Y-114547891D01*
X45385931Y-114497596D01*
X45501146Y-114411346D01*
X45587396Y-114296131D01*
X45594123Y-114278092D01*
X45632881Y-114224567D01*
X45693631Y-114198552D01*
X45759117Y-114207437D01*
X45810738Y-114248699D01*
X45833833Y-114310618D01*
X45834364Y-114316689D01*
X45893261Y-114536497D01*
X45989432Y-114742735D01*
X46119953Y-114929140D01*
X46280859Y-115090046D01*
X46467264Y-115220567D01*
X46467265Y-115220567D01*
X46467266Y-115220568D01*
X46673504Y-115316739D01*
X46893308Y-115375635D01*
X47120000Y-115395468D01*
X47346692Y-115375635D01*
X47566496Y-115316739D01*
X47772734Y-115220568D01*
X47959139Y-115090047D01*
X48120047Y-114929139D01*
X48250568Y-114742734D01*
X48346739Y-114536496D01*
X48405635Y-114316692D01*
X48414844Y-114211423D01*
X48430773Y-114160601D01*
X48466555Y-114121147D01*
X48515582Y-114100344D01*
X48674071Y-114070718D01*
X48881532Y-113990347D01*
X49070693Y-113873224D01*
X49181097Y-113772577D01*
X49235111Y-113723337D01*
X49235112Y-113723336D01*
X49369189Y-113545789D01*
X49468360Y-113346628D01*
X49471129Y-113336899D01*
X49508232Y-113206491D01*
X49529246Y-113132636D01*
X49549774Y-112911100D01*
X49529246Y-112689564D01*
X49513986Y-112635933D01*
X49511364Y-112579216D01*
X49534299Y-112527274D01*
X49577981Y-112491000D01*
X49633253Y-112478000D01*
X52722510Y-112478000D01*
X52777781Y-112491000D01*
X52821464Y-112527273D01*
X52855419Y-112572237D01*
X53019835Y-112722122D01*
X53218500Y-112845130D01*
X53257888Y-112884066D01*
X53276396Y-112936267D01*
X53270331Y-112991318D01*
X53240903Y-113038238D01*
X49779700Y-116499441D01*
X49740623Y-116525838D01*
X49694516Y-116535735D01*
X49648047Y-116527702D01*
X49591502Y-116506257D01*
X49584583Y-116503391D01*
X49529729Y-116478703D01*
X49519752Y-116476875D01*
X49498139Y-116470850D01*
X49488673Y-116467260D01*
X49428972Y-116460010D01*
X49421571Y-116458883D01*
X49362407Y-116448041D01*
X49302366Y-116451674D01*
X49294879Y-116451900D01*
X48289474Y-116451900D01*
X48232217Y-116437889D01*
X48187899Y-116399023D01*
X48127847Y-116313259D01*
X47966941Y-116152353D01*
X47780536Y-116021832D01*
X47574298Y-115925661D01*
X47354490Y-115866764D01*
X47127801Y-115846931D01*
X46901111Y-115866764D01*
X46681303Y-115925661D01*
X46475065Y-116021832D01*
X46288660Y-116152353D01*
X46127754Y-116313259D01*
X46067703Y-116399023D01*
X46023385Y-116437889D01*
X45966128Y-116451900D01*
X41063710Y-116451900D01*
X41056223Y-116451674D01*
X40996191Y-116448042D01*
X40937042Y-116458881D01*
X40929643Y-116460008D01*
X40869922Y-116467260D01*
X40860441Y-116470856D01*
X40838836Y-116476879D01*
X40828869Y-116478705D01*
X40774034Y-116503384D01*
X40767118Y-116506248D01*
X40710869Y-116527581D01*
X40702525Y-116533341D01*
X40682983Y-116544363D01*
X40673744Y-116548521D01*
X40626394Y-116585616D01*
X40620366Y-116590052D01*
X40570867Y-116624219D01*
X40530983Y-116669238D01*
X40525851Y-116674690D01*
X38885872Y-118314669D01*
X38843973Y-118342227D01*
X38794585Y-118350936D01*
X38745786Y-118339370D01*
X38673498Y-118305661D01*
X38453689Y-118246764D01*
X38227000Y-118226931D01*
X38000310Y-118246764D01*
X37780502Y-118305661D01*
X37574264Y-118401832D01*
X37472423Y-118473142D01*
X37409409Y-118495302D01*
X37344043Y-118481556D01*
X37295291Y-118435895D01*
X37277300Y-118371567D01*
X37277300Y-115611408D01*
X37286739Y-115563955D01*
X37313619Y-115523727D01*
X37639608Y-115197738D01*
X38626513Y-114210831D01*
X38643162Y-114197494D01*
X38644936Y-114195604D01*
X38644940Y-114195602D01*
X38692898Y-114144530D01*
X38695546Y-114141798D01*
X38715912Y-114121434D01*
X38718612Y-114117951D01*
X38726188Y-114109080D01*
X38757448Y-114075793D01*
X38767672Y-114057193D01*
X38778351Y-114040936D01*
X38791363Y-114024163D01*
X38809498Y-113982252D01*
X38814633Y-113971774D01*
X38836626Y-113931770D01*
X38841903Y-113911215D01*
X38848208Y-113892799D01*
X38856636Y-113873326D01*
X38863778Y-113828224D01*
X38866143Y-113816805D01*
X38877500Y-113772577D01*
X38877500Y-113751355D01*
X38879027Y-113731956D01*
X38880392Y-113723336D01*
X38882347Y-113710995D01*
X38878049Y-113665536D01*
X38877500Y-113653869D01*
X38877500Y-113336899D01*
X38894113Y-113274899D01*
X38939500Y-113229512D01*
X39001500Y-113212899D01*
X39074870Y-113212899D01*
X39074872Y-113212899D01*
X39134483Y-113206491D01*
X39269331Y-113156196D01*
X39384546Y-113069946D01*
X39470796Y-112954731D01*
X39521091Y-112819883D01*
X39527500Y-112760273D01*
X39527499Y-111064528D01*
X39521091Y-111004917D01*
X39470796Y-110870069D01*
X39384546Y-110754854D01*
X39269331Y-110668604D01*
X39134483Y-110618309D01*
X39074873Y-110611900D01*
X39074869Y-110611900D01*
X37379130Y-110611900D01*
X37319515Y-110618309D01*
X37184669Y-110668604D01*
X37069454Y-110754854D01*
X36983204Y-110870068D01*
X36932909Y-111004915D01*
X36932909Y-111004917D01*
X36926585Y-111063742D01*
X36926500Y-111064530D01*
X36926500Y-112760269D01*
X36932909Y-112819884D01*
X36955039Y-112879216D01*
X36983204Y-112954731D01*
X37069454Y-113069946D01*
X37184669Y-113156196D01*
X37319517Y-113206491D01*
X37379127Y-113212900D01*
X37452500Y-113212900D01*
X37514500Y-113229513D01*
X37559887Y-113274900D01*
X37576500Y-113336900D01*
X37576500Y-113369592D01*
X37567061Y-113417045D01*
X37540181Y-113457273D01*
X36502633Y-114494819D01*
X36447375Y-114526824D01*
X36383518Y-114527088D01*
X36327998Y-114495540D01*
X36295538Y-114440548D01*
X36294747Y-114376696D01*
X36304613Y-114337735D01*
X36325141Y-114090000D01*
X36304613Y-113842267D01*
X36243586Y-113601278D01*
X36143730Y-113373630D01*
X36043434Y-113220116D01*
X34820000Y-114443553D01*
X33949942Y-115313609D01*
X33949942Y-115313610D01*
X33996766Y-115350055D01*
X34215393Y-115468368D01*
X34450506Y-115549083D01*
X34695707Y-115590000D01*
X34944293Y-115590000D01*
X35189493Y-115549083D01*
X35424606Y-115468368D01*
X35643237Y-115350051D01*
X35776138Y-115246611D01*
X35839508Y-115221126D01*
X35906760Y-115233064D01*
X35957488Y-115278802D01*
X35976300Y-115344464D01*
X35976300Y-119335536D01*
X35957488Y-119401198D01*
X35906760Y-119446936D01*
X35839508Y-119458874D01*
X35776138Y-119433389D01*
X35643237Y-119329948D01*
X35424606Y-119211631D01*
X35189493Y-119130916D01*
X34944293Y-119090000D01*
X34695707Y-119090000D01*
X34450506Y-119130916D01*
X34215393Y-119211631D01*
X33996764Y-119329946D01*
X33949942Y-119366388D01*
X33949942Y-119366390D01*
X35085871Y-120502319D01*
X35117965Y-120557906D01*
X35117965Y-120622094D01*
X35085871Y-120677681D01*
X34907681Y-120855871D01*
X34852094Y-120887965D01*
X34787906Y-120887965D01*
X34732319Y-120855871D01*
X33596564Y-119720116D01*
X33496266Y-119873634D01*
X33446509Y-119987070D01*
X33413133Y-120031849D01*
X33363493Y-120057440D01*
X33307657Y-120058652D01*
X33256952Y-120035239D01*
X33252582Y-120031849D01*
X33244575Y-120025638D01*
X33202681Y-120007508D01*
X33192190Y-120002369D01*
X33152178Y-119980372D01*
X33131611Y-119975091D01*
X33113209Y-119968791D01*
X33093735Y-119960364D01*
X33048648Y-119953223D01*
X33037209Y-119950854D01*
X32992989Y-119939500D01*
X32992988Y-119939500D01*
X32971766Y-119939500D01*
X32952367Y-119937973D01*
X32931407Y-119934653D01*
X32931406Y-119934653D01*
X32909369Y-119936736D01*
X32885950Y-119938950D01*
X32874281Y-119939500D01*
X31754184Y-119939500D01*
X31707520Y-119930385D01*
X31667716Y-119904378D01*
X31651447Y-119880913D01*
X31649793Y-119881995D01*
X31609164Y-119819808D01*
X31508164Y-119665215D01*
X31339744Y-119482262D01*
X31143509Y-119329526D01*
X31035482Y-119271064D01*
X30987977Y-119225484D01*
X30970500Y-119162010D01*
X30970500Y-115517990D01*
X30987977Y-115454516D01*
X31035482Y-115408936D01*
X31075101Y-115387494D01*
X31143509Y-115350474D01*
X31339744Y-115197738D01*
X31508164Y-115014785D01*
X31644173Y-114806607D01*
X31744063Y-114578881D01*
X31805108Y-114337821D01*
X31825643Y-114090000D01*
X31805108Y-113842179D01*
X31761222Y-113668881D01*
X31759290Y-113617043D01*
X31778733Y-113568948D01*
X31816152Y-113533016D01*
X31819103Y-113531188D01*
X31819105Y-113531188D01*
X31949104Y-113450696D01*
X31999141Y-113433064D01*
X32051970Y-113437959D01*
X32097917Y-113464487D01*
X32151556Y-113513386D01*
X32340714Y-113630507D01*
X32340716Y-113630507D01*
X32340718Y-113630509D01*
X32548179Y-113710880D01*
X32766876Y-113751762D01*
X32989360Y-113751762D01*
X32989362Y-113751762D01*
X33188666Y-113714505D01*
X33245092Y-113717045D01*
X33294539Y-113744352D01*
X33326745Y-113790758D01*
X33335024Y-113846634D01*
X33314858Y-114089999D01*
X33335386Y-114337732D01*
X33396413Y-114578721D01*
X33496268Y-114806370D01*
X33596563Y-114959882D01*
X33596564Y-114959882D01*
X35690057Y-112866389D01*
X35690056Y-112866388D01*
X35643235Y-112829947D01*
X35424606Y-112711631D01*
X35189493Y-112630916D01*
X34944293Y-112590000D01*
X34695707Y-112590000D01*
X34450506Y-112630916D01*
X34245521Y-112701288D01*
X34184550Y-112706266D01*
X34128620Y-112681488D01*
X34091341Y-112632986D01*
X34081787Y-112572567D01*
X34083762Y-112551262D01*
X34063234Y-112329726D01*
X34034975Y-112230405D01*
X34002349Y-112115735D01*
X33903177Y-111916573D01*
X33769099Y-111739024D01*
X33596190Y-111581397D01*
X33597573Y-111579879D01*
X33571336Y-111553942D01*
X33552830Y-111501742D01*
X33558895Y-111446691D01*
X33588323Y-111399773D01*
X33641467Y-111346629D01*
X33702895Y-111285201D01*
X33833132Y-111099202D01*
X33877448Y-111060339D01*
X33934705Y-111046328D01*
X33991962Y-111060339D01*
X34036280Y-111099204D01*
X34166293Y-111284881D01*
X34333318Y-111451906D01*
X34526823Y-111587400D01*
X34740907Y-111687230D01*
X34954399Y-111744435D01*
X34954400Y-111744436D01*
X34954400Y-110663800D01*
X35454400Y-110663800D01*
X35454400Y-111744435D01*
X35667892Y-111687230D01*
X35881976Y-111587400D01*
X36075481Y-111451906D01*
X36242506Y-111284881D01*
X36378000Y-111091376D01*
X36477830Y-110877292D01*
X36535036Y-110663800D01*
X35454400Y-110663800D01*
X34954400Y-110663800D01*
X34954400Y-109083164D01*
X35454400Y-109083164D01*
X35454400Y-110163800D01*
X36535036Y-110163800D01*
X36535035Y-110163799D01*
X36477830Y-109950307D01*
X36377999Y-109736221D01*
X36242509Y-109542721D01*
X36075481Y-109375693D01*
X35881976Y-109240199D01*
X35667892Y-109140369D01*
X35454400Y-109083164D01*
X34954400Y-109083164D01*
X34954399Y-109083164D01*
X34740907Y-109140369D01*
X34526821Y-109240200D01*
X34475223Y-109276330D01*
X34412210Y-109298490D01*
X34346843Y-109284744D01*
X34298091Y-109239083D01*
X34280100Y-109174755D01*
X34280100Y-108537083D01*
X34294111Y-108479826D01*
X34332977Y-108435508D01*
X34468740Y-108340446D01*
X34629646Y-108179540D01*
X34677879Y-108110655D01*
X34760168Y-107993134D01*
X34856339Y-107786896D01*
X34915235Y-107567092D01*
X34935068Y-107340400D01*
X35372131Y-107340400D01*
X35391964Y-107567089D01*
X35450861Y-107786897D01*
X35547032Y-107993135D01*
X35677553Y-108179540D01*
X35838459Y-108340446D01*
X36024864Y-108470967D01*
X36024865Y-108470967D01*
X36024866Y-108470968D01*
X36231104Y-108567139D01*
X36450908Y-108626035D01*
X36677600Y-108645868D01*
X36904292Y-108626035D01*
X37124096Y-108567139D01*
X37330334Y-108470968D01*
X37516739Y-108340447D01*
X37677647Y-108179539D01*
X37808168Y-107993134D01*
X37904339Y-107786896D01*
X37963235Y-107567092D01*
X37983068Y-107340400D01*
X38420131Y-107340400D01*
X38439964Y-107567089D01*
X38498861Y-107786897D01*
X38595032Y-107993135D01*
X38725553Y-108179540D01*
X38886459Y-108340446D01*
X39072864Y-108470967D01*
X39072865Y-108470967D01*
X39072866Y-108470968D01*
X39279104Y-108567139D01*
X39498908Y-108626035D01*
X39725600Y-108645868D01*
X39952292Y-108626035D01*
X40172096Y-108567139D01*
X40378334Y-108470968D01*
X40564739Y-108340447D01*
X40725647Y-108179539D01*
X40856168Y-107993134D01*
X40952339Y-107786896D01*
X41011235Y-107567092D01*
X41031068Y-107340400D01*
X41011235Y-107113708D01*
X40952339Y-106893904D01*
X40856168Y-106687666D01*
X40788375Y-106590847D01*
X40725646Y-106501259D01*
X40564740Y-106340353D01*
X40378335Y-106209832D01*
X40172097Y-106113661D01*
X39952289Y-106054764D01*
X39725600Y-106034931D01*
X39498910Y-106054764D01*
X39279102Y-106113661D01*
X39072864Y-106209832D01*
X38886459Y-106340353D01*
X38725553Y-106501259D01*
X38595032Y-106687664D01*
X38498861Y-106893902D01*
X38439964Y-107113710D01*
X38420131Y-107340400D01*
X37983068Y-107340400D01*
X37963235Y-107113708D01*
X37904339Y-106893904D01*
X37808168Y-106687666D01*
X37740375Y-106590847D01*
X37677646Y-106501259D01*
X37516740Y-106340353D01*
X37330335Y-106209832D01*
X37124097Y-106113661D01*
X36904289Y-106054764D01*
X36677600Y-106034931D01*
X36450910Y-106054764D01*
X36231102Y-106113661D01*
X36024864Y-106209832D01*
X35838459Y-106340353D01*
X35677553Y-106501259D01*
X35547032Y-106687664D01*
X35450861Y-106893902D01*
X35391964Y-107113710D01*
X35372131Y-107340400D01*
X34935068Y-107340400D01*
X34915235Y-107113708D01*
X34856339Y-106893904D01*
X34760168Y-106687666D01*
X34692375Y-106590847D01*
X34629646Y-106501259D01*
X34468740Y-106340353D01*
X34282335Y-106209832D01*
X34076097Y-106113661D01*
X33856289Y-106054764D01*
X33629600Y-106034931D01*
X33402910Y-106054764D01*
X33183102Y-106113661D01*
X32976864Y-106209832D01*
X32790459Y-106340353D01*
X32629553Y-106501259D01*
X32499032Y-106687664D01*
X32402861Y-106893902D01*
X32343964Y-107113710D01*
X32324131Y-107340400D01*
X32343964Y-107567089D01*
X32402861Y-107786897D01*
X32499032Y-107993135D01*
X32629553Y-108179540D01*
X32790459Y-108340446D01*
X32926223Y-108435508D01*
X32965089Y-108479826D01*
X32979100Y-108537083D01*
X32979100Y-108950351D01*
X32960638Y-109015448D01*
X32910751Y-109061161D01*
X32844293Y-109073879D01*
X32664400Y-109058140D01*
X32428992Y-109078736D01*
X32200736Y-109139897D01*
X31986570Y-109239765D01*
X31793001Y-109375303D01*
X31671073Y-109497231D01*
X31618326Y-109528526D01*
X31557034Y-109530715D01*
X31502189Y-109503262D01*
X31467210Y-109452882D01*
X31458056Y-109428339D01*
X31418196Y-109321469D01*
X31331946Y-109206254D01*
X31331944Y-109206252D01*
X31331943Y-109206251D01*
X31281789Y-109168705D01*
X31245216Y-109124943D01*
X31232100Y-109069439D01*
X31232100Y-108537083D01*
X31246111Y-108479826D01*
X31284977Y-108435508D01*
X31420740Y-108340446D01*
X31581646Y-108179540D01*
X31629879Y-108110655D01*
X31712168Y-107993134D01*
X31808339Y-107786896D01*
X31867235Y-107567092D01*
X31887068Y-107340400D01*
X31867235Y-107113708D01*
X31808339Y-106893904D01*
X31712168Y-106687666D01*
X31644375Y-106590847D01*
X31581646Y-106501259D01*
X31420740Y-106340353D01*
X31234335Y-106209832D01*
X31028097Y-106113661D01*
X30808289Y-106054764D01*
X30581600Y-106034931D01*
X30354910Y-106054764D01*
X30135102Y-106113661D01*
X29928864Y-106209832D01*
X29742459Y-106340353D01*
X29581553Y-106501259D01*
X29451032Y-106687664D01*
X29354861Y-106893902D01*
X29295964Y-107113710D01*
X29276131Y-107340400D01*
X29295964Y-107567089D01*
X29354861Y-107786897D01*
X29451032Y-107993135D01*
X29581553Y-108179540D01*
X29742459Y-108340446D01*
X29878223Y-108435508D01*
X29917089Y-108479826D01*
X29931100Y-108537083D01*
X29931100Y-108939301D01*
X29914487Y-109001301D01*
X29869100Y-109046688D01*
X29807100Y-109063301D01*
X29226528Y-109063301D01*
X29196722Y-109066505D01*
X29166915Y-109069709D01*
X29032069Y-109120004D01*
X28916854Y-109206254D01*
X28830604Y-109321469D01*
X28790006Y-109430317D01*
X28749559Y-109485168D01*
X28686236Y-109510360D01*
X28619164Y-109498285D01*
X28568602Y-109452590D01*
X28549825Y-109387081D01*
X28540486Y-97180400D01*
X29276131Y-97180400D01*
X29295964Y-97407089D01*
X29354861Y-97626897D01*
X29451032Y-97833135D01*
X29581553Y-98019540D01*
X29742459Y-98180446D01*
X29928864Y-98310967D01*
X29928865Y-98310967D01*
X29928866Y-98310968D01*
X30135104Y-98407139D01*
X30354908Y-98466035D01*
X30581600Y-98485868D01*
X30808292Y-98466035D01*
X31028096Y-98407139D01*
X31234334Y-98310968D01*
X31420739Y-98180447D01*
X31581647Y-98019539D01*
X31712168Y-97833134D01*
X31808339Y-97626896D01*
X31867235Y-97407092D01*
X31887068Y-97180400D01*
X32324131Y-97180400D01*
X32343964Y-97407089D01*
X32402861Y-97626897D01*
X32499032Y-97833135D01*
X32629553Y-98019540D01*
X32790459Y-98180446D01*
X32976864Y-98310967D01*
X32976865Y-98310967D01*
X32976866Y-98310968D01*
X33183104Y-98407139D01*
X33402908Y-98466035D01*
X33629600Y-98485868D01*
X33856292Y-98466035D01*
X34076096Y-98407139D01*
X34282334Y-98310968D01*
X34468739Y-98180447D01*
X34629647Y-98019539D01*
X34760168Y-97833134D01*
X34856339Y-97626896D01*
X34915235Y-97407092D01*
X34935068Y-97180400D01*
X35372131Y-97180400D01*
X35391964Y-97407089D01*
X35450861Y-97626897D01*
X35547032Y-97833135D01*
X35677553Y-98019540D01*
X35838459Y-98180446D01*
X36024864Y-98310967D01*
X36024865Y-98310967D01*
X36024866Y-98310968D01*
X36231104Y-98407139D01*
X36450908Y-98466035D01*
X36677600Y-98485868D01*
X36904292Y-98466035D01*
X37124096Y-98407139D01*
X37330334Y-98310968D01*
X37516739Y-98180447D01*
X37677647Y-98019539D01*
X37808168Y-97833134D01*
X37904339Y-97626896D01*
X37963235Y-97407092D01*
X37983068Y-97180400D01*
X37963235Y-96953708D01*
X37904339Y-96733904D01*
X37808168Y-96527666D01*
X37801459Y-96518085D01*
X37677646Y-96341259D01*
X37516740Y-96180353D01*
X37330335Y-96049832D01*
X37124097Y-95953661D01*
X36904289Y-95894764D01*
X36677600Y-95874931D01*
X36450910Y-95894764D01*
X36231102Y-95953661D01*
X36024864Y-96049832D01*
X35838459Y-96180353D01*
X35677553Y-96341259D01*
X35547032Y-96527664D01*
X35450861Y-96733902D01*
X35391964Y-96953710D01*
X35372131Y-97180400D01*
X34935068Y-97180400D01*
X34915235Y-96953708D01*
X34856339Y-96733904D01*
X34760168Y-96527666D01*
X34753459Y-96518085D01*
X34629646Y-96341259D01*
X34468740Y-96180353D01*
X34282335Y-96049832D01*
X34076097Y-95953661D01*
X33856289Y-95894764D01*
X33629600Y-95874931D01*
X33402910Y-95894764D01*
X33183102Y-95953661D01*
X32976864Y-96049832D01*
X32790459Y-96180353D01*
X32629553Y-96341259D01*
X32499032Y-96527664D01*
X32402861Y-96733902D01*
X32343964Y-96953710D01*
X32324131Y-97180400D01*
X31887068Y-97180400D01*
X31867235Y-96953708D01*
X31808339Y-96733904D01*
X31712168Y-96527666D01*
X31705459Y-96518085D01*
X31581646Y-96341259D01*
X31420740Y-96180353D01*
X31234335Y-96049832D01*
X31028097Y-95953661D01*
X30808289Y-95894764D01*
X30581600Y-95874931D01*
X30354910Y-95894764D01*
X30135102Y-95953661D01*
X29928864Y-96049832D01*
X29742459Y-96180353D01*
X29581553Y-96341259D01*
X29451032Y-96527664D01*
X29354861Y-96733902D01*
X29295964Y-96953710D01*
X29276131Y-97180400D01*
X28540486Y-97180400D01*
X28530886Y-84633858D01*
X28547705Y-84571409D01*
X28593686Y-84525921D01*
X28656317Y-84509775D01*
X28718558Y-84527363D01*
X28763476Y-84573901D01*
X28788174Y-84618700D01*
X28835388Y-84704341D01*
X29032624Y-84979225D01*
X29149903Y-85107424D01*
X29260988Y-85228853D01*
X29517273Y-85449719D01*
X29797882Y-85638723D01*
X30098871Y-85793211D01*
X30211210Y-85834938D01*
X30416028Y-85911017D01*
X30744887Y-85990485D01*
X31080837Y-86030500D01*
X31334504Y-86030500D01*
X31334507Y-86030500D01*
X31429464Y-86024864D01*
X31587731Y-86015472D01*
X31920721Y-85955626D01*
X32244295Y-85856816D01*
X32244295Y-85856815D01*
X32244298Y-85856815D01*
X32553913Y-85720429D01*
X32692256Y-85638723D01*
X32845224Y-85548380D01*
X33114143Y-85343085D01*
X33356894Y-85107424D01*
X33570068Y-84844707D01*
X33750674Y-84558620D01*
X33896176Y-84253181D01*
X34004531Y-83932677D01*
X34074219Y-83601607D01*
X34104261Y-83264618D01*
X34094235Y-82926442D01*
X34044283Y-82591825D01*
X33955105Y-82265465D01*
X33827953Y-81951942D01*
X33825630Y-81947729D01*
X33769649Y-81846185D01*
X33664612Y-81655659D01*
X33467376Y-81380775D01*
X33239012Y-81131147D01*
X33099733Y-81011117D01*
X32982726Y-80910280D01*
X32702117Y-80721276D01*
X32401128Y-80566788D01*
X32129419Y-80465864D01*
X32083972Y-80448983D01*
X31849234Y-80392259D01*
X31755114Y-80369515D01*
X31671125Y-80359511D01*
X31419163Y-80329500D01*
X31165496Y-80329500D01*
X31165493Y-80329500D01*
X30912273Y-80344527D01*
X30579278Y-80404374D01*
X30255701Y-80503184D01*
X29946086Y-80639570D01*
X29654777Y-80811619D01*
X29385856Y-81016914D01*
X29143107Y-81252574D01*
X28929931Y-81515293D01*
X28757511Y-81788413D01*
X28711248Y-81831503D01*
X28649755Y-81846185D01*
X28589016Y-81828642D01*
X28544821Y-81783434D01*
X28528658Y-81722319D01*
X28524128Y-75801598D01*
X28540947Y-75739151D01*
X28586928Y-75693663D01*
X28649559Y-75677517D01*
X28711800Y-75695105D01*
X28756717Y-75741641D01*
X28835388Y-75884341D01*
X29032624Y-76159225D01*
X29260987Y-76408852D01*
X29260988Y-76408853D01*
X29517273Y-76629719D01*
X29797882Y-76818723D01*
X30098871Y-76973211D01*
X30184594Y-77005052D01*
X30416028Y-77091017D01*
X30744887Y-77170485D01*
X31080837Y-77210500D01*
X31334504Y-77210500D01*
X31334507Y-77210500D01*
X31429464Y-77204864D01*
X31587731Y-77195472D01*
X31920721Y-77135626D01*
X32244295Y-77036816D01*
X32244295Y-77036815D01*
X32244298Y-77036815D01*
X32553913Y-76900429D01*
X32697066Y-76815882D01*
X32845224Y-76728380D01*
X33114143Y-76523085D01*
X33356894Y-76287424D01*
X33570068Y-76024707D01*
X33750674Y-75738620D01*
X33896176Y-75433181D01*
X34004531Y-75112677D01*
X34074219Y-74781607D01*
X34093295Y-74567632D01*
X34104261Y-74444623D01*
X34103835Y-74430262D01*
X34094235Y-74106442D01*
X34044283Y-73771825D01*
X33955105Y-73445465D01*
X33827953Y-73131942D01*
X33810414Y-73100129D01*
X33758806Y-73006517D01*
X33664612Y-72835659D01*
X33467376Y-72560775D01*
X33239012Y-72311147D01*
X33171722Y-72253157D01*
X32982726Y-72090280D01*
X32702117Y-71901276D01*
X32401128Y-71746788D01*
X32136728Y-71648579D01*
X32083972Y-71628983D01*
X31859904Y-71574837D01*
X31755114Y-71549515D01*
X31671125Y-71539511D01*
X31419163Y-71509500D01*
X31165496Y-71509500D01*
X31165493Y-71509500D01*
X30912273Y-71524527D01*
X30579278Y-71584374D01*
X30255701Y-71683184D01*
X29946086Y-71819570D01*
X29654777Y-71991619D01*
X29385856Y-72196914D01*
X29143107Y-72432574D01*
X28929931Y-72695293D01*
X28750771Y-72979089D01*
X28704508Y-73022179D01*
X28643015Y-73036861D01*
X28582276Y-73019318D01*
X28538081Y-72974110D01*
X28521918Y-72912994D01*
X28518935Y-69013610D01*
X39377942Y-69013610D01*
X39424766Y-69050055D01*
X39643393Y-69168368D01*
X39878506Y-69249083D01*
X40123707Y-69290000D01*
X40372293Y-69290000D01*
X40617493Y-69249083D01*
X40852606Y-69168368D01*
X41071233Y-69050053D01*
X41118056Y-69013609D01*
X40248000Y-68143553D01*
X39377942Y-69013609D01*
X39377942Y-69013610D01*
X28518935Y-69013610D01*
X28517999Y-67790000D01*
X38742858Y-67790000D01*
X38763386Y-68037732D01*
X38824413Y-68278721D01*
X38924268Y-68506370D01*
X39024563Y-68659882D01*
X39024564Y-68659882D01*
X39894447Y-67790001D01*
X39894447Y-67790000D01*
X39024564Y-66920116D01*
X38924266Y-67073634D01*
X38824413Y-67301278D01*
X38763386Y-67542267D01*
X38742858Y-67790000D01*
X28517999Y-67790000D01*
X28516293Y-65560422D01*
X31567618Y-65560422D01*
X31598407Y-65708583D01*
X31598407Y-65708584D01*
X31598408Y-65708585D01*
X31668029Y-65842947D01*
X31709412Y-65887257D01*
X31771321Y-65953545D01*
X31799203Y-65970500D01*
X31900618Y-66032172D01*
X32046335Y-66073000D01*
X32159658Y-66073000D01*
X32271920Y-66057570D01*
X32410720Y-65997280D01*
X32528108Y-65901778D01*
X32615377Y-65778147D01*
X32666054Y-65635556D01*
X32676381Y-65484579D01*
X32665330Y-65431401D01*
X32645592Y-65336416D01*
X32645592Y-65336415D01*
X32575971Y-65202053D01*
X32472680Y-65091456D01*
X32472679Y-65091455D01*
X32472678Y-65091454D01*
X32376453Y-65032939D01*
X32343382Y-65012828D01*
X32197665Y-64972000D01*
X32084342Y-64972000D01*
X31972079Y-64987430D01*
X31833280Y-65047719D01*
X31715892Y-65143221D01*
X31628621Y-65266854D01*
X31577946Y-65409442D01*
X31567618Y-65560422D01*
X28516293Y-65560422D01*
X28513156Y-61460422D01*
X31567618Y-61460422D01*
X31598407Y-61608583D01*
X31598407Y-61608584D01*
X31598408Y-61608585D01*
X31668029Y-61742947D01*
X31722974Y-61801778D01*
X31771321Y-61853545D01*
X31790510Y-61865214D01*
X31900618Y-61932172D01*
X32046335Y-61973000D01*
X32159658Y-61973000D01*
X32271920Y-61957570D01*
X32410720Y-61897280D01*
X32528108Y-61801778D01*
X32615377Y-61678147D01*
X32616451Y-61675127D01*
X32631338Y-61633236D01*
X32666054Y-61535556D01*
X32676381Y-61384579D01*
X32675819Y-61381875D01*
X32652514Y-61269724D01*
X32645592Y-61236415D01*
X32575971Y-61102053D01*
X32472680Y-60991456D01*
X32472679Y-60991455D01*
X32472678Y-60991454D01*
X32375453Y-60932331D01*
X32343382Y-60912828D01*
X32197665Y-60872000D01*
X32084342Y-60872000D01*
X31972079Y-60887430D01*
X31833280Y-60947719D01*
X31715892Y-61043221D01*
X31628621Y-61166854D01*
X31577946Y-61309442D01*
X31567618Y-61460422D01*
X28513156Y-61460422D01*
X28512449Y-60536347D01*
X32810793Y-60536347D01*
X32811928Y-60548594D01*
X32831321Y-60757884D01*
X32892205Y-60971873D01*
X32991377Y-61171035D01*
X33125455Y-61348584D01*
X33289873Y-61498471D01*
X33479031Y-61615592D01*
X33479033Y-61615592D01*
X33479035Y-61615594D01*
X33686496Y-61695965D01*
X33863508Y-61729054D01*
X33912366Y-61749735D01*
X33948109Y-61788943D01*
X33964193Y-61839501D01*
X33968223Y-61882990D01*
X34029107Y-62096978D01*
X34128279Y-62296140D01*
X34262357Y-62473689D01*
X34435267Y-62631317D01*
X34433433Y-62633328D01*
X34463335Y-62664647D01*
X34479004Y-62724985D01*
X34463333Y-62785322D01*
X34420282Y-62830409D01*
X34291935Y-62909877D01*
X34127519Y-63059762D01*
X33993441Y-63237311D01*
X33894269Y-63436473D01*
X33833385Y-63650462D01*
X33812857Y-63872000D01*
X33833385Y-64093537D01*
X33894269Y-64307526D01*
X33993441Y-64506688D01*
X34127519Y-64684237D01*
X34291937Y-64834124D01*
X34481095Y-64951245D01*
X34481097Y-64951245D01*
X34481099Y-64951247D01*
X34688560Y-65031618D01*
X34907257Y-65072500D01*
X35129741Y-65072500D01*
X35129743Y-65072500D01*
X35348440Y-65031618D01*
X35374600Y-65021483D01*
X35430832Y-65013639D01*
X35484669Y-65031683D01*
X35524819Y-65071832D01*
X35542863Y-65125669D01*
X35563384Y-65347137D01*
X35624269Y-65561126D01*
X35723441Y-65760288D01*
X35857519Y-65937837D01*
X36021937Y-66087724D01*
X36211095Y-66204845D01*
X36211097Y-66204845D01*
X36211099Y-66204847D01*
X36418560Y-66285218D01*
X36637257Y-66326100D01*
X36859741Y-66326100D01*
X36859743Y-66326100D01*
X37078440Y-66285218D01*
X37285901Y-66204847D01*
X37475062Y-66087724D01*
X37639481Y-65937836D01*
X37773558Y-65760289D01*
X37872729Y-65561128D01*
X37872931Y-65560421D01*
X37895616Y-65480685D01*
X37933615Y-65347136D01*
X37954143Y-65125600D01*
X37933615Y-64904064D01*
X37902700Y-64795408D01*
X37872730Y-64690073D01*
X37773558Y-64490911D01*
X37639480Y-64313362D01*
X37475062Y-64163475D01*
X37285904Y-64046354D01*
X37204079Y-64014655D01*
X37078440Y-63965982D01*
X36859743Y-63925100D01*
X36637257Y-63925100D01*
X36601746Y-63931737D01*
X36558858Y-63939755D01*
X36499394Y-63936317D01*
X36448393Y-63905547D01*
X36230485Y-63687639D01*
X36198900Y-63633892D01*
X36142730Y-63436473D01*
X36043558Y-63237311D01*
X36040108Y-63232743D01*
X35909481Y-63059764D01*
X35844297Y-63000341D01*
X35814404Y-62958794D01*
X35803838Y-62908707D01*
X35803838Y-62745973D01*
X35816838Y-62690701D01*
X35853112Y-62647018D01*
X35905054Y-62624084D01*
X35961773Y-62626707D01*
X36011377Y-62654337D01*
X36025678Y-62667375D01*
X36214836Y-62784496D01*
X36214838Y-62784496D01*
X36214840Y-62784498D01*
X36422301Y-62864869D01*
X36640998Y-62905751D01*
X36863482Y-62905751D01*
X36863484Y-62905751D01*
X37082181Y-62864869D01*
X37275440Y-62790000D01*
X38742356Y-62790000D01*
X38762891Y-63037816D01*
X38762891Y-63037819D01*
X38762892Y-63037821D01*
X38823937Y-63278881D01*
X38843143Y-63322666D01*
X38923825Y-63506604D01*
X38923827Y-63506607D01*
X39059836Y-63714785D01*
X39228256Y-63897738D01*
X39228259Y-63897740D01*
X39424485Y-64050470D01*
X39424487Y-64050471D01*
X39424491Y-64050474D01*
X39643190Y-64168828D01*
X39878386Y-64249571D01*
X40123665Y-64290500D01*
X40372335Y-64290500D01*
X40617614Y-64249571D01*
X40852810Y-64168828D01*
X40908082Y-64138916D01*
X40969663Y-64123997D01*
X41030574Y-64141448D01*
X41074912Y-64186712D01*
X41091100Y-64247971D01*
X41091100Y-66332598D01*
X41074912Y-66393856D01*
X41030574Y-66439120D01*
X40969663Y-66456572D01*
X40908083Y-66441653D01*
X40852607Y-66411631D01*
X40617493Y-66330916D01*
X40372293Y-66290000D01*
X40123707Y-66290000D01*
X39878506Y-66330916D01*
X39643393Y-66411631D01*
X39424764Y-66529946D01*
X39377942Y-66566388D01*
X39377942Y-66566390D01*
X40248000Y-67436447D01*
X41471434Y-68659882D01*
X41571730Y-68506369D01*
X41671586Y-68278721D01*
X41732613Y-68037732D01*
X41753141Y-67789999D01*
X41732613Y-67542267D01*
X41671586Y-67301278D01*
X41602045Y-67142739D01*
X41591619Y-67090793D01*
X41603828Y-67039237D01*
X41636443Y-66997483D01*
X41683506Y-66973155D01*
X41795874Y-66943047D01*
X41911826Y-66876101D01*
X42006501Y-66781426D01*
X42073447Y-66665474D01*
X42108100Y-66536145D01*
X42108100Y-66469200D01*
X42108100Y-66468700D01*
X42108100Y-65289999D01*
X43434487Y-65289999D01*
X43454525Y-65685116D01*
X43514431Y-66076168D01*
X43540831Y-66178128D01*
X43612925Y-66456572D01*
X43613599Y-66459173D01*
X43750120Y-66827791D01*
X43750998Y-66830162D01*
X43925228Y-67185353D01*
X43997485Y-67301278D01*
X44134500Y-67521099D01*
X44376659Y-67833943D01*
X44649230Y-68120688D01*
X44949409Y-68378383D01*
X44949412Y-68378385D01*
X45274124Y-68604391D01*
X45274126Y-68604392D01*
X45611799Y-68791816D01*
X45620035Y-68796387D01*
X45983595Y-68952403D01*
X46361073Y-69070838D01*
X46717274Y-69144038D01*
X46771480Y-69170063D01*
X46807071Y-69218531D01*
X46815675Y-69278045D01*
X46795268Y-69334608D01*
X46750649Y-69374920D01*
X46692311Y-69389500D01*
X45600130Y-69389500D01*
X45540515Y-69395909D01*
X45405669Y-69446204D01*
X45290454Y-69532454D01*
X45204204Y-69647668D01*
X45153909Y-69782515D01*
X45153909Y-69782517D01*
X45148735Y-69830645D01*
X45147500Y-69842130D01*
X45147500Y-71937869D01*
X45153279Y-71991620D01*
X45153909Y-71997483D01*
X45204204Y-72132331D01*
X45290454Y-72247546D01*
X45405669Y-72333796D01*
X45511634Y-72373318D01*
X45566497Y-72413779D01*
X45591682Y-72477125D01*
X45579579Y-72544211D01*
X45533844Y-72594762D01*
X45468301Y-72613500D01*
X44872130Y-72613500D01*
X44812515Y-72619909D01*
X44677669Y-72670204D01*
X44562454Y-72756454D01*
X44476204Y-72871668D01*
X44425909Y-73006516D01*
X44419500Y-73066130D01*
X44419500Y-74761869D01*
X44425909Y-74821484D01*
X44444317Y-74870837D01*
X44476204Y-74956331D01*
X44562454Y-75071546D01*
X44677669Y-75157796D01*
X44812517Y-75208091D01*
X44872127Y-75214500D01*
X46567872Y-75214499D01*
X46627483Y-75208091D01*
X46762331Y-75157796D01*
X46877546Y-75071546D01*
X46963796Y-74956331D01*
X47014091Y-74821483D01*
X47020500Y-74761873D01*
X47020499Y-73066128D01*
X47014091Y-73006517D01*
X46963796Y-72871669D01*
X46877546Y-72756454D01*
X46762331Y-72670204D01*
X46701649Y-72647571D01*
X46656365Y-72630681D01*
X46601503Y-72590219D01*
X46576318Y-72526873D01*
X46588422Y-72459787D01*
X46634156Y-72409237D01*
X46699696Y-72390499D01*
X47788302Y-72390499D01*
X47853844Y-72409237D01*
X47899578Y-72459787D01*
X47911682Y-72526873D01*
X47886497Y-72590219D01*
X47831635Y-72630681D01*
X47725669Y-72670204D01*
X47610454Y-72756454D01*
X47524204Y-72871668D01*
X47473909Y-73006516D01*
X47467500Y-73066130D01*
X47467500Y-74761869D01*
X47473909Y-74821484D01*
X47492317Y-74870837D01*
X47524204Y-74956331D01*
X47610454Y-75071546D01*
X47725669Y-75157796D01*
X47860517Y-75208091D01*
X47920127Y-75214500D01*
X49615872Y-75214499D01*
X49675483Y-75208091D01*
X49810331Y-75157796D01*
X49925546Y-75071546D01*
X50011796Y-74956331D01*
X50062091Y-74821483D01*
X50068500Y-74761873D01*
X50068499Y-73066128D01*
X50062091Y-73006517D01*
X50011796Y-72871669D01*
X49925546Y-72756454D01*
X49810331Y-72670204D01*
X49675483Y-72619909D01*
X49615873Y-72613500D01*
X49615869Y-72613500D01*
X49027699Y-72613500D01*
X48962156Y-72594762D01*
X48916422Y-72544211D01*
X48904318Y-72477125D01*
X48929503Y-72413779D01*
X48984365Y-72373318D01*
X49090331Y-72333796D01*
X49205546Y-72247546D01*
X49291796Y-72132331D01*
X49342091Y-71997483D01*
X49348500Y-71937873D01*
X49348499Y-69842128D01*
X49342091Y-69782517D01*
X49291796Y-69647669D01*
X49205546Y-69532454D01*
X49090331Y-69446204D01*
X48955483Y-69395909D01*
X48895873Y-69389500D01*
X48895869Y-69389500D01*
X47987690Y-69389500D01*
X47929352Y-69374920D01*
X47884733Y-69334608D01*
X47864326Y-69278045D01*
X47872930Y-69218531D01*
X47908520Y-69170063D01*
X47962727Y-69144038D01*
X48318927Y-69070838D01*
X48696405Y-68952403D01*
X49059965Y-68796387D01*
X49405876Y-68604391D01*
X49730588Y-68378385D01*
X50030769Y-68120688D01*
X50303340Y-67833944D01*
X50545502Y-67521095D01*
X50754772Y-67185353D01*
X50929002Y-66830162D01*
X51066403Y-66459167D01*
X51165567Y-66076174D01*
X51225475Y-65685114D01*
X51245513Y-65290000D01*
X51225475Y-64894886D01*
X51166006Y-64506689D01*
X51165568Y-64503831D01*
X51162223Y-64490911D01*
X51066403Y-64120833D01*
X50929002Y-63749838D01*
X50754772Y-63394647D01*
X50546039Y-63059766D01*
X50545499Y-63058900D01*
X50303340Y-62746056D01*
X50030769Y-62459311D01*
X49730590Y-62201616D01*
X49405873Y-61975607D01*
X49059968Y-61783614D01*
X48696400Y-61627595D01*
X48318932Y-61509163D01*
X47962727Y-61435961D01*
X47908518Y-61409936D01*
X47872928Y-61361468D01*
X47864324Y-61301954D01*
X47884731Y-61245391D01*
X47929350Y-61205079D01*
X47987686Y-61190499D01*
X48895872Y-61190499D01*
X48955483Y-61184091D01*
X49090331Y-61133796D01*
X49205546Y-61047546D01*
X49291796Y-60932331D01*
X49342091Y-60797483D01*
X49348500Y-60737873D01*
X49348499Y-58642128D01*
X49342091Y-58582517D01*
X49291796Y-58447669D01*
X49205546Y-58332454D01*
X49090331Y-58246204D01*
X48955483Y-58195909D01*
X48895873Y-58189500D01*
X48895869Y-58189500D01*
X45600130Y-58189500D01*
X45540515Y-58195909D01*
X45405669Y-58246204D01*
X45290454Y-58332454D01*
X45204204Y-58447668D01*
X45153909Y-58582516D01*
X45147500Y-58642130D01*
X45147500Y-60737869D01*
X45153909Y-60797484D01*
X45172457Y-60847212D01*
X45204204Y-60932331D01*
X45290454Y-61047546D01*
X45405669Y-61133796D01*
X45540517Y-61184091D01*
X45600127Y-61190500D01*
X46692311Y-61190499D01*
X46750647Y-61205079D01*
X46795265Y-61245391D01*
X46815673Y-61301954D01*
X46807069Y-61361467D01*
X46771479Y-61409936D01*
X46717270Y-61435961D01*
X46361067Y-61509163D01*
X45983599Y-61627595D01*
X45620031Y-61783614D01*
X45274126Y-61975607D01*
X44949409Y-62201616D01*
X44649230Y-62459311D01*
X44376659Y-62746056D01*
X44134500Y-63058900D01*
X43925228Y-63394647D01*
X43750996Y-63749842D01*
X43613599Y-64120826D01*
X43613597Y-64120831D01*
X43613597Y-64120833D01*
X43602556Y-64163475D01*
X43514431Y-64503831D01*
X43454525Y-64894883D01*
X43434487Y-65289999D01*
X42108100Y-65289999D01*
X42108100Y-64081501D01*
X42108100Y-64014655D01*
X42073447Y-63885326D01*
X42006501Y-63769374D01*
X41911826Y-63674699D01*
X41795874Y-63607753D01*
X41795873Y-63607752D01*
X41795872Y-63607752D01*
X41695456Y-63580846D01*
X41648391Y-63556516D01*
X41615777Y-63514762D01*
X41603568Y-63463206D01*
X41613994Y-63411264D01*
X41672063Y-63278881D01*
X41733108Y-63037821D01*
X41753643Y-62790000D01*
X41733108Y-62542179D01*
X41672063Y-62301119D01*
X41572173Y-62073393D01*
X41436164Y-61865215D01*
X41267744Y-61682262D01*
X41245612Y-61665036D01*
X41071514Y-61529529D01*
X41071510Y-61529526D01*
X41071509Y-61529526D01*
X40852810Y-61411172D01*
X40852806Y-61411170D01*
X40852805Y-61411170D01*
X40617615Y-61330429D01*
X40372335Y-61289500D01*
X40123665Y-61289500D01*
X39878384Y-61330429D01*
X39643194Y-61411170D01*
X39643190Y-61411171D01*
X39643190Y-61411172D01*
X39576751Y-61447127D01*
X39424485Y-61529529D01*
X39228259Y-61682259D01*
X39228256Y-61682261D01*
X39228256Y-61682262D01*
X39059836Y-61865215D01*
X39016092Y-61932170D01*
X38923825Y-62073395D01*
X38864521Y-62208597D01*
X38823937Y-62301119D01*
X38769145Y-62517487D01*
X38762891Y-62542183D01*
X38742356Y-62790000D01*
X37275440Y-62790000D01*
X37289642Y-62784498D01*
X37478803Y-62667375D01*
X37643222Y-62517487D01*
X37777299Y-62339940D01*
X37876470Y-62140779D01*
X37888933Y-62096978D01*
X37909060Y-62026236D01*
X37937356Y-61926787D01*
X37957884Y-61705251D01*
X37937356Y-61483715D01*
X37902574Y-61361468D01*
X37876471Y-61269724D01*
X37777299Y-61070562D01*
X37643221Y-60893013D01*
X37478803Y-60743126D01*
X37289645Y-60626005D01*
X37211506Y-60595734D01*
X37082181Y-60545633D01*
X36863484Y-60504751D01*
X36640998Y-60504751D01*
X36426730Y-60544805D01*
X36422301Y-60545633D01*
X36214836Y-60626005D01*
X36047090Y-60729869D01*
X35997050Y-60747502D01*
X35944221Y-60742607D01*
X35898274Y-60716078D01*
X35879900Y-60699327D01*
X35690742Y-60582206D01*
X35483278Y-60501834D01*
X35306265Y-60468744D01*
X35257406Y-60448063D01*
X35221663Y-60408854D01*
X35205580Y-60358295D01*
X35201551Y-60314811D01*
X35187378Y-60264997D01*
X35140666Y-60100820D01*
X35041494Y-59901658D01*
X34907416Y-59724109D01*
X34757398Y-59587350D01*
X34727502Y-59545799D01*
X34716936Y-59495713D01*
X34716936Y-58222283D01*
X34726375Y-58174830D01*
X34753255Y-58134602D01*
X35305838Y-57582019D01*
X35346066Y-57555139D01*
X35393519Y-57545700D01*
X38063281Y-57545700D01*
X38110734Y-57555139D01*
X38150962Y-57582019D01*
X38954227Y-58385284D01*
X38983176Y-58430853D01*
X38990017Y-58484405D01*
X38978510Y-58608598D01*
X38977157Y-58623200D01*
X38986021Y-58718854D01*
X38997685Y-58844737D01*
X39058569Y-59058726D01*
X39157741Y-59257888D01*
X39291819Y-59435437D01*
X39456237Y-59585324D01*
X39645395Y-59702445D01*
X39645397Y-59702445D01*
X39645399Y-59702447D01*
X39852860Y-59782818D01*
X40071557Y-59823700D01*
X40294041Y-59823700D01*
X40294043Y-59823700D01*
X40512740Y-59782818D01*
X40720201Y-59702447D01*
X40909362Y-59585324D01*
X41073781Y-59435436D01*
X41207858Y-59257889D01*
X41307029Y-59058728D01*
X41312378Y-59039930D01*
X41339301Y-58945302D01*
X41367915Y-58844736D01*
X41388443Y-58623200D01*
X41367915Y-58401664D01*
X41316877Y-58222283D01*
X41307030Y-58187673D01*
X41207858Y-57988511D01*
X41073780Y-57810962D01*
X40909362Y-57661075D01*
X40720204Y-57543954D01*
X40630310Y-57509129D01*
X40512740Y-57463582D01*
X40294043Y-57422700D01*
X40071557Y-57422700D01*
X40052728Y-57426219D01*
X39993266Y-57422779D01*
X39942267Y-57392010D01*
X38917740Y-56367483D01*
X38912622Y-56362047D01*
X38872729Y-56317017D01*
X38866983Y-56313051D01*
X38823236Y-56282854D01*
X38817205Y-56278416D01*
X38769854Y-56241320D01*
X38760613Y-56237161D01*
X38741073Y-56226141D01*
X38732730Y-56220382D01*
X38732727Y-56220381D01*
X38732726Y-56220380D01*
X38676501Y-56199056D01*
X38669583Y-56196191D01*
X38614729Y-56171503D01*
X38604752Y-56169675D01*
X38583139Y-56163650D01*
X38573673Y-56160060D01*
X38513972Y-56152810D01*
X38506571Y-56151683D01*
X38447407Y-56140841D01*
X38387366Y-56144474D01*
X38379879Y-56144700D01*
X35076921Y-56144700D01*
X35069434Y-56144474D01*
X35009391Y-56140841D01*
X34950227Y-56151683D01*
X34942828Y-56152810D01*
X34883124Y-56160060D01*
X34873651Y-56163653D01*
X34852047Y-56169676D01*
X34842069Y-56171505D01*
X34787225Y-56196187D01*
X34780310Y-56199051D01*
X34724070Y-56220381D01*
X34715723Y-56226143D01*
X34696187Y-56237161D01*
X34686944Y-56241321D01*
X34639608Y-56278405D01*
X34633582Y-56282839D01*
X34584072Y-56317016D01*
X34544184Y-56362038D01*
X34539052Y-56367489D01*
X33538726Y-57367815D01*
X33533274Y-57372947D01*
X33488252Y-57412834D01*
X33454085Y-57462332D01*
X33449649Y-57468361D01*
X33412557Y-57515706D01*
X33408397Y-57524950D01*
X33397377Y-57544489D01*
X33391618Y-57552833D01*
X33370289Y-57609069D01*
X33367425Y-57615983D01*
X33342739Y-57670834D01*
X33340911Y-57680811D01*
X33334890Y-57702412D01*
X33331295Y-57711892D01*
X33324045Y-57771591D01*
X33322919Y-57778990D01*
X33312077Y-57838155D01*
X33315710Y-57898198D01*
X33315936Y-57905685D01*
X33315936Y-59495713D01*
X33305370Y-59545799D01*
X33275474Y-59587350D01*
X33125455Y-59724109D01*
X32991377Y-59901658D01*
X32892205Y-60100820D01*
X32831321Y-60314809D01*
X32817779Y-60460952D01*
X32810793Y-60536347D01*
X28512449Y-60536347D01*
X28507463Y-54019999D01*
X28764531Y-54019999D01*
X28784364Y-54246688D01*
X28843261Y-54466496D01*
X28939432Y-54672734D01*
X29069953Y-54859139D01*
X29230859Y-55020045D01*
X29417264Y-55150566D01*
X29417265Y-55150566D01*
X29417266Y-55150567D01*
X29623504Y-55246738D01*
X29843308Y-55305634D01*
X30070000Y-55325467D01*
X30296692Y-55305634D01*
X30516496Y-55246738D01*
X30517021Y-55246493D01*
X31527835Y-55246493D01*
X31546405Y-55482451D01*
X31601657Y-55712596D01*
X31665704Y-55867217D01*
X31692234Y-55931265D01*
X31815902Y-56133074D01*
X31969618Y-56313051D01*
X32149595Y-56466767D01*
X32351404Y-56590435D01*
X32483010Y-56644948D01*
X32570072Y-56681011D01*
X32595956Y-56687225D01*
X32800219Y-56736264D01*
X33036176Y-56754834D01*
X33272133Y-56736264D01*
X33502279Y-56681011D01*
X33720948Y-56590435D01*
X33922757Y-56466767D01*
X34102734Y-56313051D01*
X34256450Y-56133074D01*
X34380118Y-55931265D01*
X34470694Y-55712596D01*
X34525947Y-55482450D01*
X34544517Y-55246493D01*
X34525947Y-55010536D01*
X34470694Y-54780390D01*
X34458050Y-54749866D01*
X34428385Y-54678247D01*
X34380118Y-54561721D01*
X34256450Y-54359912D01*
X34102734Y-54179935D01*
X33922757Y-54026219D01*
X33720948Y-53902551D01*
X33656900Y-53876021D01*
X33502279Y-53811974D01*
X33272134Y-53756722D01*
X33036176Y-53738152D01*
X32800217Y-53756722D01*
X32570072Y-53811974D01*
X32351404Y-53902551D01*
X32149594Y-54026219D01*
X31969618Y-54179935D01*
X31815902Y-54359911D01*
X31692234Y-54561721D01*
X31601657Y-54780389D01*
X31546405Y-55010534D01*
X31527835Y-55246493D01*
X30517021Y-55246493D01*
X30722734Y-55150567D01*
X30909139Y-55020046D01*
X31070047Y-54859138D01*
X31200568Y-54672733D01*
X31296739Y-54466495D01*
X31355635Y-54246691D01*
X31375468Y-54019999D01*
X31355635Y-53793307D01*
X31332909Y-53708493D01*
X34387846Y-53708493D01*
X34407078Y-53928316D01*
X34464193Y-54141469D01*
X34557446Y-54341453D01*
X34557448Y-54341455D01*
X34557449Y-54341458D01*
X34684018Y-54522216D01*
X34840053Y-54678251D01*
X35020811Y-54804820D01*
X35020814Y-54804821D01*
X35020815Y-54804822D01*
X35043466Y-54815384D01*
X35220803Y-54898077D01*
X35433950Y-54955190D01*
X35653776Y-54974422D01*
X35873602Y-54955190D01*
X36086749Y-54898077D01*
X36286741Y-54804820D01*
X36467499Y-54678251D01*
X36623534Y-54522216D01*
X36750103Y-54341458D01*
X36843360Y-54141466D01*
X36900473Y-53928319D01*
X36919705Y-53708493D01*
X36900473Y-53488667D01*
X36843360Y-53275520D01*
X36750103Y-53075529D01*
X36623534Y-52894770D01*
X36467499Y-52738735D01*
X36286741Y-52612166D01*
X36286738Y-52612165D01*
X36286736Y-52612163D01*
X36086752Y-52518910D01*
X36086749Y-52518909D01*
X35894983Y-52467525D01*
X35873599Y-52461795D01*
X35653776Y-52442563D01*
X35433952Y-52461795D01*
X35220801Y-52518909D01*
X35020818Y-52612163D01*
X35020812Y-52612166D01*
X34840053Y-52738735D01*
X34840049Y-52738738D01*
X34684021Y-52894766D01*
X34684018Y-52894769D01*
X34684018Y-52894770D01*
X34596365Y-53019952D01*
X34557448Y-53075531D01*
X34464192Y-53275518D01*
X34407078Y-53488669D01*
X34387846Y-53708493D01*
X31332909Y-53708493D01*
X31296739Y-53573503D01*
X31200568Y-53367265D01*
X31171888Y-53326306D01*
X31070046Y-53180858D01*
X30909140Y-53019952D01*
X30722735Y-52889431D01*
X30516497Y-52793260D01*
X30296689Y-52734363D01*
X30070000Y-52714530D01*
X29843310Y-52734363D01*
X29623502Y-52793260D01*
X29417264Y-52889431D01*
X29230859Y-53019952D01*
X29069953Y-53180858D01*
X28939432Y-53367263D01*
X28843261Y-53573501D01*
X28784364Y-53793309D01*
X28764531Y-54019999D01*
X28507463Y-54019999D01*
X28503584Y-48950000D01*
X31765331Y-48950000D01*
X31785164Y-49176689D01*
X31844061Y-49396497D01*
X31940232Y-49602735D01*
X32070753Y-49789140D01*
X32231659Y-49950046D01*
X32418064Y-50080567D01*
X32418065Y-50080567D01*
X32418066Y-50080568D01*
X32624304Y-50176739D01*
X32844108Y-50235635D01*
X33070800Y-50255468D01*
X33297492Y-50235635D01*
X33517296Y-50176739D01*
X33723534Y-50080568D01*
X33909939Y-49950047D01*
X34070847Y-49789139D01*
X34201368Y-49602734D01*
X34297539Y-49396496D01*
X34339528Y-49239791D01*
X39075997Y-49239791D01*
X39079940Y-49271288D01*
X39080900Y-49286688D01*
X39080900Y-51266914D01*
X39080826Y-51271210D01*
X39078712Y-51332178D01*
X39087949Y-51370164D01*
X39090305Y-51382578D01*
X39095628Y-51421310D01*
X39102197Y-51436434D01*
X39108949Y-51456528D01*
X39112844Y-51472544D01*
X39131984Y-51506625D01*
X39137600Y-51517939D01*
X39153181Y-51553809D01*
X39163000Y-51565879D01*
X39163581Y-51566592D01*
X39175511Y-51584130D01*
X39183578Y-51598496D01*
X39211212Y-51626158D01*
X39219672Y-51635538D01*
X39244345Y-51665865D01*
X39257803Y-51675364D01*
X39274022Y-51689032D01*
X39285673Y-51700695D01*
X39319747Y-51719876D01*
X39330420Y-51726623D01*
X39362360Y-51749170D01*
X39362363Y-51749171D01*
X39377891Y-51754689D01*
X39397191Y-51763473D01*
X39411555Y-51771559D01*
X39449543Y-51780836D01*
X39461635Y-51784452D01*
X39498479Y-51797546D01*
X39514924Y-51798670D01*
X39535877Y-51801921D01*
X39551886Y-51805832D01*
X39590974Y-51804516D01*
X39603577Y-51804734D01*
X39642599Y-51807404D01*
X39658738Y-51804050D01*
X39679791Y-51801527D01*
X39696261Y-51800973D01*
X39733523Y-51789167D01*
X39745734Y-51785972D01*
X39784034Y-51778014D01*
X39798674Y-51770427D01*
X39818259Y-51762320D01*
X39833972Y-51757343D01*
X39866672Y-51735917D01*
X39877574Y-51729544D01*
X39912295Y-51711554D01*
X39924344Y-51700299D01*
X39941019Y-51687208D01*
X41299150Y-50797397D01*
X41311226Y-50791495D01*
X41317925Y-50786886D01*
X41317929Y-50786885D01*
X41371436Y-50750074D01*
X41373675Y-50748571D01*
X41397657Y-50732860D01*
X41397659Y-50732857D01*
X41398337Y-50732414D01*
X41407975Y-50724937D01*
X41409628Y-50723800D01*
X42152462Y-50723800D01*
X42177862Y-55016400D01*
X42208136Y-55046189D01*
X42236548Y-55089157D01*
X42245048Y-55139963D01*
X42232169Y-55189840D01*
X42229594Y-55195010D01*
X42171243Y-55400089D01*
X42156500Y-55559205D01*
X42156500Y-56515595D01*
X42171243Y-56674710D01*
X42229595Y-56879790D01*
X42324631Y-57070652D01*
X42429917Y-57210071D01*
X42453128Y-57240807D01*
X42610698Y-57384452D01*
X42791981Y-57496698D01*
X42990802Y-57573721D01*
X43200390Y-57612900D01*
X43413608Y-57612900D01*
X43413610Y-57612900D01*
X43623198Y-57573721D01*
X43822019Y-57496698D01*
X44003302Y-57384452D01*
X44160872Y-57240807D01*
X44289366Y-57070655D01*
X44289366Y-57070653D01*
X44289368Y-57070652D01*
X44344950Y-56959026D01*
X44384405Y-56879789D01*
X44442756Y-56674710D01*
X44453528Y-56558450D01*
X44473633Y-56501398D01*
X44518336Y-56460646D01*
X44577000Y-56445891D01*
X44635664Y-56460646D01*
X44680367Y-56501398D01*
X44700471Y-56558450D01*
X44711243Y-56674710D01*
X44769595Y-56879790D01*
X44864631Y-57070652D01*
X44969917Y-57210071D01*
X44993128Y-57240807D01*
X45150698Y-57384452D01*
X45331981Y-57496698D01*
X45530802Y-57573721D01*
X45740390Y-57612900D01*
X45953608Y-57612900D01*
X45953610Y-57612900D01*
X46163198Y-57573721D01*
X46362019Y-57496698D01*
X46543302Y-57384452D01*
X46700872Y-57240807D01*
X46829366Y-57070655D01*
X46829366Y-57070653D01*
X46829368Y-57070652D01*
X46884950Y-56959026D01*
X46924405Y-56879789D01*
X46982756Y-56674710D01*
X46993528Y-56558450D01*
X47013633Y-56501398D01*
X47058336Y-56460646D01*
X47117000Y-56445891D01*
X47175664Y-56460646D01*
X47220367Y-56501398D01*
X47240471Y-56558450D01*
X47251243Y-56674710D01*
X47309595Y-56879790D01*
X47404631Y-57070652D01*
X47509917Y-57210071D01*
X47533128Y-57240807D01*
X47690698Y-57384452D01*
X47871981Y-57496698D01*
X48070802Y-57573721D01*
X48280390Y-57612900D01*
X48493608Y-57612900D01*
X48493610Y-57612900D01*
X48703198Y-57573721D01*
X48902019Y-57496698D01*
X49083302Y-57384452D01*
X49240872Y-57240807D01*
X49369366Y-57070655D01*
X49445956Y-56916839D01*
X49492354Y-56866269D01*
X49558545Y-56848122D01*
X49624249Y-56867961D01*
X49669337Y-56919707D01*
X49753400Y-57099978D01*
X49888890Y-57293478D01*
X50055918Y-57460506D01*
X50249423Y-57596000D01*
X50463507Y-57695830D01*
X50676999Y-57753035D01*
X50677000Y-57753036D01*
X50677000Y-55871400D01*
X50693613Y-55809400D01*
X50739000Y-55764013D01*
X50801000Y-55747400D01*
X51053000Y-55747400D01*
X51115000Y-55764013D01*
X51160387Y-55809400D01*
X51177000Y-55871400D01*
X51177000Y-57753035D01*
X51390492Y-57695830D01*
X51604578Y-57595999D01*
X51798078Y-57460509D01*
X51965109Y-57293478D01*
X52100599Y-57099978D01*
X52166326Y-56959026D01*
X52634526Y-56959026D01*
X52707515Y-57010133D01*
X52913673Y-57106266D01*
X53133397Y-57165141D01*
X53360000Y-57184966D01*
X53586602Y-57165141D01*
X53806326Y-57106266D01*
X54012480Y-57010134D01*
X54085472Y-56959025D01*
X53360001Y-56233553D01*
X53360000Y-56233553D01*
X52634526Y-56959025D01*
X52634526Y-56959026D01*
X52166326Y-56959026D01*
X52200430Y-56885891D01*
X52264990Y-56644948D01*
X52297084Y-56589360D01*
X53006446Y-55880001D01*
X53006446Y-55880000D01*
X52274135Y-55147688D01*
X52260708Y-55146119D01*
X52217278Y-55121044D01*
X52187331Y-55080818D01*
X52120880Y-54938313D01*
X52109262Y-54885908D01*
X52109262Y-54800973D01*
X52634526Y-54800973D01*
X53359998Y-55526446D01*
X53359999Y-55526446D01*
X54085472Y-54800973D01*
X54085471Y-54800972D01*
X54012484Y-54749866D01*
X53806326Y-54653733D01*
X53586602Y-54594858D01*
X53360000Y-54575033D01*
X53133397Y-54594858D01*
X52913672Y-54653733D01*
X52707516Y-54749865D01*
X52634526Y-54800973D01*
X52109262Y-54800973D01*
X52109262Y-51424158D01*
X52115608Y-51384998D01*
X52133995Y-51349847D01*
X52220352Y-51234488D01*
X52270597Y-51099775D01*
X52277000Y-51040224D01*
X52277000Y-50647600D01*
X55623850Y-50647600D01*
X55644016Y-50916700D01*
X55644017Y-50916703D01*
X55704066Y-51179795D01*
X55802657Y-51430998D01*
X55937585Y-51664702D01*
X56105839Y-51875685D01*
X56303659Y-52059235D01*
X56526626Y-52211251D01*
X56769759Y-52328338D01*
X57027628Y-52407880D01*
X57294471Y-52448100D01*
X57564328Y-52448100D01*
X57564329Y-52448100D01*
X57686455Y-52429692D01*
X57755648Y-52439152D01*
X57808757Y-52484507D01*
X57828930Y-52551369D01*
X57809770Y-52618529D01*
X57768914Y-52654501D01*
X57770346Y-52656546D01*
X57580649Y-52789372D01*
X57424572Y-52945449D01*
X57297968Y-53126259D01*
X57204685Y-53326304D01*
X57147556Y-53539515D01*
X57128318Y-53759399D01*
X57147556Y-53979284D01*
X57204151Y-54190503D01*
X57204685Y-54192494D01*
X57297968Y-54392541D01*
X57424572Y-54573350D01*
X57580650Y-54729428D01*
X57761459Y-54856032D01*
X57961506Y-54949315D01*
X58174713Y-55006443D01*
X58394600Y-55025681D01*
X58614487Y-55006443D01*
X58827694Y-54949315D01*
X59027741Y-54856032D01*
X59208550Y-54729428D01*
X59364628Y-54573350D01*
X59491232Y-54392541D01*
X59584515Y-54192494D01*
X59641643Y-53979287D01*
X59660881Y-53759400D01*
X59658970Y-53737563D01*
X59644617Y-53573503D01*
X59641643Y-53539513D01*
X59584515Y-53326306D01*
X59491232Y-53126260D01*
X59364628Y-52945450D01*
X59208550Y-52789372D01*
X59027741Y-52662768D01*
X58919218Y-52612163D01*
X58827695Y-52569485D01*
X58614484Y-52512356D01*
X58394598Y-52493118D01*
X58278968Y-52503234D01*
X58212142Y-52490330D01*
X58162193Y-52444099D01*
X58144168Y-52378468D01*
X58163499Y-52313210D01*
X58214355Y-52267989D01*
X58332175Y-52211251D01*
X58555141Y-52059235D01*
X58752961Y-51875685D01*
X58921215Y-51664702D01*
X59056143Y-51430998D01*
X59154734Y-51179795D01*
X59214783Y-50916703D01*
X59234949Y-50647600D01*
X59214783Y-50378497D01*
X59154734Y-50115405D01*
X59056143Y-49864202D01*
X58921215Y-49630498D01*
X58752961Y-49419515D01*
X58752960Y-49419514D01*
X58555143Y-49235966D01*
X58497035Y-49196349D01*
X58332175Y-49083949D01*
X58089041Y-48966862D01*
X57975470Y-48931830D01*
X57831171Y-48887319D01*
X57564329Y-48847100D01*
X57294471Y-48847100D01*
X57027628Y-48887319D01*
X56769759Y-48966862D01*
X56526628Y-49083947D01*
X56303657Y-49235966D01*
X56105839Y-49419515D01*
X55937584Y-49630499D01*
X55802657Y-49864201D01*
X55704066Y-50115404D01*
X55644016Y-50378499D01*
X55623850Y-50647600D01*
X52277000Y-50647600D01*
X52277000Y-49967400D01*
X50801000Y-49967400D01*
X50739000Y-49950787D01*
X50693613Y-49905400D01*
X50677000Y-49843400D01*
X50677000Y-49591400D01*
X50693613Y-49529400D01*
X50739000Y-49484013D01*
X50801000Y-49467400D01*
X52277000Y-49467400D01*
X52277000Y-48394576D01*
X52270597Y-48335024D01*
X52220352Y-48200310D01*
X52134188Y-48085211D01*
X52019089Y-47999047D01*
X51884375Y-47948802D01*
X51824824Y-47942400D01*
X51168200Y-47942400D01*
X51106200Y-47925787D01*
X51060813Y-47880400D01*
X51044200Y-47818400D01*
X51044200Y-47392400D01*
X49743200Y-47392400D01*
X49681200Y-47375787D01*
X49635813Y-47330400D01*
X49619200Y-47268400D01*
X49619200Y-45967400D01*
X50119200Y-45967400D01*
X50119200Y-46892400D01*
X51044200Y-46892400D01*
X51044200Y-46419576D01*
X51037797Y-46360024D01*
X50987552Y-46225310D01*
X50901388Y-46110211D01*
X50786289Y-46024047D01*
X50651575Y-45973802D01*
X50592024Y-45967400D01*
X50119200Y-45967400D01*
X49619200Y-45967400D01*
X49146376Y-45967400D01*
X49086824Y-45973802D01*
X48952110Y-46024047D01*
X48837011Y-46110211D01*
X48750847Y-46225310D01*
X48700602Y-46360024D01*
X48694200Y-46419576D01*
X48694200Y-46427211D01*
X48680089Y-46484660D01*
X48640968Y-46529034D01*
X48585741Y-46550233D01*
X48526977Y-46543434D01*
X48478050Y-46510183D01*
X48458249Y-46488191D01*
X48309362Y-46380019D01*
X48141231Y-46305162D01*
X47961220Y-46266900D01*
X47961219Y-46266900D01*
X47777181Y-46266900D01*
X47777180Y-46266900D01*
X47597168Y-46305162D01*
X47429037Y-46380019D01*
X47280150Y-46488191D01*
X47157004Y-46624959D01*
X47064985Y-46784340D01*
X47008115Y-46959369D01*
X46992521Y-47107743D01*
X46979907Y-47142399D01*
X46992520Y-47177053D01*
X47002121Y-47268400D01*
X47008115Y-47325430D01*
X47064985Y-47500459D01*
X47157004Y-47659840D01*
X47280150Y-47796608D01*
X47429037Y-47904780D01*
X47597168Y-47979637D01*
X47777180Y-48017900D01*
X47828672Y-48017900D01*
X47893949Y-48036473D01*
X47939672Y-48086628D01*
X47952143Y-48153341D01*
X47927626Y-48216626D01*
X47881420Y-48251519D01*
X47881751Y-48252053D01*
X47875994Y-48255617D01*
X47873467Y-48257526D01*
X47871983Y-48258100D01*
X47690698Y-48370347D01*
X47533126Y-48513994D01*
X47404631Y-48684147D01*
X47309595Y-48875009D01*
X47251243Y-49080089D01*
X47240471Y-49196349D01*
X47220367Y-49253401D01*
X47175664Y-49294153D01*
X47117000Y-49308908D01*
X47058336Y-49294153D01*
X47013633Y-49253401D01*
X46993529Y-49196349D01*
X46982756Y-49080089D01*
X46950048Y-48965136D01*
X46924405Y-48875011D01*
X46896578Y-48819126D01*
X46829368Y-48684147D01*
X46700873Y-48513994D01*
X46543301Y-48370347D01*
X46362019Y-48258102D01*
X46355604Y-48255617D01*
X46187450Y-48190474D01*
X46139893Y-48157594D01*
X46112413Y-48106721D01*
X46110989Y-48048919D01*
X46135929Y-47996754D01*
X46181810Y-47961570D01*
X46309361Y-47904781D01*
X46426834Y-47819432D01*
X46458249Y-47796608D01*
X46581395Y-47659840D01*
X46673414Y-47500459D01*
X46673414Y-47500458D01*
X46730285Y-47325429D01*
X46745879Y-47177053D01*
X46758492Y-47142399D01*
X46745879Y-47107743D01*
X46730285Y-46959371D01*
X46692206Y-46842175D01*
X46673414Y-46784340D01*
X46581395Y-46624959D01*
X46458249Y-46488191D01*
X46309362Y-46380019D01*
X46141231Y-46305162D01*
X45961220Y-46266900D01*
X45961219Y-46266900D01*
X45777181Y-46266900D01*
X45777180Y-46266900D01*
X45597168Y-46305162D01*
X45429037Y-46380019D01*
X45280150Y-46488191D01*
X45157004Y-46624959D01*
X45064985Y-46784340D01*
X45008115Y-46959369D01*
X44992521Y-47107743D01*
X44979907Y-47142399D01*
X44992520Y-47177053D01*
X45002121Y-47268400D01*
X45008115Y-47325430D01*
X45064985Y-47500459D01*
X45157004Y-47659840D01*
X45280150Y-47796608D01*
X45429037Y-47904780D01*
X45429038Y-47904780D01*
X45429039Y-47904781D01*
X45535930Y-47952372D01*
X45581812Y-47987556D01*
X45606752Y-48039720D01*
X45605328Y-48097523D01*
X45577848Y-48148396D01*
X45530288Y-48181278D01*
X45331980Y-48258102D01*
X45150698Y-48370347D01*
X44993126Y-48513994D01*
X44864631Y-48684147D01*
X44769595Y-48875009D01*
X44711243Y-49080089D01*
X44700471Y-49196349D01*
X44680367Y-49253401D01*
X44635664Y-49294153D01*
X44577000Y-49308908D01*
X44518336Y-49294153D01*
X44473633Y-49253401D01*
X44453529Y-49196349D01*
X44442756Y-49080089D01*
X44410048Y-48965136D01*
X44384405Y-48875011D01*
X44356578Y-48819126D01*
X44289368Y-48684147D01*
X44160873Y-48513994D01*
X44003301Y-48370347D01*
X43822016Y-48258100D01*
X43820533Y-48257526D01*
X43818005Y-48255617D01*
X43812249Y-48252053D01*
X43812579Y-48251519D01*
X43766374Y-48216626D01*
X43741857Y-48153341D01*
X43754328Y-48086628D01*
X43800051Y-48036473D01*
X43865328Y-48017900D01*
X43961220Y-48017900D01*
X44141231Y-47979637D01*
X44141232Y-47979636D01*
X44141234Y-47979636D01*
X44309361Y-47904781D01*
X44426834Y-47819432D01*
X44458249Y-47796608D01*
X44581395Y-47659840D01*
X44673414Y-47500459D01*
X44673414Y-47500458D01*
X44730285Y-47325429D01*
X44745879Y-47177053D01*
X44758492Y-47142399D01*
X44745879Y-47107743D01*
X44730285Y-46959371D01*
X44692206Y-46842175D01*
X44673414Y-46784340D01*
X44581395Y-46624959D01*
X44458249Y-46488191D01*
X44309362Y-46380019D01*
X44141231Y-46305162D01*
X43961220Y-46266900D01*
X43961219Y-46266900D01*
X43777181Y-46266900D01*
X43777180Y-46266900D01*
X43597168Y-46305162D01*
X43429037Y-46380019D01*
X43280150Y-46488191D01*
X43157004Y-46624959D01*
X43064985Y-46784340D01*
X43008115Y-46959369D01*
X42988878Y-47142399D01*
X42988878Y-47142400D01*
X42998496Y-47233914D01*
X43008115Y-47325430D01*
X43064985Y-47500459D01*
X43157004Y-47659840D01*
X43280150Y-47796608D01*
X43439583Y-47912442D01*
X43439038Y-47913191D01*
X43480065Y-47947131D01*
X43501998Y-48010113D01*
X43488133Y-48075348D01*
X43442479Y-48123965D01*
X43378243Y-48141900D01*
X43200390Y-48141900D01*
X43060664Y-48168019D01*
X42990801Y-48181079D01*
X42791982Y-48258101D01*
X42610698Y-48370347D01*
X42453126Y-48513994D01*
X42324631Y-48684147D01*
X42229595Y-48875009D01*
X42171243Y-49080089D01*
X42156500Y-49239205D01*
X42156500Y-50195595D01*
X42171243Y-50354710D01*
X42231323Y-50565865D01*
X42233946Y-50622585D01*
X42211011Y-50674527D01*
X42167329Y-50710800D01*
X42164792Y-50711396D01*
X42152462Y-50723799D01*
X42152462Y-50723800D01*
X41409628Y-50723800D01*
X41436943Y-50705011D01*
X41450025Y-50689320D01*
X41463806Y-50675238D01*
X41479222Y-50661812D01*
X41498532Y-50632403D01*
X41506941Y-50621064D01*
X41529455Y-50594064D01*
X41537818Y-50575428D01*
X41547289Y-50558149D01*
X41558512Y-50541059D01*
X41569169Y-50507537D01*
X41574202Y-50494359D01*
X41588604Y-50462272D01*
X41591631Y-50442058D01*
X41596089Y-50422867D01*
X41602281Y-50403394D01*
X41603499Y-50368244D01*
X41604790Y-50354200D01*
X41610002Y-50319409D01*
X41607463Y-50299132D01*
X41606579Y-50279433D01*
X41607287Y-50259023D01*
X41598975Y-50224843D01*
X41596430Y-50210974D01*
X41592062Y-50176071D01*
X41584148Y-50157234D01*
X41577984Y-50138517D01*
X41573156Y-50118657D01*
X41555933Y-50087991D01*
X41549734Y-50075308D01*
X41536116Y-50042889D01*
X41523414Y-50026885D01*
X41512427Y-50010521D01*
X41507596Y-50001920D01*
X41502420Y-49992704D01*
X41477568Y-49967826D01*
X41468170Y-49957279D01*
X41446309Y-49929735D01*
X41429761Y-49917752D01*
X41414766Y-49904959D01*
X41400327Y-49890505D01*
X41369686Y-49873257D01*
X41357787Y-49865635D01*
X41355808Y-49864202D01*
X39983685Y-48870595D01*
X39978221Y-48865429D01*
X39912625Y-48819126D01*
X39911409Y-48818256D01*
X39882428Y-48797270D01*
X39876384Y-48793544D01*
X39850437Y-48775229D01*
X39850435Y-48775228D01*
X39827952Y-48767237D01*
X39811110Y-48759799D01*
X39790064Y-48748569D01*
X39773289Y-48744871D01*
X39759050Y-48741732D01*
X39744235Y-48737485D01*
X39724664Y-48730529D01*
X39714319Y-48726853D01*
X39690524Y-48725226D01*
X39672294Y-48722608D01*
X39659052Y-48719689D01*
X39648987Y-48717470D01*
X39617291Y-48719254D01*
X39601865Y-48719161D01*
X39570201Y-48716995D01*
X39546836Y-48721850D01*
X39528586Y-48724246D01*
X39504762Y-48725587D01*
X39474720Y-48735856D01*
X39459848Y-48739926D01*
X39428766Y-48746385D01*
X39407578Y-48757364D01*
X39390645Y-48764597D01*
X39368072Y-48772313D01*
X39341912Y-48790309D01*
X39328689Y-48798241D01*
X39300502Y-48812847D01*
X39283059Y-48829137D01*
X39268710Y-48840667D01*
X39249057Y-48854187D01*
X39228726Y-48878569D01*
X39218132Y-48889776D01*
X39194930Y-48911445D01*
X39182534Y-48931830D01*
X39171826Y-48946808D01*
X39156542Y-48965138D01*
X39143543Y-48994101D01*
X39136366Y-49007750D01*
X39119873Y-49034873D01*
X39113436Y-49057844D01*
X39107168Y-49075151D01*
X39097395Y-49096929D01*
X39092691Y-49128326D01*
X39089463Y-49143401D01*
X39080900Y-49173969D01*
X39080900Y-49197828D01*
X39079532Y-49216197D01*
X39075997Y-49239791D01*
X34339528Y-49239791D01*
X34356435Y-49176692D01*
X34376268Y-48950000D01*
X34356435Y-48723308D01*
X34297539Y-48503504D01*
X34201368Y-48297266D01*
X34173945Y-48258102D01*
X34070846Y-48110859D01*
X33909940Y-47949953D01*
X33723535Y-47819432D01*
X33517297Y-47723261D01*
X33297489Y-47664364D01*
X33070800Y-47644531D01*
X32844110Y-47664364D01*
X32624302Y-47723261D01*
X32418064Y-47819432D01*
X32231659Y-47949953D01*
X32070753Y-48110859D01*
X31940232Y-48297264D01*
X31844061Y-48503502D01*
X31785164Y-48723310D01*
X31765331Y-48950000D01*
X28503584Y-48950000D01*
X28499880Y-44109999D01*
X28791128Y-44109999D01*
X28843733Y-44306325D01*
X28939865Y-44512479D01*
X29070341Y-44698818D01*
X29231180Y-44859657D01*
X29417519Y-44990133D01*
X29623673Y-45086265D01*
X29819999Y-45138870D01*
X29820000Y-45138871D01*
X29820000Y-44109999D01*
X30320000Y-44109999D01*
X30320000Y-45138870D01*
X30516326Y-45086265D01*
X30639074Y-45029026D01*
X32345326Y-45029026D01*
X32418315Y-45080133D01*
X32624473Y-45176266D01*
X32844197Y-45235141D01*
X33070799Y-45254966D01*
X33297402Y-45235141D01*
X33517126Y-45176266D01*
X33723280Y-45080134D01*
X33796272Y-45029025D01*
X33070801Y-44303553D01*
X33070800Y-44303553D01*
X32345326Y-45029025D01*
X32345326Y-45029026D01*
X30639074Y-45029026D01*
X30722480Y-44990133D01*
X30908819Y-44859657D01*
X31069658Y-44698818D01*
X31200134Y-44512479D01*
X31296266Y-44306325D01*
X31348872Y-44109999D01*
X30320000Y-44109999D01*
X29820000Y-44109999D01*
X28791128Y-44109999D01*
X28499880Y-44109999D01*
X28499758Y-43950000D01*
X31765833Y-43950000D01*
X31785658Y-44176602D01*
X31844533Y-44396326D01*
X31940666Y-44602484D01*
X31991772Y-44675471D01*
X31991774Y-44675472D01*
X32717246Y-43950001D01*
X32717246Y-43950000D01*
X32717245Y-43949999D01*
X33424353Y-43949999D01*
X34149825Y-44675472D01*
X34200934Y-44602480D01*
X34297066Y-44396326D01*
X34355941Y-44176602D01*
X34375766Y-43950000D01*
X34355941Y-43723397D01*
X34297066Y-43503673D01*
X34200933Y-43297515D01*
X34149825Y-43224526D01*
X33424353Y-43949998D01*
X33424353Y-43949999D01*
X32717245Y-43949999D01*
X31991773Y-43224526D01*
X31991773Y-43224527D01*
X31940665Y-43297516D01*
X31844533Y-43503672D01*
X31785658Y-43723397D01*
X31765833Y-43950000D01*
X28499758Y-43950000D01*
X28498894Y-42821157D01*
X28515420Y-42759216D01*
X28560674Y-42713805D01*
X28622555Y-42697065D01*
X29096040Y-42695788D01*
X29152427Y-42709181D01*
X29196571Y-42746739D01*
X29218823Y-42800257D01*
X29214323Y-42858041D01*
X29184053Y-42907468D01*
X29070338Y-43021183D01*
X28939865Y-43207518D01*
X28843733Y-43413672D01*
X28791128Y-43609998D01*
X28791128Y-43609999D01*
X31348872Y-43609999D01*
X31348871Y-43609998D01*
X31296266Y-43413672D01*
X31200134Y-43207518D01*
X31069658Y-43021179D01*
X30950705Y-42902226D01*
X30920476Y-42852927D01*
X30915892Y-42795279D01*
X30937950Y-42741822D01*
X30981853Y-42704182D01*
X31038045Y-42690546D01*
X32225738Y-42687340D01*
X32290978Y-42705685D01*
X32336832Y-42755590D01*
X32349599Y-42822148D01*
X32345326Y-42870973D01*
X33070800Y-43596446D01*
X33070801Y-43596446D01*
X33796272Y-42870974D01*
X33791601Y-42817589D01*
X33804268Y-42751230D01*
X33849842Y-42701360D01*
X33914790Y-42682781D01*
X40962095Y-42663760D01*
X41026733Y-42681738D01*
X41072547Y-42730756D01*
X41086121Y-42796463D01*
X41063481Y-42859622D01*
X41011255Y-42901742D01*
X40919941Y-42940859D01*
X40814871Y-42985869D01*
X40792519Y-42995444D01*
X40594749Y-43121889D01*
X40420292Y-43278953D01*
X40273843Y-43462409D01*
X40216589Y-43564869D01*
X40159336Y-43667329D01*
X40103703Y-43821923D01*
X40079849Y-43888207D01*
X40078352Y-43896400D01*
X40054317Y-43950153D01*
X40008197Y-43986759D01*
X39950392Y-43997964D01*
X39944686Y-43997689D01*
X39944684Y-43997689D01*
X39944682Y-43997689D01*
X39716726Y-44023736D01*
X39496012Y-44086423D01*
X39288398Y-44184086D01*
X39288392Y-44184089D01*
X39288394Y-44184089D01*
X39099371Y-44314143D01*
X39099368Y-44314145D01*
X39099369Y-44314145D01*
X38933950Y-44473142D01*
X38796518Y-44656870D01*
X38690715Y-44860461D01*
X38619343Y-45078518D01*
X38584294Y-45305275D01*
X38586495Y-45534704D01*
X38625891Y-45760736D01*
X38701437Y-45977387D01*
X38734766Y-46038617D01*
X38811132Y-46178911D01*
X38952067Y-46359967D01*
X39120509Y-46515760D01*
X39311995Y-46642161D01*
X39350760Y-46659495D01*
X39521448Y-46735820D01*
X39521449Y-46735820D01*
X39521451Y-46735821D01*
X39743327Y-46794258D01*
X39971745Y-46815925D01*
X40200651Y-46800247D01*
X40423981Y-46747639D01*
X40635818Y-46659495D01*
X40779468Y-46569982D01*
X40830547Y-46538153D01*
X41003010Y-46386824D01*
X41057459Y-46320532D01*
X41148639Y-46209519D01*
X41263571Y-46010938D01*
X41344764Y-45796341D01*
X41345849Y-45790976D01*
X41370838Y-45737757D01*
X41417538Y-45702029D01*
X41475442Y-45691831D01*
X41487591Y-45692623D01*
X41721166Y-45669259D01*
X41947786Y-45608045D01*
X42161358Y-45510626D01*
X42356143Y-45379621D01*
X42440417Y-45300130D01*
X42526902Y-45218553D01*
X42526902Y-45218552D01*
X42526905Y-45218550D01*
X42669056Y-45031744D01*
X42778774Y-44824222D01*
X42853111Y-44601562D01*
X42887344Y-44386840D01*
X50905850Y-44386840D01*
X50940986Y-44614163D01*
X51012538Y-44832780D01*
X51118606Y-45036881D01*
X51254499Y-45218553D01*
X51256386Y-45221075D01*
X51422222Y-45380475D01*
X51611722Y-45510858D01*
X51819865Y-45608770D01*
X52041135Y-45671616D01*
X52269669Y-45697730D01*
X52276114Y-45697418D01*
X52333918Y-45708623D01*
X52380039Y-45745229D01*
X52404074Y-45798983D01*
X52404935Y-45803694D01*
X52484422Y-46024560D01*
X52557688Y-46155670D01*
X52598931Y-46229476D01*
X52745379Y-46412926D01*
X52919832Y-46569982D01*
X53117602Y-46696425D01*
X53333374Y-46788856D01*
X53561349Y-46844790D01*
X53795398Y-46862724D01*
X54029233Y-46842176D01*
X54256568Y-46783699D01*
X54471294Y-46688863D01*
X54667639Y-46560219D01*
X54840327Y-46401223D01*
X54984717Y-46216149D01*
X55096927Y-46009970D01*
X55130224Y-45914102D01*
X56166448Y-45914102D01*
X56349079Y-46038617D01*
X56592142Y-46155670D01*
X56849939Y-46235191D01*
X57116709Y-46275400D01*
X57386491Y-46275400D01*
X57653260Y-46235191D01*
X57911060Y-46155670D01*
X58154123Y-46038617D01*
X58336750Y-45914102D01*
X57251600Y-44828953D01*
X56166448Y-45914102D01*
X55130224Y-45914102D01*
X55173942Y-45788228D01*
X55213693Y-45556882D01*
X55215110Y-45322151D01*
X55178156Y-45090342D01*
X55103824Y-44867686D01*
X54994112Y-44660167D01*
X54853518Y-44475399D01*
X55446552Y-44475399D01*
X55466713Y-44744426D01*
X55526746Y-45007449D01*
X55625308Y-45258578D01*
X55760198Y-45492216D01*
X55813895Y-45559550D01*
X56898047Y-44475400D01*
X57605153Y-44475400D01*
X58689303Y-45559551D01*
X58689304Y-45559550D01*
X58743000Y-45492218D01*
X58877891Y-45258578D01*
X58976453Y-45007449D01*
X59036486Y-44744426D01*
X59056647Y-44475399D01*
X59036486Y-44206373D01*
X58976453Y-43943350D01*
X58877891Y-43692221D01*
X58742998Y-43458578D01*
X58689304Y-43391247D01*
X57605153Y-44475400D01*
X56898047Y-44475400D01*
X55813895Y-43391248D01*
X55760198Y-43458582D01*
X55625308Y-43692221D01*
X55526746Y-43943350D01*
X55466713Y-44206373D01*
X55446552Y-44475399D01*
X54853518Y-44475399D01*
X54851968Y-44473362D01*
X54770299Y-44396326D01*
X54681216Y-44312296D01*
X54681212Y-44312293D01*
X54486435Y-44181287D01*
X54486433Y-44181286D01*
X54486430Y-44181284D01*
X54272873Y-44083866D01*
X54272871Y-44083865D01*
X54272870Y-44083865D01*
X54206707Y-44065991D01*
X54046255Y-44022646D01*
X53812686Y-43999276D01*
X53804112Y-43999835D01*
X53746208Y-43989635D01*
X53699511Y-43953909D01*
X53674521Y-43900689D01*
X53673653Y-43896400D01*
X53673284Y-43894574D01*
X53591891Y-43679434D01*
X53476672Y-43480350D01*
X53330681Y-43302596D01*
X53157785Y-43150882D01*
X52962565Y-43029229D01*
X52962562Y-43029228D01*
X52962561Y-43029227D01*
X52750196Y-42940859D01*
X52526303Y-42888115D01*
X52415650Y-42880534D01*
X52356155Y-42860535D01*
X52314075Y-42813963D01*
X52310059Y-42796256D01*
X52306683Y-42812453D01*
X52265861Y-42859583D01*
X52207262Y-42880887D01*
X52067823Y-42894112D01*
X51845388Y-42952693D01*
X51635401Y-43046588D01*
X51443432Y-43173304D01*
X51274562Y-43329489D01*
X51133269Y-43511001D01*
X51023296Y-43713032D01*
X50947559Y-43930224D01*
X50908060Y-44156832D01*
X50905850Y-44386840D01*
X42887344Y-44386840D01*
X42890069Y-44369748D01*
X42888654Y-44135011D01*
X42848905Y-43903659D01*
X42771889Y-43681911D01*
X42771888Y-43681909D01*
X42659681Y-43475731D01*
X42659678Y-43475727D01*
X42515286Y-43290647D01*
X42446605Y-43227411D01*
X42342595Y-43131647D01*
X42186278Y-43029229D01*
X42146244Y-43002999D01*
X42005546Y-42940859D01*
X41931507Y-42908159D01*
X41919931Y-42905182D01*
X41867857Y-42877248D01*
X41834625Y-42828385D01*
X41827782Y-42769689D01*
X41848883Y-42714492D01*
X41893134Y-42675328D01*
X41950482Y-42661093D01*
X52195223Y-42633442D01*
X52255610Y-42648955D01*
X52300816Y-42691898D01*
X52309761Y-42720536D01*
X52318065Y-42692582D01*
X52363111Y-42648874D01*
X52423786Y-42632825D01*
X56407888Y-42622071D01*
X56471589Y-42639486D01*
X56517318Y-42687134D01*
X56532101Y-42751500D01*
X56511744Y-42814326D01*
X56462022Y-42857791D01*
X56349076Y-42912183D01*
X56166448Y-43036696D01*
X57251600Y-44121847D01*
X57251601Y-44121847D01*
X58336750Y-43036696D01*
X58154121Y-42912181D01*
X58031777Y-42853264D01*
X57982129Y-42809911D01*
X57961710Y-42747241D01*
X57976290Y-42682961D01*
X58021750Y-42635234D01*
X58085242Y-42617544D01*
X62617827Y-42605310D01*
X66017265Y-42596136D01*
X66079407Y-42612637D01*
G37*
G04 #@! TD.AperFunction*
G04 #@! TA.AperFunction,Conductor*
G36*
X60598496Y-73734702D02*
G01*
X60638108Y-73789763D01*
X60642823Y-73857428D01*
X60625780Y-73938393D01*
X60595738Y-74275376D01*
X60599399Y-74398823D01*
X60605765Y-74613558D01*
X60624322Y-74737869D01*
X60655716Y-74948173D01*
X60687912Y-75065999D01*
X60686789Y-75135232D01*
X60648718Y-75193069D01*
X60585572Y-75221475D01*
X60517038Y-75211594D01*
X60464488Y-75166506D01*
X60405433Y-75076117D01*
X59535553Y-75946000D01*
X59535553Y-75946001D01*
X60405434Y-76815882D01*
X60505730Y-76662369D01*
X60605586Y-76434721D01*
X60666613Y-76193732D01*
X60687141Y-75946000D01*
X60667432Y-75708141D01*
X60679975Y-75642695D01*
X60724585Y-75593192D01*
X60788378Y-75573929D01*
X60852930Y-75590469D01*
X60899599Y-75638035D01*
X60966012Y-75758500D01*
X61035388Y-75884341D01*
X61232624Y-76159225D01*
X61460987Y-76408852D01*
X61460988Y-76408853D01*
X61717273Y-76629719D01*
X61997882Y-76818723D01*
X62298871Y-76973211D01*
X62384594Y-77005052D01*
X62616028Y-77091017D01*
X62944887Y-77170485D01*
X63280837Y-77210500D01*
X63534504Y-77210500D01*
X63534507Y-77210500D01*
X63629464Y-77204864D01*
X63787731Y-77195472D01*
X64120721Y-77135626D01*
X64444295Y-77036816D01*
X64444295Y-77036815D01*
X64444298Y-77036815D01*
X64753913Y-76900429D01*
X64897066Y-76815882D01*
X65045224Y-76728380D01*
X65314143Y-76523085D01*
X65556894Y-76287424D01*
X65770068Y-76024707D01*
X65912745Y-75798700D01*
X65959025Y-75755601D01*
X66020540Y-75740929D01*
X66081290Y-75758500D01*
X66125474Y-75803745D01*
X66141600Y-75864894D01*
X66141600Y-81676324D01*
X66124741Y-81738748D01*
X66078749Y-81784198D01*
X66016130Y-81800315D01*
X65953911Y-81782718D01*
X65909009Y-81736190D01*
X65882696Y-81688462D01*
X65864612Y-81655659D01*
X65667376Y-81380775D01*
X65439012Y-81131147D01*
X65299733Y-81011117D01*
X65182726Y-80910280D01*
X64902117Y-80721276D01*
X64601128Y-80566788D01*
X64329419Y-80465864D01*
X64283972Y-80448983D01*
X64049234Y-80392259D01*
X63955114Y-80369515D01*
X63871125Y-80359511D01*
X63619163Y-80329500D01*
X63365496Y-80329500D01*
X63365493Y-80329500D01*
X63112273Y-80344527D01*
X62779278Y-80404374D01*
X62455701Y-80503184D01*
X62146086Y-80639570D01*
X61854777Y-80811619D01*
X61585856Y-81016914D01*
X61343107Y-81252574D01*
X61129931Y-81515293D01*
X60949326Y-81801379D01*
X60803824Y-82106816D01*
X60695468Y-82427325D01*
X60625780Y-82758395D01*
X60595738Y-83095376D01*
X60600013Y-83239531D01*
X60605765Y-83433558D01*
X60606531Y-83438688D01*
X60655716Y-83768172D01*
X60744895Y-84094534D01*
X60872048Y-84408061D01*
X60966012Y-84578500D01*
X61035388Y-84704341D01*
X61232624Y-84979225D01*
X61349903Y-85107424D01*
X61460988Y-85228853D01*
X61717273Y-85449719D01*
X61997882Y-85638723D01*
X62298871Y-85793211D01*
X62411210Y-85834938D01*
X62616028Y-85911017D01*
X62944887Y-85990485D01*
X63280837Y-86030500D01*
X63534504Y-86030500D01*
X63534507Y-86030500D01*
X63629464Y-86024864D01*
X63787731Y-86015472D01*
X64120721Y-85955626D01*
X64444295Y-85856816D01*
X64444295Y-85856815D01*
X64444298Y-85856815D01*
X64753913Y-85720429D01*
X64892256Y-85638723D01*
X65045224Y-85548380D01*
X65314143Y-85343085D01*
X65556894Y-85107424D01*
X65770068Y-84844707D01*
X65870958Y-84684894D01*
X65912746Y-84618700D01*
X65959025Y-84575601D01*
X66020540Y-84560929D01*
X66081290Y-84578500D01*
X66125474Y-84623745D01*
X66141600Y-84684894D01*
X66141600Y-96597065D01*
X66127294Y-96654886D01*
X66087677Y-96699365D01*
X66031890Y-96720239D01*
X65972806Y-96712692D01*
X65938405Y-96699365D01*
X65760340Y-96630382D01*
X65541643Y-96589500D01*
X65319157Y-96589500D01*
X65160882Y-96619086D01*
X65106930Y-96617216D01*
X65058883Y-96592596D01*
X65025853Y-96549891D01*
X65014100Y-96497198D01*
X65014100Y-92135105D01*
X65016441Y-92113895D01*
X65016078Y-92102355D01*
X65014160Y-92041337D01*
X65014100Y-92037443D01*
X65014100Y-92008681D01*
X65014100Y-92008675D01*
X65013546Y-92004295D01*
X65012630Y-91992654D01*
X65012431Y-91986325D01*
X65011197Y-91947031D01*
X65005275Y-91926648D01*
X65001332Y-91907611D01*
X64998671Y-91886542D01*
X64981863Y-91844091D01*
X64978080Y-91833042D01*
X64965344Y-91789202D01*
X64954537Y-91770929D01*
X64945982Y-91753466D01*
X64938168Y-91733729D01*
X64911333Y-91696793D01*
X64904925Y-91687036D01*
X64881684Y-91647738D01*
X64881681Y-91647735D01*
X64866668Y-91632722D01*
X64854035Y-91617930D01*
X64841563Y-91600763D01*
X64806379Y-91571656D01*
X64797740Y-91563794D01*
X60920434Y-87686488D01*
X60907091Y-87669833D01*
X60854166Y-87620134D01*
X60851369Y-87617423D01*
X60831034Y-87597088D01*
X60827547Y-87594383D01*
X60818671Y-87586801D01*
X60785394Y-87555552D01*
X60766793Y-87545326D01*
X60750532Y-87534645D01*
X60733764Y-87521638D01*
X60709456Y-87511119D01*
X60691869Y-87503508D01*
X60681379Y-87498369D01*
X60641367Y-87476372D01*
X60620800Y-87471091D01*
X60602398Y-87464791D01*
X60582924Y-87456364D01*
X60537837Y-87449223D01*
X60526398Y-87446854D01*
X60482178Y-87435500D01*
X60482177Y-87435500D01*
X60460955Y-87435500D01*
X60441556Y-87433973D01*
X60420596Y-87430653D01*
X60420595Y-87430653D01*
X60398558Y-87432736D01*
X60375139Y-87434950D01*
X60363470Y-87435500D01*
X60326184Y-87435500D01*
X60279520Y-87426385D01*
X60239716Y-87400378D01*
X60223447Y-87376913D01*
X60221793Y-87377995D01*
X60173948Y-87304763D01*
X60080164Y-87161215D01*
X59911744Y-86978262D01*
X59715509Y-86825526D01*
X59668805Y-86800251D01*
X59607482Y-86767064D01*
X59559977Y-86721484D01*
X59542500Y-86658010D01*
X59542500Y-83013990D01*
X59559977Y-82950516D01*
X59607482Y-82904936D01*
X59656574Y-82878368D01*
X59715509Y-82846474D01*
X59911744Y-82693738D01*
X60080164Y-82510785D01*
X60216173Y-82302607D01*
X60316063Y-82074881D01*
X60377108Y-81833821D01*
X60397643Y-81586000D01*
X60377108Y-81338179D01*
X60316063Y-81097119D01*
X60216173Y-80869393D01*
X60080164Y-80661215D01*
X59911744Y-80478262D01*
X59816813Y-80404374D01*
X59715514Y-80325529D01*
X59715510Y-80325526D01*
X59715509Y-80325526D01*
X59496810Y-80207172D01*
X59496806Y-80207170D01*
X59496805Y-80207170D01*
X59261616Y-80126429D01*
X59096210Y-80098828D01*
X59042331Y-80075803D01*
X59005039Y-80030610D01*
X58992661Y-79973339D01*
X59007959Y-79916779D01*
X59029627Y-79877368D01*
X59034903Y-79856813D01*
X59041206Y-79838402D01*
X59049635Y-79818927D01*
X59056777Y-79773825D01*
X59059140Y-79762418D01*
X59070500Y-79718177D01*
X59070500Y-79696949D01*
X59072027Y-79677550D01*
X59075346Y-79656595D01*
X59071050Y-79611148D01*
X59070500Y-79599479D01*
X59070500Y-77570000D01*
X59087113Y-77508000D01*
X59132500Y-77462613D01*
X59194500Y-77446000D01*
X59306293Y-77446000D01*
X59551493Y-77405083D01*
X59786606Y-77324368D01*
X60005233Y-77206053D01*
X60052056Y-77169609D01*
X58916128Y-76033681D01*
X58884034Y-75978094D01*
X58884034Y-75913906D01*
X58916128Y-75858319D01*
X60052057Y-74722389D01*
X60052056Y-74722388D01*
X60005235Y-74685947D01*
X59786608Y-74567632D01*
X59725185Y-74546545D01*
X59674219Y-74513246D01*
X59645243Y-74459703D01*
X59645244Y-74398823D01*
X59674220Y-74345280D01*
X59725183Y-74311984D01*
X59786810Y-74290828D01*
X60005509Y-74172474D01*
X60201744Y-74019738D01*
X60370164Y-73836785D01*
X60417674Y-73764064D01*
X60468888Y-73719593D01*
X60535840Y-73708721D01*
X60598496Y-73734702D01*
G37*
G04 #@! TD.AperFunction*
G04 #@! TA.AperFunction,Conductor*
G36*
X60178645Y-90321939D02*
G01*
X60218873Y-90348819D01*
X63003681Y-93133627D01*
X63030561Y-93173855D01*
X63040000Y-93221308D01*
X63040000Y-95785981D01*
X63026485Y-95842276D01*
X62988885Y-95886299D01*
X62935398Y-95908454D01*
X62877682Y-95903912D01*
X62828319Y-95873662D01*
X60172819Y-93218162D01*
X60145939Y-93177934D01*
X60136500Y-93130481D01*
X60136500Y-92395471D01*
X60136726Y-92387984D01*
X60136927Y-92384652D01*
X60140358Y-92327944D01*
X60129507Y-92268735D01*
X60128390Y-92261391D01*
X60121140Y-92201678D01*
X60117547Y-92192206D01*
X60111522Y-92170594D01*
X60109695Y-92160619D01*
X60085009Y-92105770D01*
X60082152Y-92098876D01*
X60060818Y-92042620D01*
X60055053Y-92034269D01*
X60044036Y-92014733D01*
X60039878Y-92005494D01*
X60002788Y-91958153D01*
X59998352Y-91952124D01*
X59994836Y-91947030D01*
X59964183Y-91902621D01*
X59919145Y-91862721D01*
X59913707Y-91857601D01*
X58580288Y-90524181D01*
X58550038Y-90474818D01*
X58545496Y-90417102D01*
X58567651Y-90363615D01*
X58611674Y-90326015D01*
X58667969Y-90312500D01*
X60131192Y-90312500D01*
X60178645Y-90321939D01*
G37*
G04 #@! TD.AperFunction*
G04 #@! TA.AperFunction,Conductor*
G36*
X55456962Y-79456188D02*
G01*
X55633099Y-79565247D01*
X55840560Y-79645618D01*
X56059257Y-79686500D01*
X56059259Y-79686500D01*
X56233423Y-79686500D01*
X56289718Y-79700015D01*
X56333742Y-79737615D01*
X56355897Y-79791103D01*
X56351353Y-79848820D01*
X56321104Y-79898180D01*
X56302506Y-79916779D01*
X56291289Y-79927996D01*
X56285838Y-79933126D01*
X56240816Y-79973013D01*
X56206649Y-80022511D01*
X56202213Y-80028540D01*
X56165121Y-80075885D01*
X56160961Y-80085129D01*
X56149941Y-80104668D01*
X56144182Y-80113012D01*
X56122853Y-80169248D01*
X56119989Y-80176162D01*
X56095303Y-80231013D01*
X56093475Y-80240990D01*
X56087454Y-80262591D01*
X56083859Y-80272071D01*
X56076609Y-80331770D01*
X56075483Y-80339169D01*
X56064641Y-80398334D01*
X56068274Y-80458377D01*
X56068500Y-80465864D01*
X56068500Y-81101223D01*
X56054358Y-81158732D01*
X56015156Y-81203123D01*
X55959838Y-81224271D01*
X55901021Y-81217350D01*
X55852122Y-81183941D01*
X55824294Y-81131663D01*
X55815586Y-81097280D01*
X55715730Y-80869630D01*
X55615434Y-80716116D01*
X54745553Y-81586000D01*
X54745553Y-81586001D01*
X55615434Y-82455882D01*
X55715730Y-82302369D01*
X55815586Y-82074719D01*
X55824294Y-82040337D01*
X55852122Y-81988059D01*
X55901021Y-81954650D01*
X55959838Y-81947729D01*
X56015156Y-81968877D01*
X56054358Y-82013268D01*
X56068500Y-82070777D01*
X56068500Y-87601223D01*
X56054358Y-87658732D01*
X56015156Y-87703123D01*
X55959838Y-87724271D01*
X55901021Y-87717350D01*
X55852122Y-87683941D01*
X55824294Y-87631663D01*
X55815586Y-87597280D01*
X55715730Y-87369630D01*
X55615434Y-87216116D01*
X54745553Y-88086000D01*
X54745553Y-88086001D01*
X55615434Y-88955882D01*
X55715730Y-88802369D01*
X55815586Y-88574719D01*
X55824294Y-88540337D01*
X55852122Y-88488059D01*
X55901021Y-88454650D01*
X55959838Y-88447729D01*
X56015156Y-88468877D01*
X56054358Y-88513268D01*
X56068500Y-88570777D01*
X56068500Y-89678629D01*
X56068274Y-89686116D01*
X56064641Y-89746157D01*
X56075483Y-89805321D01*
X56076610Y-89812722D01*
X56083860Y-89872423D01*
X56087450Y-89881889D01*
X56093475Y-89903502D01*
X56095303Y-89913479D01*
X56119991Y-89968333D01*
X56122856Y-89975251D01*
X56143820Y-90030526D01*
X56144182Y-90031480D01*
X56149941Y-90039823D01*
X56160961Y-90059363D01*
X56165120Y-90068604D01*
X56202216Y-90115955D01*
X56206654Y-90121986D01*
X56236260Y-90164878D01*
X56240817Y-90171479D01*
X56285847Y-90211372D01*
X56291283Y-90216490D01*
X58699181Y-92624387D01*
X58726061Y-92664615D01*
X58735500Y-92712068D01*
X58735500Y-92715499D01*
X58718887Y-92777499D01*
X58673500Y-92822886D01*
X58611500Y-92839499D01*
X58462372Y-92839499D01*
X53993673Y-92839499D01*
X53936416Y-92825488D01*
X53892098Y-92786622D01*
X53832046Y-92700858D01*
X53671140Y-92539952D01*
X53484735Y-92409431D01*
X53278494Y-92313259D01*
X53273989Y-92312052D01*
X53218408Y-92279960D01*
X52832001Y-91893552D01*
X52832000Y-91893552D01*
X52445590Y-92279960D01*
X52390013Y-92312051D01*
X52385507Y-92313258D01*
X52179264Y-92409431D01*
X51992859Y-92539952D01*
X51831953Y-92700858D01*
X51701431Y-92887265D01*
X51677175Y-92939281D01*
X51635236Y-92988923D01*
X51602068Y-93011818D01*
X51562183Y-93056837D01*
X51557051Y-93062289D01*
X51468616Y-93150724D01*
X51423347Y-93179564D01*
X51370130Y-93186571D01*
X51318939Y-93170432D01*
X51293305Y-93146945D01*
X51291719Y-93148532D01*
X51123140Y-92979953D01*
X50936736Y-92849432D01*
X50921024Y-92842106D01*
X50868848Y-92796348D01*
X50849429Y-92729722D01*
X50868850Y-92663097D01*
X50921027Y-92617340D01*
X50936485Y-92610131D01*
X51009473Y-92559025D01*
X50284002Y-91833553D01*
X50284001Y-91833553D01*
X49558527Y-92559025D01*
X49558527Y-92559026D01*
X49631516Y-92610133D01*
X49646976Y-92617342D01*
X49699151Y-92663098D01*
X49718571Y-92729722D01*
X49699153Y-92796347D01*
X49646979Y-92842104D01*
X49631269Y-92849429D01*
X49444860Y-92979953D01*
X49368181Y-93056633D01*
X49318818Y-93086883D01*
X49261102Y-93091425D01*
X49207615Y-93069270D01*
X49170015Y-93025247D01*
X49156500Y-92968952D01*
X49156500Y-92305309D01*
X49165939Y-92257856D01*
X49192819Y-92217628D01*
X49930447Y-91479999D01*
X50637554Y-91479999D01*
X51363026Y-92205472D01*
X51414135Y-92132481D01*
X51431628Y-92094967D01*
X51477385Y-92042790D01*
X51544010Y-92023370D01*
X51610636Y-92042789D01*
X51656393Y-92094965D01*
X51701866Y-92192483D01*
X51752972Y-92265470D01*
X51752974Y-92265471D01*
X52478446Y-91540000D01*
X53185553Y-91540000D01*
X53911025Y-92265471D01*
X53962134Y-92192479D01*
X54058266Y-91986325D01*
X54117141Y-91766601D01*
X54136966Y-91539999D01*
X54117141Y-91313396D01*
X54058266Y-91093672D01*
X53962133Y-90887514D01*
X53911025Y-90814525D01*
X53185553Y-91539999D01*
X53185553Y-91540000D01*
X52478446Y-91540000D01*
X52478446Y-91539999D01*
X51752973Y-90814525D01*
X51752973Y-90814526D01*
X51701865Y-90887515D01*
X51684371Y-90925033D01*
X51638614Y-90977209D01*
X51571989Y-90996628D01*
X51505364Y-90977208D01*
X51459607Y-90925032D01*
X51414135Y-90827517D01*
X51363026Y-90754526D01*
X50637554Y-91479998D01*
X50637554Y-91479999D01*
X49930447Y-91479999D01*
X49930447Y-91479998D01*
X49192819Y-90742372D01*
X49165939Y-90702144D01*
X49156500Y-90654691D01*
X49156500Y-90400973D01*
X49558527Y-90400973D01*
X50284001Y-91126446D01*
X50284002Y-91126446D01*
X50949475Y-90460972D01*
X52106526Y-90460972D01*
X52832000Y-91186445D01*
X52832001Y-91186445D01*
X53557472Y-90460973D01*
X53557471Y-90460971D01*
X53484484Y-90409865D01*
X53278326Y-90313732D01*
X53058602Y-90254857D01*
X52832000Y-90235032D01*
X52605397Y-90254857D01*
X52385672Y-90313732D01*
X52179516Y-90409864D01*
X52106527Y-90460972D01*
X52106526Y-90460972D01*
X50949475Y-90460972D01*
X51009473Y-90400974D01*
X51009472Y-90400972D01*
X50936485Y-90349866D01*
X50730327Y-90253733D01*
X50510603Y-90194858D01*
X50284001Y-90175033D01*
X50057398Y-90194858D01*
X49837673Y-90253733D01*
X49631517Y-90349865D01*
X49558528Y-90400973D01*
X49558527Y-90400973D01*
X49156500Y-90400973D01*
X49156500Y-89676144D01*
X49167998Y-89623998D01*
X49200359Y-89581522D01*
X49247582Y-89556593D01*
X49300909Y-89553835D01*
X49496665Y-89586500D01*
X49745335Y-89586500D01*
X49990614Y-89545571D01*
X50225810Y-89464828D01*
X50444509Y-89346474D01*
X50491872Y-89309610D01*
X53521942Y-89309610D01*
X53568766Y-89346055D01*
X53787393Y-89464368D01*
X54022506Y-89545083D01*
X54267707Y-89586000D01*
X54516293Y-89586000D01*
X54761493Y-89545083D01*
X54996606Y-89464368D01*
X55215233Y-89346053D01*
X55262056Y-89309609D01*
X54392000Y-88439553D01*
X53521942Y-89309609D01*
X53521942Y-89309610D01*
X50491872Y-89309610D01*
X50640744Y-89193738D01*
X50809164Y-89010785D01*
X50945173Y-88802607D01*
X51045063Y-88574881D01*
X51106108Y-88333821D01*
X51126643Y-88086000D01*
X52886858Y-88086000D01*
X52907386Y-88333732D01*
X52968413Y-88574721D01*
X53068268Y-88802370D01*
X53168563Y-88955882D01*
X53168564Y-88955882D01*
X54038447Y-88086001D01*
X54038447Y-88086000D01*
X53168564Y-87216116D01*
X53068266Y-87369634D01*
X52968413Y-87597278D01*
X52907386Y-87838267D01*
X52886858Y-88086000D01*
X51126643Y-88086000D01*
X51106108Y-87838179D01*
X51045063Y-87597119D01*
X50945173Y-87369393D01*
X50809164Y-87161215D01*
X50640744Y-86978262D01*
X50491872Y-86862390D01*
X53521942Y-86862390D01*
X54392000Y-87732447D01*
X54392001Y-87732447D01*
X55262057Y-86862390D01*
X55262056Y-86862388D01*
X55215235Y-86825947D01*
X54996606Y-86707631D01*
X54761493Y-86626916D01*
X54516293Y-86586000D01*
X54267707Y-86586000D01*
X54022506Y-86626916D01*
X53787393Y-86707631D01*
X53568764Y-86825946D01*
X53521942Y-86862388D01*
X53521942Y-86862390D01*
X50491872Y-86862390D01*
X50444509Y-86825526D01*
X50397805Y-86800251D01*
X50336482Y-86767064D01*
X50288977Y-86721484D01*
X50271500Y-86658010D01*
X50271500Y-83013990D01*
X50288977Y-82950516D01*
X50336482Y-82904936D01*
X50385574Y-82878368D01*
X50444509Y-82846474D01*
X50640744Y-82693738D01*
X50809164Y-82510785D01*
X50945173Y-82302607D01*
X51045063Y-82074881D01*
X51106108Y-81833821D01*
X51109432Y-81793701D01*
X51133571Y-81729860D01*
X51187839Y-81688462D01*
X51255791Y-81682054D01*
X51450757Y-81718500D01*
X51450759Y-81718500D01*
X51638309Y-81718500D01*
X51695622Y-81732540D01*
X51739957Y-81771481D01*
X51761273Y-81826504D01*
X51754744Y-81885149D01*
X51721847Y-81934137D01*
X51658634Y-81991762D01*
X51524556Y-82169311D01*
X51425384Y-82368473D01*
X51364500Y-82582462D01*
X51343972Y-82803999D01*
X51364500Y-83025537D01*
X51425384Y-83239526D01*
X51524556Y-83438688D01*
X51658634Y-83616237D01*
X51823052Y-83766124D01*
X52012210Y-83883245D01*
X52012212Y-83883245D01*
X52012214Y-83883247D01*
X52219675Y-83963618D01*
X52438372Y-84004500D01*
X52660856Y-84004500D01*
X52660858Y-84004500D01*
X52879555Y-83963618D01*
X53087016Y-83883247D01*
X53276177Y-83766124D01*
X53440596Y-83616236D01*
X53574673Y-83438689D01*
X53673844Y-83239528D01*
X53719472Y-83079159D01*
X53754017Y-83022552D01*
X53812799Y-82991841D01*
X53879000Y-82995817D01*
X54022506Y-83045083D01*
X54267707Y-83086000D01*
X54516293Y-83086000D01*
X54761493Y-83045083D01*
X54996606Y-82964368D01*
X55215233Y-82846053D01*
X55262056Y-82809609D01*
X54126128Y-81673681D01*
X54094034Y-81618094D01*
X54094034Y-81553906D01*
X54126128Y-81498319D01*
X55262057Y-80362389D01*
X55262056Y-80362388D01*
X55215235Y-80325947D01*
X54996608Y-80207632D01*
X54867138Y-80163184D01*
X54815309Y-80128938D01*
X54786593Y-80073852D01*
X54788198Y-80011751D01*
X54819717Y-79958227D01*
X55304010Y-79473934D01*
X55350477Y-79444666D01*
X55405030Y-79438337D01*
X55456962Y-79456188D01*
G37*
G04 #@! TD.AperFunction*
G04 #@! TA.AperFunction,Conductor*
G36*
X55333576Y-70689580D02*
G01*
X55421095Y-70743769D01*
X55421097Y-70743769D01*
X55421099Y-70743771D01*
X55628560Y-70824142D01*
X55847257Y-70865024D01*
X56069743Y-70865024D01*
X56099923Y-70859382D01*
X56162113Y-70863697D01*
X56214345Y-70897731D01*
X56243415Y-70952879D01*
X56241976Y-71015204D01*
X56210390Y-71068951D01*
X54224290Y-73055051D01*
X54218838Y-73060183D01*
X54173816Y-73100070D01*
X54139649Y-73149568D01*
X54135213Y-73155597D01*
X54098121Y-73202942D01*
X54093961Y-73212186D01*
X54082941Y-73231725D01*
X54077182Y-73240069D01*
X54055853Y-73296305D01*
X54052989Y-73303219D01*
X54028303Y-73358070D01*
X54026475Y-73368047D01*
X54020454Y-73389648D01*
X54016859Y-73399128D01*
X54009609Y-73458827D01*
X54008483Y-73466226D01*
X53997641Y-73525391D01*
X54001274Y-73585434D01*
X54001500Y-73592921D01*
X54001500Y-74173086D01*
X53987985Y-74229381D01*
X53950385Y-74273404D01*
X53896898Y-74295559D01*
X53839182Y-74291017D01*
X53789819Y-74260767D01*
X53772819Y-74243767D01*
X53745939Y-74203539D01*
X53736500Y-74156086D01*
X53736500Y-72202808D01*
X53745939Y-72155355D01*
X53772819Y-72115127D01*
X54083685Y-71804261D01*
X55180620Y-70707324D01*
X55227087Y-70678056D01*
X55281640Y-70671727D01*
X55333576Y-70689580D01*
G37*
G04 #@! TD.AperFunction*
G04 #@! TA.AperFunction,Conductor*
G36*
X64177923Y-66552758D02*
G01*
X64213845Y-66596174D01*
X64216025Y-66600551D01*
X64252942Y-66674689D01*
X64289387Y-66722950D01*
X64387019Y-66852237D01*
X64504580Y-66959407D01*
X64551438Y-67002124D01*
X64561404Y-67008294D01*
X64568777Y-67012860D01*
X64611829Y-67057948D01*
X64627500Y-67118287D01*
X64627500Y-69783192D01*
X64618061Y-69830645D01*
X64591181Y-69870873D01*
X64282873Y-70179181D01*
X64242645Y-70206061D01*
X64195192Y-70215500D01*
X62014000Y-70215500D01*
X61952000Y-70198887D01*
X61906613Y-70153500D01*
X61890000Y-70091500D01*
X61890000Y-69890000D01*
X59190000Y-69890000D01*
X59190000Y-70091500D01*
X59173387Y-70153500D01*
X59128000Y-70198887D01*
X59066000Y-70215500D01*
X58759505Y-70215500D01*
X58738295Y-70213158D01*
X58665738Y-70215439D01*
X58661843Y-70215500D01*
X58633071Y-70215500D01*
X58628690Y-70216053D01*
X58617059Y-70216968D01*
X58571428Y-70218402D01*
X58551052Y-70224322D01*
X58532005Y-70228267D01*
X58498044Y-70232558D01*
X58429705Y-70221735D01*
X58377804Y-70175979D01*
X58358500Y-70109536D01*
X58358500Y-67924500D01*
X58375113Y-67862500D01*
X58420500Y-67817113D01*
X58482500Y-67800500D01*
X59317289Y-67800500D01*
X59374546Y-67814511D01*
X59418864Y-67853377D01*
X59501505Y-67971401D01*
X59623818Y-68093714D01*
X59655114Y-68146460D01*
X59657303Y-68207753D01*
X59629850Y-68262597D01*
X59579472Y-68297576D01*
X59447913Y-68346646D01*
X59332811Y-68432811D01*
X59246647Y-68547910D01*
X59196402Y-68682624D01*
X59190000Y-68742176D01*
X59190000Y-69390000D01*
X61890000Y-69390000D01*
X61890000Y-68742176D01*
X61883597Y-68682624D01*
X61833352Y-68547910D01*
X61747188Y-68432811D01*
X61632088Y-68346647D01*
X61500528Y-68297577D01*
X61450149Y-68262597D01*
X61422696Y-68207752D01*
X61424885Y-68146460D01*
X61456178Y-68093717D01*
X61578495Y-67971401D01*
X61661136Y-67853376D01*
X61705454Y-67814511D01*
X61762711Y-67800500D01*
X62459079Y-67800500D01*
X62466566Y-67800726D01*
X62469706Y-67800915D01*
X62526606Y-67804358D01*
X62585782Y-67793513D01*
X62593181Y-67792387D01*
X62652872Y-67785140D01*
X62662335Y-67781550D01*
X62683958Y-67775522D01*
X62693932Y-67773695D01*
X62748808Y-67748996D01*
X62755673Y-67746152D01*
X62811930Y-67724818D01*
X62820270Y-67719060D01*
X62839819Y-67708035D01*
X62849057Y-67703878D01*
X62896413Y-67666775D01*
X62902420Y-67662355D01*
X62951929Y-67628183D01*
X62991823Y-67583150D01*
X62996924Y-67577731D01*
X63977731Y-66596924D01*
X63983133Y-66591838D01*
X64020623Y-66558626D01*
X64070186Y-66531824D01*
X64126497Y-66529723D01*
X64177923Y-66552758D01*
G37*
G04 #@! TD.AperFunction*
G04 #@! TA.AperFunction,Conductor*
G36*
X54938908Y-60277997D02*
G01*
X54982589Y-60314267D01*
X55001661Y-60339523D01*
X55023835Y-60387719D01*
X55023835Y-60440775D01*
X55001660Y-60488974D01*
X54983364Y-60513202D01*
X54941419Y-60548594D01*
X54888307Y-60562415D01*
X54861172Y-60563268D01*
X54855734Y-60563439D01*
X54851842Y-60563500D01*
X54823071Y-60563500D01*
X54818690Y-60564053D01*
X54807059Y-60564968D01*
X54761428Y-60566402D01*
X54741052Y-60572322D01*
X54722006Y-60576267D01*
X54700939Y-60578928D01*
X54658492Y-60595734D01*
X54647445Y-60599516D01*
X54603601Y-60612255D01*
X54585330Y-60623060D01*
X54567864Y-60631617D01*
X54548129Y-60639431D01*
X54511202Y-60666260D01*
X54501442Y-60672671D01*
X54462136Y-60695917D01*
X54447125Y-60710928D01*
X54432336Y-60723558D01*
X54415164Y-60736034D01*
X54386057Y-60771218D01*
X54378196Y-60779856D01*
X54328793Y-60829259D01*
X54310818Y-60844131D01*
X54303399Y-60849173D01*
X54265145Y-60892563D01*
X54259829Y-60898223D01*
X54254569Y-60903484D01*
X54248085Y-60909968D01*
X54237913Y-60923082D01*
X54232953Y-60929077D01*
X54194707Y-60972459D01*
X54190634Y-60980453D01*
X54178137Y-61000145D01*
X54172637Y-61007235D01*
X54149671Y-61060307D01*
X54146356Y-61067352D01*
X54120090Y-61118903D01*
X54118132Y-61127663D01*
X54110923Y-61149851D01*
X54107364Y-61158075D01*
X54098318Y-61215188D01*
X54096859Y-61222836D01*
X54084239Y-61279295D01*
X54084521Y-61288260D01*
X54083056Y-61311539D01*
X54081652Y-61320402D01*
X54085089Y-61356760D01*
X54080267Y-61404530D01*
X54057660Y-61446887D01*
X54020658Y-61477482D01*
X53924488Y-61529527D01*
X53728259Y-61682259D01*
X53728256Y-61682261D01*
X53728256Y-61682262D01*
X53559836Y-61865215D01*
X53516092Y-61932170D01*
X53423825Y-62073395D01*
X53364521Y-62208597D01*
X53323937Y-62301119D01*
X53269145Y-62517487D01*
X53262891Y-62542183D01*
X53242356Y-62790000D01*
X53262891Y-63037816D01*
X53262891Y-63037819D01*
X53262892Y-63037821D01*
X53323937Y-63278881D01*
X53343143Y-63322666D01*
X53423825Y-63506604D01*
X53423827Y-63506607D01*
X53559836Y-63714785D01*
X53663920Y-63827850D01*
X53728259Y-63897741D01*
X53829374Y-63976442D01*
X53866247Y-64023315D01*
X53873268Y-64061716D01*
X54748000Y-64936447D01*
X54748001Y-64936447D01*
X55622729Y-64061717D01*
X55629750Y-64023315D01*
X55666620Y-63976446D01*
X55767744Y-63897738D01*
X55936164Y-63714785D01*
X56072173Y-63506607D01*
X56172063Y-63278881D01*
X56233108Y-63037821D01*
X56253643Y-62790000D01*
X56233108Y-62542179D01*
X56226125Y-62514608D01*
X56225742Y-62455290D01*
X56252955Y-62402580D01*
X56301534Y-62368545D01*
X56495901Y-62293247D01*
X56685062Y-62176124D01*
X56749961Y-62116960D01*
X56799566Y-62089331D01*
X56856285Y-62086708D01*
X56908227Y-62109643D01*
X56944500Y-62153325D01*
X56957500Y-62208597D01*
X56957500Y-67031079D01*
X56957274Y-67038566D01*
X56953642Y-67098606D01*
X56955469Y-67108576D01*
X56957500Y-67130927D01*
X56957500Y-68669927D01*
X56944500Y-68725199D01*
X56908227Y-68768881D01*
X56856285Y-68791816D01*
X56799566Y-68789193D01*
X56749962Y-68761564D01*
X56685062Y-68702399D01*
X56495904Y-68585278D01*
X56461193Y-68571831D01*
X56327702Y-68520116D01*
X56286178Y-68493512D01*
X56258307Y-68452824D01*
X56248499Y-68404491D01*
X56248499Y-66742130D01*
X56248499Y-66742127D01*
X56242091Y-66682517D01*
X56191796Y-66547669D01*
X56105546Y-66432454D01*
X55990331Y-66346204D01*
X55990329Y-66346203D01*
X55989013Y-66345218D01*
X55950401Y-66297180D01*
X55939686Y-66236485D01*
X55959515Y-66178129D01*
X56071733Y-66006365D01*
X56171586Y-65778721D01*
X56232613Y-65537732D01*
X56253141Y-65290000D01*
X56232613Y-65042267D01*
X56171586Y-64801278D01*
X56071730Y-64573630D01*
X55971434Y-64420116D01*
X54835680Y-65555871D01*
X54780093Y-65587965D01*
X54715905Y-65587965D01*
X54660318Y-65555871D01*
X53524564Y-64420116D01*
X53424266Y-64573634D01*
X53324413Y-64801278D01*
X53263386Y-65042267D01*
X53242858Y-65290000D01*
X53263386Y-65537732D01*
X53324413Y-65778721D01*
X53424268Y-66006370D01*
X53536484Y-66178128D01*
X53556314Y-66236484D01*
X53545599Y-66297178D01*
X53506987Y-66345217D01*
X53390454Y-66432453D01*
X53304204Y-66547668D01*
X53253909Y-66682515D01*
X53253909Y-66682517D01*
X53247773Y-66739594D01*
X53247500Y-66742131D01*
X53247500Y-67015500D01*
X53230887Y-67077500D01*
X53185500Y-67122887D01*
X53123500Y-67139500D01*
X53098500Y-67139500D01*
X53036500Y-67122887D01*
X52991113Y-67077500D01*
X52974500Y-67015500D01*
X52974500Y-61534808D01*
X52983939Y-61487355D01*
X53010819Y-61447127D01*
X54156629Y-60301316D01*
X54196857Y-60274436D01*
X54244310Y-60264997D01*
X54883637Y-60264997D01*
X54938908Y-60277997D01*
G37*
G04 #@! TD.AperFunction*
D41*
X42926000Y-89408000D03*
X47362900Y-120514900D03*
X60060211Y-91302211D03*
X55229536Y-71485536D03*
X49276000Y-75946000D03*
X63500000Y-69596000D03*
X56812026Y-91302211D03*
X34544000Y-93218000D03*
X57658000Y-119913400D03*
X51562000Y-80518000D03*
X34016436Y-60536347D03*
X40182800Y-58623200D03*
X52549615Y-82804000D03*
X58757500Y-59614497D03*
X55958500Y-59614497D03*
X58757500Y-61214000D03*
X64820800Y-128778000D03*
X65278000Y-66040000D03*
X55958500Y-61214000D03*
X62687200Y-108661200D03*
X58757500Y-64770000D03*
X55958500Y-69664524D03*
X56170500Y-78486000D03*
X38167000Y-71882000D03*
X65430400Y-97790000D03*
X61441000Y-97790000D03*
X37076645Y-76701176D03*
X47252214Y-108466215D03*
X53746400Y-111760000D03*
X47244000Y-105511600D03*
X48040268Y-118603602D03*
X36752241Y-61705251D03*
X35153338Y-61661452D03*
X36748500Y-65125600D03*
X35018500Y-63872000D03*
X36753800Y-120499100D03*
X32156500Y-123288365D03*
X49047400Y-79197200D03*
X47244000Y-77216000D03*
X44246800Y-108534200D03*
X48344131Y-112911100D03*
X31281704Y-112451941D03*
X32878119Y-112551262D03*
X51917600Y-110286900D03*
X49199800Y-110286900D03*
X53594000Y-95707200D03*
X61441000Y-103378000D03*
X64740500Y-103378000D03*
X53410691Y-104718691D03*
X53360000Y-55880000D03*
X55860000Y-55880000D03*
X58013600Y-107340400D03*
X58013600Y-97180400D03*
X51917600Y-107340400D03*
X51917600Y-97180400D03*
X35102800Y-123708000D03*
X35102800Y-124978000D03*
X35102800Y-126248000D03*
X35102800Y-127518000D03*
X35102800Y-128788000D03*
X35102800Y-130058000D03*
X35102800Y-131328000D03*
X35102800Y-132598000D03*
X35102800Y-133868000D03*
X52832000Y-93539999D03*
X52832000Y-91539999D03*
X58892000Y-81586000D03*
X58892000Y-88086000D03*
X54392000Y-81586000D03*
X54392000Y-88086000D03*
X30320000Y-120590000D03*
X30320000Y-114090000D03*
X34820000Y-120590000D03*
X34820000Y-114090000D03*
X33070800Y-43950000D03*
X33070800Y-48950000D03*
X41734001Y-91739998D03*
X41734001Y-93739998D03*
X54965600Y-107340400D03*
X54965600Y-97180400D03*
X51054000Y-77712000D03*
X53594000Y-77712000D03*
X56300000Y-135128000D03*
X56300000Y-133628000D03*
X56300000Y-132138000D03*
X56300000Y-130628000D03*
X56300000Y-129128000D03*
X56300000Y-127628000D03*
X56300000Y-126128000D03*
X56300000Y-124628000D03*
X56300000Y-123128000D03*
X38100000Y-123158000D03*
X38100000Y-124628000D03*
X38100000Y-126128000D03*
X38100000Y-127628000D03*
X38100000Y-129128000D03*
X38100000Y-130628000D03*
X38100000Y-132128000D03*
X38100000Y-133628000D03*
X38100000Y-135128000D03*
X54748000Y-67790000D03*
X54748000Y-62790000D03*
X54748000Y-65290000D03*
D42*
X47248000Y-70890000D03*
X47248000Y-59690000D03*
D41*
X40248000Y-62790000D03*
X40248000Y-67790000D03*
X39725600Y-97180400D03*
X39725600Y-107340400D03*
X59182000Y-72912000D03*
X30657800Y-127254000D03*
X30657800Y-134874000D03*
X63450000Y-139600000D03*
X36677600Y-97180400D03*
X36677600Y-107340400D03*
X57429400Y-50647600D03*
X38227000Y-111912400D03*
X38227000Y-119532400D03*
X35850000Y-88000000D03*
X35850000Y-81500000D03*
X40350000Y-88000000D03*
X40350000Y-81500000D03*
X40045800Y-77724000D03*
X42585800Y-77724000D03*
X45125800Y-77724000D03*
X62636400Y-123977400D03*
X64636400Y-123977400D03*
X49621000Y-81586000D03*
X49621000Y-88086000D03*
X45121000Y-81586000D03*
X45121000Y-88086000D03*
X59232800Y-133858000D03*
X59232800Y-132588000D03*
X59232800Y-131318000D03*
X59232800Y-130048000D03*
X59232800Y-128778000D03*
X59232800Y-127508000D03*
X59232800Y-126238000D03*
X59232800Y-124968000D03*
X59232800Y-123698000D03*
X30581600Y-97180400D03*
X30581600Y-107340400D03*
X42773600Y-97180400D03*
X42773600Y-107340400D03*
X59690000Y-110650000D03*
X62190000Y-110650000D03*
X57251600Y-44475400D03*
X45821600Y-107340400D03*
X45821600Y-97180400D03*
D43*
X32122000Y-61422500D03*
X32122000Y-65522500D03*
D41*
X48869600Y-107340400D03*
X48869600Y-97180400D03*
X64440000Y-113749100D03*
X64440000Y-120249100D03*
X59940000Y-113749100D03*
X59940000Y-120249100D03*
X63450000Y-83180000D03*
X59182000Y-75946000D03*
X49718600Y-120276600D03*
X52218600Y-120276600D03*
X47127801Y-117152400D03*
X57287801Y-117152400D03*
X45720000Y-73914000D03*
X38100000Y-73914000D03*
X33629600Y-97180400D03*
X33629600Y-107340400D03*
X31250000Y-139600000D03*
X60540000Y-69640000D03*
X60540000Y-67100000D03*
X60540000Y-64560000D03*
X60540000Y-62020000D03*
X60540000Y-59480000D03*
X44274001Y-91399999D03*
X44274001Y-93899999D03*
X30124400Y-110413800D03*
X32664400Y-110413800D03*
X35204400Y-110413800D03*
X50284001Y-93980000D03*
X50284001Y-91480000D03*
X50927000Y-54127400D03*
X50927000Y-51587400D03*
X48387000Y-54127400D03*
X48387000Y-51587400D03*
X45847000Y-54167400D03*
X45847000Y-51587400D03*
X43307000Y-54167400D03*
X43307000Y-51587400D03*
X50927000Y-50317400D03*
X49869200Y-47142400D03*
X48387000Y-50317400D03*
X47869200Y-47142400D03*
X45869200Y-47142400D03*
X45847000Y-50317400D03*
X43869200Y-47142400D03*
X43307000Y-50317400D03*
X50927000Y-55397400D03*
X48387000Y-55437400D03*
X45847000Y-55437400D03*
X43307000Y-55437400D03*
X44043600Y-112953800D03*
X44043600Y-120573800D03*
X31250000Y-83180000D03*
X48768000Y-73914000D03*
X56388000Y-73914000D03*
X30070000Y-54019999D03*
X30070000Y-43859999D03*
X57280000Y-114090000D03*
X47120000Y-114090000D03*
X63450000Y-74360000D03*
X31250000Y-74360000D03*
M02*
