G04 #@! TF.GenerationSoftware,KiCad,Pcbnew,7.0.1*
G04 #@! TF.CreationDate,2023-11-23T23:45:04+01:00*
G04 #@! TF.ProjectId,Spotify_controller,53706f74-6966-4795-9f63-6f6e74726f6c,rev?*
G04 #@! TF.SameCoordinates,Original*
G04 #@! TF.FileFunction,Profile,NP*
%FSLAX46Y46*%
G04 Gerber Fmt 4.6, Leading zero omitted, Abs format (unit mm)*
G04 Created by KiCad (PCBNEW 7.0.1) date 2023-11-23 23:45:04*
%MOMM*%
%LPD*%
G01*
G04 APERTURE LIST*
G04 #@! TA.AperFunction,Profile*
%ADD10C,0.100000*%
G04 #@! TD*
G04 #@! TA.AperFunction,Profile*
%ADD11C,0.050000*%
G04 #@! TD*
G04 APERTURE END LIST*
D10*
X66300000Y-142500000D02*
X58200000Y-142500000D01*
X56200000Y-136200000D02*
X38200000Y-136200000D01*
X66240000Y-42500000D02*
X28300000Y-42500000D01*
X66300000Y-142500000D02*
X66240000Y-42500000D01*
X28360000Y-142500000D02*
X36200000Y-142500000D01*
X28300000Y-42500000D02*
X28360000Y-142500000D01*
X36200000Y-142500000D02*
X36200000Y-138200000D01*
X58200000Y-142500000D02*
X58200000Y-138200000D01*
X58200000Y-138200000D02*
G75*
G03*
X56200000Y-136200000I-2000000J0D01*
G01*
X38200000Y-136200000D02*
G75*
G03*
X36200000Y-138200000I0J-2000000D01*
G01*
D11*
G04 #@! TO.C,J3*
X42107600Y-66469200D02*
X42107600Y-64081600D01*
X41091600Y-64081600D02*
X41091600Y-66469200D01*
X41091600Y-66469200D02*
G75*
G03*
X42107600Y-66469200I508000J0D01*
G01*
X42107600Y-64081600D02*
G75*
G03*
X41091600Y-64081600I-508000J0D01*
G01*
X51240000Y-65290000D02*
G75*
G03*
X51240000Y-65290000I-3900000J0D01*
G01*
D10*
G04 #@! TO.C,J1*
X52384349Y-45688146D02*
G75*
G03*
X53695600Y-44007401I1403091J257230D01*
G01*
X53695599Y-44007400D02*
G75*
G03*
X52384522Y-45691682I-1380298J-277975D01*
G01*
X40059249Y-44003723D02*
G75*
G03*
X41367028Y-45683800I-69049J-1402777D01*
G01*
X41370500Y-45684496D02*
G75*
G03*
X40059249Y-44003753I91840J1423516D01*
G01*
D11*
X62637337Y-55297400D02*
G75*
G03*
X62637337Y-55297400I-1560337J0D01*
G01*
X59655562Y-53759400D02*
G75*
G03*
X59655562Y-53759400I-1260962J0D01*
G01*
X36914388Y-53708493D02*
G75*
G03*
X36914388Y-53708493I-1260612J0D01*
G01*
X34539367Y-55246493D02*
G75*
G03*
X34539367Y-55246493I-1503191J0D01*
G01*
G04 #@! TD*
M02*
